<?xml version="1.0" standalone="no"?>
<!DOCTYPE svg PUBLIC "-//W3C//DTD SVG 20010904//EN"
  "http://www.w3.org/TR/2001/REC-SVG-20010904/DTD/svg10.dtd">
<svg width="16" height="16">
  <circle cx="0" cy="0" r="1" fill="white"/>
  <circle cx="1" cy="0" r="1" fill="white"/>
  <circle cx="2" cy="0" r="1" fill="white"/>
  <circle cx="3" cy="0" r="1" fill="white"/>
  <circle cx="4" cy="0" r="1" fill="white"/>
  <circle cx="5" cy="0" r="1" fill="white"/>
  <circle cx="6" cy="0" r="1" fill="white"/>
  <circle cx="7" cy="0" r="1" fill="white"/>
  <circle cx="8" cy="0" r="1" fill="white"/>
  <circle cx="9" cy="0" r="1" fill="white"/>
  <circle cx="10" cy="0" r="1" fill="white"/>
  <circle cx="11" cy="0" r="1" fill="white"/>
  <circle cx="12" cy="0" r="1" fill="white"/>
  <circle cx="13" cy="0" r="1" fill="white"/>
  <circle cx="14" cy="0" r="1" fill="white"/>
  <circle cx="15" cy="0" r="1" fill="white"/>
  <circle cx="0" cy="1" r="1" fill="white"/>
  <circle cx="1" cy="1" r="1" fill="grey72"/>
  <circle cx="2" cy="1" r="1" fill="grey68"/>
  <circle cx="3" cy="1" r="1" fill="rgba(68.2338%,68.2338%,68.2338%,1)"/>
  <circle cx="4" cy="1" r="1" fill="rgba(68.2338%,68.2338%,68.2338%,1)"/>
  <circle cx="5" cy="1" r="1" fill="rgba(68.2338%,68.2338%,68.2338%,1)"/>
  <circle cx="6" cy="1" r="1" fill="rgba(68.2338%,68.2338%,68.2338%,1)"/>
  <circle cx="7" cy="1" r="1" fill="rgba(70.5867%,70.5867%,70.5867%,1)"/>
  <circle cx="8" cy="1" r="1" fill="white"/>
  <circle cx="9" cy="1" r="1" fill="white"/>
  <circle cx="10" cy="1" r="1" fill="white"/>
  <circle cx="11" cy="1" r="1" fill="white"/>
  <circle cx="12" cy="1" r="1" fill="white"/>
  <circle cx="13" cy="1" r="1" fill="white"/>
  <circle cx="14" cy="1" r="1" fill="white"/>
  <circle cx="15" cy="1" r="1" fill="white"/>
  <circle cx="0" cy="2" r="1" fill="rgba(76.0769%,76.0769%,76.0769%,1)"/>
  <circle cx="1" cy="2" r="1" fill="rgba(170,170,170,1)"/>
  <circle cx="2" cy="2" r="1" fill="grey99"/>
  <circle cx="3" cy="2" r="1" fill="white"/>
  <circle cx="4" cy="2" r="1" fill="white"/>
  <circle cx="5" cy="2" r="1" fill="white"/>
  <circle cx="6" cy="2" r="1" fill="white"/>
  <circle cx="7" cy="2" r="1" fill="grey67"/>
  <circle cx="8" cy="2" r="1" fill="rgba(180,180,180,1)"/>
  <circle cx="9" cy="2" r="1" fill="rgba(180,180,180,1)"/>
  <circle cx="10" cy="2" r="1" fill="rgba(180,180,180,1)"/>
  <circle cx="11" cy="2" r="1" fill="rgba(180,180,180,1)"/>
  <circle cx="12" cy="2" r="1" fill="rgba(180,180,180,1)"/>
  <circle cx="13" cy="2" r="1" fill="rgba(187,187,187,1)"/>
  <circle cx="14" cy="2" r="1" fill="white"/>
  <circle cx="15" cy="2" r="1" fill="white"/>
  <circle cx="0" cy="3" r="1" fill="rgba(66.6651%,66.6651%,66.6651%,1)"/>
  <circle cx="1" cy="3" r="1" fill="grey96"/>
  <circle cx="2" cy="3" r="1" fill="white"/>
  <circle cx="3" cy="3" r="1" fill="white"/>
  <circle cx="4" cy="3" r="1" fill="white"/>
  <circle cx="5" cy="3" r="1" fill="white"/>
  <circle cx="6" cy="3" r="1" fill="white"/>
  <circle cx="7" cy="3" r="1" fill="rgba(246,246,246,1)"/>
  <circle cx="8" cy="3" r="1" fill="rgba(243,243,243,1)"/>
  <circle cx="9" cy="3" r="1" fill="rgba(243,243,243,1)"/>
  <circle cx="10" cy="3" r="1" fill="rgba(243,243,243,1)"/>
  <circle cx="11" cy="3" r="1" fill="rgba(243,243,243,1)"/>
  <circle cx="12" cy="3" r="1" fill="rgba(243,243,243,1)"/>
  <circle cx="13" cy="3" r="1" fill="rgba(67.0573%,67.0573%,67.0573%,1)"/>
  <circle cx="14" cy="3" r="1" fill="rgba(254,254,254,1)"/>
  <circle cx="15" cy="3" r="1" fill="white"/>
  <circle cx="0" cy="4" r="1" fill="rgba(66.6651%,66.6651%,66.6651%,1)"/>
  <circle cx="1" cy="4" r="1" fill="white"/>
  <circle cx="2" cy="4" r="1" fill="rgba(174,174,174,1)"/>
  <circle cx="3" cy="4" r="1" fill="DarkGray"/>
  <circle cx="4" cy="4" r="1" fill="DarkGray"/>
  <circle cx="5" cy="4" r="1" fill="rgba(167,167,167,1)"/>
  <circle cx="6" cy="4" r="1" fill="rgba(165,165,165,1)"/>
  <circle cx="7" cy="4" r="1" fill="rgba(164,164,164,1)"/>
  <circle cx="8" cy="4" r="1" fill="grey64"/>
  <circle cx="9" cy="4" r="1" fill="grey63"/>
  <circle cx="10" cy="4" r="1" fill="rgba(160,160,160,1)"/>
  <circle cx="11" cy="4" r="1" fill="grey62"/>
  <circle cx="12" cy="4" r="1" fill="rgba(157,157,157,1)"/>
  <circle cx="13" cy="4" r="1" fill="grey60"/>
  <circle cx="14" cy="4" r="1" fill="rgba(154,154,154,1)"/>
  <circle cx="15" cy="4" r="1" fill="grey62"/>
  <circle cx="0" cy="5" r="1" fill="rgba(66.6651%,66.6651%,66.6651%,1)"/>
  <circle cx="1" cy="5" r="1" fill="white"/>
  <circle cx="2" cy="5" r="1" fill="rgba(167,167,167,1)"/>
  <circle cx="3" cy="5" r="1" fill="rgba(216,216,216,1)"/>
  <circle cx="4" cy="5" r="1" fill="rgba(216,216,216,1)"/>
  <circle cx="5" cy="5" r="1" fill="rgba(216,216,216,1)"/>
  <circle cx="6" cy="5" r="1" fill="rgba(216,216,216,1)"/>
  <circle cx="7" cy="5" r="1" fill="grey85"/>
  <circle cx="8" cy="5" r="1" fill="grey85"/>
  <circle cx="9" cy="5" r="1" fill="grey85"/>
  <circle cx="10" cy="5" r="1" fill="grey85"/>
  <circle cx="11" cy="5" r="1" fill="grey85"/>
  <circle cx="12" cy="5" r="1" fill="grey85"/>
  <circle cx="13" cy="5" r="1" fill="grey85"/>
  <circle cx="14" cy="5" r="1" fill="grey85"/>
  <circle cx="15" cy="5" r="1" fill="rgba(57.6455%,57.6455%,57.6455%,1)"/>
  <circle cx="0" cy="6" r="1" fill="rgba(66.6651%,66.6651%,66.6651%,1)"/>
  <circle cx="1" cy="6" r="1" fill="white"/>
  <circle cx="2" cy="6" r="1" fill="rgba(165,165,165,1)"/>
  <circle cx="3" cy="6" r="1" fill="rgba(213,213,213,1)"/>
  <circle cx="4" cy="6" r="1" fill="grey75"/>
  <circle cx="5" cy="6" r="1" fill="grey75"/>
  <circle cx="6" cy="6" r="1" fill="grey75"/>
  <circle cx="7" cy="6" r="1" fill="grey75"/>
  <circle cx="8" cy="6" r="1" fill="grey75"/>
  <circle cx="9" cy="6" r="1" fill="grey75"/>
  <circle cx="10" cy="6" r="1" fill="grey75"/>
  <circle cx="11" cy="6" r="1" fill="silver"/>
  <circle cx="12" cy="6" r="1" fill="grey75"/>
  <circle cx="13" cy="6" r="1" fill="grey74"/>
  <circle cx="14" cy="6" r="1" fill="rgba(188,188,188,1)"/>
  <circle cx="15" cy="6" r="1" fill="rgba(136,136,136,1)"/>
  <circle cx="0" cy="7" r="1" fill="rgba(66.6651%,66.6651%,66.6651%,1)"/>
  <circle cx="1" cy="7" r="1" fill="white"/>
  <circle cx="2" cy="7" r="1" fill="rgba(162,162,162,1)"/>
  <circle cx="3" cy="7" r="1" fill="rgba(210,210,210,1)"/>
  <circle cx="4" cy="7" r="1" fill="grey73"/>
  <circle cx="5" cy="7" r="1" fill="grey73"/>
  <circle cx="6" cy="7" r="1" fill="grey73"/>
  <circle cx="7" cy="7" r="1" fill="rgba(187,187,187,1)"/>
  <circle cx="8" cy="7" r="1" fill="rgba(187,187,187,1)"/>
  <circle cx="9" cy="7" r="1" fill="rgba(185,185,185,1)"/>
  <circle cx="10" cy="7" r="1" fill="grey72"/>
  <circle cx="11" cy="7" r="1" fill="rgba(182,182,182,1)"/>
  <circle cx="12" cy="7" r="1" fill="grey71"/>
  <circle cx="13" cy="7" r="1" fill="grey70"/>
  <circle cx="14" cy="7" r="1" fill="rgba(177,177,177,1)"/>
  <circle cx="15" cy="7" r="1" fill="rgba(49.0181%,49.0181%,49.0181%,1)"/>
  <circle cx="0" cy="8" r="1" fill="rgba(66.6651%,66.6651%,66.6651%,1)"/>
  <circle cx="1" cy="8" r="1" fill="white"/>
  <circle cx="2" cy="8" r="1" fill="rgba(159,159,159,1)"/>
  <circle cx="3" cy="8" r="1" fill="grey81"/>
  <circle cx="4" cy="8" r="1" fill="rgba(182,182,182,1)"/>
  <circle cx="5" cy="8" r="1" fill="grey71"/>
  <circle cx="6" cy="8" r="1" fill="rgba(180,180,180,1)"/>
  <circle cx="7" cy="8" r="1" fill="rgba(178,178,178,1)"/>
  <circle cx="8" cy="8" r="1" fill="grey69"/>
  <circle cx="9" cy="8" r="1" fill="rgba(175,175,175,1)"/>
  <circle cx="10" cy="8" r="1" fill="grey68"/>
  <circle cx="11" cy="8" r="1" fill="rgba(172,172,172,1)"/>
  <circle cx="12" cy="8" r="1" fill="rgba(170,170,170,1)"/>
  <circle cx="13" cy="8" r="1" fill="grey66"/>
  <circle cx="14" cy="8" r="1" fill="grey65"/>
  <circle cx="15" cy="8" r="1" fill="rgba(111,111,111,1)"/>
  <circle cx="0" cy="9" r="1" fill="rgba(66.6651%,66.6651%,66.6651%,1)"/>
  <circle cx="1" cy="9" r="1" fill="white"/>
  <circle cx="2" cy="9" r="1" fill="rgba(155,155,155,1)"/>
  <circle cx="3" cy="9" r="1" fill="rgba(202,202,202,1)"/>
  <circle cx="4" cy="9" r="1" fill="rgba(172,172,172,1)"/>
  <circle cx="5" cy="9" r="1" fill="rgba(170,170,170,1)"/>
  <circle cx="6" cy="9" r="1" fill="grey66"/>
  <circle cx="7" cy="9" r="1" fill="grey65"/>
  <circle cx="8" cy="9" r="1" fill="rgba(164,164,164,1)"/>
  <circle cx="9" cy="9" r="1" fill="rgba(162,162,162,1)"/>
  <circle cx="10" cy="9" r="1" fill="rgba(160,160,160,1)"/>
  <circle cx="11" cy="9" r="1" fill="rgba(159,159,159,1)"/>
  <circle cx="12" cy="9" r="1" fill="rgba(159,159,159,1)"/>
  <circle cx="13" cy="9" r="1" fill="rgba(159,159,159,1)"/>
  <circle cx="14" cy="9" r="1" fill="rgba(160,160,160,1)"/>
  <circle cx="15" cy="9" r="1" fill="rgba(42.3514%,42.3514%,42.3514%,1)"/>
  <circle cx="0" cy="10" r="1" fill="rgba(66.6651%,66.6651%,66.6651%,1)"/>
  <circle cx="1" cy="10" r="1" fill="white"/>
  <circle cx="2" cy="10" r="1" fill="rgba(141,141,141,1)"/>
  <circle cx="3" cy="10" r="1" fill="rgba(193,193,193,1)"/>
  <circle cx="4" cy="10" r="1" fill="rgba(157,157,157,1)"/>
  <circle cx="5" cy="10" r="1" fill="rgba(155,155,155,1)"/>
  <circle cx="6" cy="10" r="1" fill="rgba(154,154,154,1)"/>
  <circle cx="7" cy="10" r="1" fill="grey60"/>
  <circle cx="8" cy="10" r="1" fill="grey60"/>
  <circle cx="9" cy="10" r="1" fill="grey60"/>
  <circle cx="10" cy="10" r="1" fill="grey60"/>
  <circle cx="11" cy="10" r="1" fill="grey60"/>
  <circle cx="12" cy="10" r="1" fill="rgba(154,154,154,1)"/>
  <circle cx="13" cy="10" r="1" fill="rgba(154,154,154,1)"/>
  <circle cx="14" cy="10" r="1" fill="rgba(154,154,154,1)"/>
  <circle cx="15" cy="10" r="1" fill="rgba(40.3906%,40.3906%,40.3906%,1)"/>
  <circle cx="0" cy="11" r="1" fill="rgba(66.6651%,66.6651%,66.6651%,1)"/>
  <circle cx="1" cy="11" r="1" fill="white"/>
  <circle cx="2" cy="11" r="1" fill="rgba(124,124,124,1)"/>
  <circle cx="3" cy="11" r="1" fill="rgba(185,185,185,1)"/>
  <circle cx="4" cy="11" r="1" fill="rgba(147,147,147,1)"/>
  <circle cx="5" cy="11" r="1" fill="rgba(147,147,147,1)"/>
  <circle cx="6" cy="11" r="1" fill="rgba(147,147,147,1)"/>
  <circle cx="7" cy="11" r="1" fill="rgba(147,147,147,1)"/>
  <circle cx="8" cy="11" r="1" fill="rgba(147,147,147,1)"/>
  <circle cx="9" cy="11" r="1" fill="grey58"/>
  <circle cx="10" cy="11" r="1" fill="grey58"/>
  <circle cx="11" cy="11" r="1" fill="grey58"/>
  <circle cx="12" cy="11" r="1" fill="grey58"/>
  <circle cx="13" cy="11" r="1" fill="grey58"/>
  <circle cx="14" cy="11" r="1" fill="rgba(149,149,149,1)"/>
  <circle cx="15" cy="11" r="1" fill="rgba(100,100,100,1)"/>
  <circle cx="0" cy="12" r="1" fill="rgba(66.6651%,66.6651%,66.6651%,1)"/>
  <circle cx="1" cy="12" r="1" fill="white"/>
  <circle cx="2" cy="12" r="1" fill="grey47"/>
  <circle cx="3" cy="12" r="1" fill="grey71"/>
  <circle cx="4" cy="12" r="1" fill="rgba(141,141,141,1)"/>
  <circle cx="5" cy="12" r="1" fill="rgba(142,142,142,1)"/>
  <circle cx="6" cy="12" r="1" fill="rgba(142,142,142,1)"/>
  <circle cx="7" cy="12" r="1" fill="rgba(142,142,142,1)"/>
  <circle cx="8" cy="12" r="1" fill="rgba(142,142,142,1)"/>
  <circle cx="9" cy="12" r="1" fill="rgba(142,142,142,1)"/>
  <circle cx="10" cy="12" r="1" fill="rgba(142,142,142,1)"/>
  <circle cx="11" cy="12" r="1" fill="grey56"/>
  <circle cx="12" cy="12" r="1" fill="grey56"/>
  <circle cx="13" cy="12" r="1" fill="grey56"/>
  <circle cx="14" cy="12" r="1" fill="grey56"/>
  <circle cx="15" cy="12" r="1" fill="rgba(39.2142%,39.2142%,39.2142%,1)"/>
  <circle cx="0" cy="13" r="1" fill="rgba(66.6651%,66.6651%,66.6651%,1)"/>
  <circle cx="1" cy="13" r="1" fill="white"/>
  <circle cx="2" cy="13" r="1" fill="rgba(118,118,118,1)"/>
  <circle cx="3" cy="13" r="1" fill="rgba(178,178,178,1)"/>
  <circle cx="4" cy="13" r="1" fill="rgba(136,136,136,1)"/>
  <circle cx="5" cy="13" r="1" fill="rgba(136,136,136,1)"/>
  <circle cx="6" cy="13" r="1" fill="rgba(136,136,136,1)"/>
  <circle cx="7" cy="13" r="1" fill="rgba(136,136,136,1)"/>
  <circle cx="8" cy="13" r="1" fill="rgba(137,137,137,1)"/>
  <circle cx="9" cy="13" r="1" fill="rgba(137,137,137,1)"/>
  <circle cx="10" cy="13" r="1" fill="rgba(137,137,137,1)"/>
  <circle cx="11" cy="13" r="1" fill="rgba(137,137,137,1)"/>
  <circle cx="12" cy="13" r="1" fill="rgba(137,137,137,1)"/>
  <circle cx="13" cy="13" r="1" fill="rgba(137,137,137,1)"/>
  <circle cx="14" cy="13" r="1" fill="rgba(136,136,136,1)"/>
  <circle cx="15" cy="13" r="1" fill="rgba(39.2142%,39.2142%,39.2142%,1)"/>
  <circle cx="0" cy="14" r="1" fill="rgba(178,178,178,1)"/>
  <circle cx="1" cy="14" r="1" fill="rgba(67.0573%,67.0573%,67.0573%,1)"/>
  <circle cx="2" cy="14" r="1" fill="grey46"/>
  <circle cx="3" cy="14" r="1" fill="grey44"/>
  <circle cx="4" cy="14" r="1" fill="grey43"/>
  <circle cx="5" cy="14" r="1" fill="rgba(108,108,108,1)"/>
  <circle cx="6" cy="14" r="1" fill="rgba(106,106,106,1)"/>
  <circle cx="7" cy="14" r="1" fill="rgba(104,104,104,1)"/>
  <circle cx="8" cy="14" r="1" fill="grey40"/>
  <circle cx="9" cy="14" r="1" fill="rgba(101,101,101,1)"/>
  <circle cx="10" cy="14" r="1" fill="grey39"/>
  <circle cx="11" cy="14" r="1" fill="rgba(98,98,98,1)"/>
  <circle cx="12" cy="14" r="1" fill="rgba(98,98,98,1)"/>
  <circle cx="13" cy="14" r="1" fill="rgba(98,98,98,1)"/>
  <circle cx="14" cy="14" r="1" fill="rgba(98,98,98,1)"/>
  <circle cx="15" cy="14" r="1" fill="rgba(116,116,116,1)"/>
  <circle cx="0" cy="15" r="1" fill="white"/>
  <circle cx="1" cy="15" r="1" fill="grey93"/>
  <circle cx="2" cy="15" r="1" fill="grey85"/>
  <circle cx="3" cy="15" r="1" fill="rgba(213,213,213,1)"/>
  <circle cx="4" cy="15" r="1" fill="rgba(213,213,213,1)"/>
  <circle cx="5" cy="15" r="1" fill="rgba(213,213,213,1)"/>
  <circle cx="6" cy="15" r="1" fill="rgba(213,213,213,1)"/>
  <circle cx="7" cy="15" r="1" fill="rgba(213,213,213,1)"/>
  <circle cx="8" cy="15" r="1" fill="rgba(213,213,213,1)"/>
  <circle cx="9" cy="15" r="1" fill="rgba(213,213,213,1)"/>
  <circle cx="10" cy="15" r="1" fill="rgba(213,213,213,1)"/>
  <circle cx="11" cy="15" r="1" fill="rgba(213,213,213,1)"/>
  <circle cx="12" cy="15" r="1" fill="rgba(213,213,213,1)"/>
  <circle cx="13" cy="15" r="1" fill="grey85"/>
  <circle cx="14" cy="15" r="1" fill="grey93"/>
  <circle cx="15" cy="15" r="1" fill="white"/>
</svg>
