<?xml version="1.0" standalone="no"?>
<!DOCTYPE svg PUBLIC "-//W3C//DTD SVG 20010904//EN"
  "http://www.w3.org/TR/2001/REC-SVG-20010904/DTD/svg10.dtd">
<svg width="16" height="16">
  <circle cx="0" cy="0" r="1" fill="white"/>
  <circle cx="1" cy="0" r="1" fill="white"/>
  <circle cx="2" cy="0" r="1" fill="white"/>
  <circle cx="3" cy="0" r="1" fill="white"/>
  <circle cx="4" cy="0" r="1" fill="white"/>
  <circle cx="5" cy="0" r="1" fill="white"/>
  <circle cx="6" cy="0" r="1" fill="white"/>
  <circle cx="7" cy="0" r="1" fill="white"/>
  <circle cx="8" cy="0" r="1" fill="white"/>
  <circle cx="9" cy="0" r="1" fill="white"/>
  <circle cx="10" cy="0" r="1" fill="white"/>
  <circle cx="11" cy="0" r="1" fill="white"/>
  <circle cx="12" cy="0" r="1" fill="white"/>
  <circle cx="13" cy="0" r="1" fill="white"/>
  <circle cx="14" cy="0" r="1" fill="white"/>
  <circle cx="15" cy="0" r="1" fill="white"/>
  <circle cx="0" cy="1" r="1" fill="white"/>
  <circle cx="1" cy="1" r="1" fill="white"/>
  <circle cx="2" cy="1" r="1" fill="white"/>
  <circle cx="3" cy="1" r="1" fill="white"/>
  <circle cx="4" cy="1" r="1" fill="white"/>
  <circle cx="5" cy="1" r="1" fill="white"/>
  <circle cx="6" cy="1" r="1" fill="white"/>
  <circle cx="7" cy="1" r="1" fill="white"/>
  <circle cx="8" cy="1" r="1" fill="white"/>
  <circle cx="9" cy="1" r="1" fill="white"/>
  <circle cx="10" cy="1" r="1" fill="white"/>
  <circle cx="11" cy="1" r="1" fill="white"/>
  <circle cx="12" cy="1" r="1" fill="white"/>
  <circle cx="13" cy="1" r="1" fill="white"/>
  <circle cx="14" cy="1" r="1" fill="white"/>
  <circle cx="15" cy="1" r="1" fill="white"/>
  <circle cx="0" cy="2" r="1" fill="white"/>
  <circle cx="1" cy="2" r="1" fill="white"/>
  <circle cx="2" cy="2" r="1" fill="white"/>
  <circle cx="3" cy="2" r="1" fill="rgba(238,245,249,1)"/>
  <circle cx="4" cy="2" r="1" fill="rgba(183,212,231,1)"/>
  <circle cx="5" cy="2" r="1" fill="rgba(50.1961%,70.9789%,84.3122%,1)"/>
  <circle cx="6" cy="2" r="1" fill="rgba(38.822%,64.3122%,80%,1)"/>
  <circle cx="7" cy="2" r="1" fill="rgba(36.4691%,62.3529%,79.2142%,1)"/>
  <circle cx="8" cy="2" r="1" fill="rgba(36.4691%,62.3529%,79.2142%,1)"/>
  <circle cx="9" cy="2" r="1" fill="rgba(38.822%,64.3122%,80%,1)"/>
  <circle cx="10" cy="2" r="1" fill="rgba(50.1961%,70.9789%,83.9216%,1)"/>
  <circle cx="11" cy="2" r="1" fill="rgba(184,213,231,1)"/>
  <circle cx="12" cy="2" r="1" fill="rgba(239,245,250,1)"/>
  <circle cx="13" cy="2" r="1" fill="white"/>
  <circle cx="14" cy="2" r="1" fill="white"/>
  <circle cx="15" cy="2" r="1" fill="white"/>
  <circle cx="0" cy="3" r="1" fill="white"/>
  <circle cx="1" cy="3" r="1" fill="rgba(241,246,250,1)"/>
  <circle cx="2" cy="3" r="1" fill="rgba(153,194,221,1)"/>
  <circle cx="3" cy="3" r="1" fill="rgba(34.9004%,61.5671%,78.0392%,1)"/>
  <circle cx="4" cy="3" r="1" fill="rgba(115,182,217,1)"/>
  <circle cx="5" cy="3" r="1" fill="rgba(124,197,229,1)"/>
  <circle cx="6" cy="3" r="1" fill="rgba(135,209,236,1)"/>
  <circle cx="7" cy="3" r="1" fill="rgba(145,216,239,1)"/>
  <circle cx="8" cy="3" r="1" fill="rgba(146,216,239,1)"/>
  <circle cx="9" cy="3" r="1" fill="rgba(140,211,236,1)"/>
  <circle cx="10" cy="3" r="1" fill="rgba(126,197,228,1)"/>
  <circle cx="11" cy="3" r="1" fill="rgba(43.5294%,70.1946%,84.7044%,1)"/>
  <circle cx="12" cy="3" r="1" fill="rgba(34.1161%,61.1749%,78.0392%,1)"/>
  <circle cx="13" cy="3" r="1" fill="rgba(155,196,222,1)"/>
  <circle cx="14" cy="3" r="1" fill="rgba(241,247,250,1)"/>
  <circle cx="15" cy="3" r="1" fill="white"/>
  <circle cx="0" cy="4" r="1" fill="rgba(215,230,240,1)"/>
  <circle cx="1" cy="4" r="1" fill="rgba(34.5083%,59.6063%,76.8627%,1)"/>
  <circle cx="2" cy="4" r="1" fill="rgba(40.7828%,67.0588%,84.7044%,1)"/>
  <circle cx="3" cy="4" r="1" fill="rgba(112,191,234,1)"/>
  <circle cx="4" cy="4" r="1" fill="rgba(88,176,220,1)"/>
  <circle cx="5" cy="4" r="1" fill="rgba(34.1161%,63.92%,80.7843%,1)"/>
  <circle cx="6" cy="4" r="1" fill="rgba(33.724%,60.3922%,77.2549%,1)"/>
  <circle cx="7" cy="4" r="1" fill="rgba(31.7632%,58.4298%,76.0784%,1)"/>
  <circle cx="8" cy="4" r="1" fill="rgba(31.7632%,58.4298%,76.0784%,1)"/>
  <circle cx="9" cy="4" r="1" fill="rgba(33.724%,60.3922%,77.6471%,1)"/>
  <circle cx="10" cy="4" r="1" fill="rgba(33.7255%,63.5279%,80.7843%,1)"/>
  <circle cx="11" cy="4" r="1" fill="rgba(92,177,221,1)"/>
  <circle cx="12" cy="4" r="1" fill="rgba(115,192,235,1)"/>
  <circle cx="13" cy="4" r="1" fill="rgba(40.3906%,66.6667%,84.3137%,1)"/>
  <circle cx="14" cy="4" r="1" fill="rgba(34.5083%,59.6063%,76.8627%,1)"/>
  <circle cx="15" cy="4" r="1" fill="rgba(215,230,240,1)"/>
  <circle cx="0" cy="5" r="1" fill="rgba(84,148,193,1)"/>
  <circle cx="1" cy="5" r="1" fill="rgba(88,160,214,1)"/>
  <circle cx="2" cy="5" r="1" fill="rgba(86,166,222,1)"/>
  <circle cx="3" cy="5" r="1" fill="rgba(29.8039%,57.2534%,75.2941%,1)"/>
  <circle cx="4" cy="5" r="1" fill="rgba(41.9593%,63.9216%,79.2142%,1)"/>
  <circle cx="5" cy="5" r="1" fill="rgba(189,214,231,1)"/>
  <circle cx="6" cy="5" r="1" fill="rgba(229,238,245,1)"/>
  <circle cx="7" cy="5" r="1" fill="rgba(240,246,250,1)"/>
  <circle cx="8" cy="5" r="1" fill="rgba(240,246,250,1)"/>
  <circle cx="9" cy="5" r="1" fill="rgba(228,238,245,1)"/>
  <circle cx="10" cy="5" r="1" fill="rgba(188,213,230,1)"/>
  <circle cx="11" cy="5" r="1" fill="rgba(43.1373%,65.4902%,79.9985%,1)"/>
  <circle cx="12" cy="5" r="1" fill="rgba(29.4102%,57.2534%,75.6847%,1)"/>
  <circle cx="13" cy="5" r="1" fill="rgba(89,168,224,1)"/>
  <circle cx="14" cy="5" r="1" fill="rgba(88,160,214,1)"/>
  <circle cx="15" cy="5" r="1" fill="rgba(84,148,193,1)"/>
  <circle cx="0" cy="6" r="1" fill="rgba(206,224,236,1)"/>
  <circle cx="1" cy="6" r="1" fill="rgba(27.4495%,54.5098%,73.3318%,1)"/>
  <circle cx="2" cy="6" r="1" fill="rgba(30.1946%,55.6863%,74.1161%,1)"/>
  <circle cx="3" cy="6" r="1" fill="rgba(203,222,235,1)"/>
  <circle cx="4" cy="6" r="1" fill="rgba(232,240,246,1)"/>
  <circle cx="5" cy="6" r="1" fill="rgba(56.8627%,72.9397%,83.9216%,1)"/>
  <circle cx="6" cy="6" r="1" fill="rgba(33.3318%,58.4298%,75.2926%,1)"/>
  <circle cx="7" cy="6" r="1" fill="rgba(27.4495%,54.5098%,73.3318%,1)"/>
  <circle cx="8" cy="6" r="1" fill="rgba(27.4495%,54.5098%,73.3318%,1)"/>
  <circle cx="9" cy="6" r="1" fill="rgba(32.9397%,58.0392%,75.2926%,1)"/>
  <circle cx="10" cy="6" r="1" fill="rgba(142,185,213,1)"/>
  <circle cx="11" cy="6" r="1" fill="rgba(226,237,244,1)"/>
  <circle cx="12" cy="6" r="1" fill="rgba(203,222,235,1)"/>
  <circle cx="13" cy="6" r="1" fill="rgba(30.1946%,55.6863%,74.1161%,1)"/>
  <circle cx="14" cy="6" r="1" fill="rgba(68,137,186,1)"/>
  <circle cx="15" cy="6" r="1" fill="rgba(204,222,236,1)"/>
  <circle cx="0" cy="7" r="1" fill="white"/>
  <circle cx="1" cy="7" r="1" fill="rgba(227,237,244,1)"/>
  <circle cx="2" cy="7" r="1" fill="rgba(236,242,247,1)"/>
  <circle cx="3" cy="7" r="1" fill="rgba(146,186,215,1)"/>
  <circle cx="4" cy="7" r="1" fill="rgba(26.6667%,53.3318%,72.5475%,1)"/>
  <circle cx="5" cy="7" r="1" fill="rgba(39.9985%,65.8808%,83.9216%,1)"/>
  <circle cx="6" cy="7" r="1" fill="rgba(106,181,228,1)"/>
  <circle cx="7" cy="7" r="1" fill="rgba(108,189,236,1)"/>
  <circle cx="8" cy="7" r="1" fill="rgba(108,189,236,1)"/>
  <circle cx="9" cy="7" r="1" fill="rgba(106,181,228,1)"/>
  <circle cx="10" cy="7" r="1" fill="rgba(39.2157%,65.4902%,83.92%,1)"/>
  <circle cx="11" cy="7" r="1" fill="rgba(67,135,184,1)"/>
  <circle cx="12" cy="7" r="1" fill="rgba(55.2926%,71.7647%,83.5294%,1)"/>
  <circle cx="13" cy="7" r="1" fill="rgba(235,242,247,1)"/>
  <circle cx="14" cy="7" r="1" fill="rgba(218,231,241,1)"/>
  <circle cx="15" cy="7" r="1" fill="white"/>
  <circle cx="0" cy="8" r="1" fill="white"/>
  <circle cx="1" cy="8" r="1" fill="white"/>
  <circle cx="2" cy="8" r="1" fill="rgba(208,224,236,1)"/>
  <circle cx="3" cy="8" r="1" fill="rgba(21.1749%,48.2338%,68.6275%,1)"/>
  <circle cx="4" cy="8" r="1" fill="rgba(94,167,227,1)"/>
  <circle cx="5" cy="8" r="1" fill="rgba(69,150,213,1)"/>
  <circle cx="6" cy="8" r="1" fill="rgba(25.8808%,53.3333%,74.1161%,1)"/>
  <circle cx="7" cy="8" r="1" fill="rgba(22.3514%,49.4118%,69.8039%,1)"/>
  <circle cx="8" cy="8" r="1" fill="rgba(59,127,178,1)"/>
  <circle cx="9" cy="8" r="1" fill="rgba(25.4887%,53.724%,74.5083%,1)"/>
  <circle cx="10" cy="8" r="1" fill="rgba(70,152,215,1)"/>
  <circle cx="11" cy="8" r="1" fill="rgba(95,170,229,1)"/>
  <circle cx="12" cy="8" r="1" fill="rgba(55,125,176,1)"/>
  <circle cx="13" cy="8" r="1" fill="rgba(200,219,233,1)"/>
  <circle cx="14" cy="8" r="1" fill="white"/>
  <circle cx="15" cy="8" r="1" fill="white"/>
  <circle cx="0" cy="9" r="1" fill="white"/>
  <circle cx="1" cy="9" r="1" fill="white"/>
  <circle cx="2" cy="9" r="1" fill="white"/>
  <circle cx="3" cy="9" r="1" fill="rgba(153,188,215,1)"/>
  <circle cx="4" cy="9" r="1" fill="rgba(19.2142%,46.273%,67.451%,1)"/>
  <circle cx="5" cy="9" r="1" fill="rgba(32.549%,55.2941%,73.3318%,1)"/>
  <circle cx="6" cy="9" r="1" fill="rgba(193,214,230,1)"/>
  <circle cx="7" cy="9" r="1" fill="rgba(245,248,251,1)"/>
  <circle cx="8" cy="9" r="1" fill="rgba(242,246,250,1)"/>
  <circle cx="9" cy="9" r="1" fill="rgba(184,208,226,1)"/>
  <circle cx="10" cy="9" r="1" fill="rgba(29.4118%,53.3318%,72.1553%,1)"/>
  <circle cx="11" cy="9" r="1" fill="rgba(20%,47.0588%,68.2338%,1)"/>
  <circle cx="12" cy="9" r="1" fill="rgba(138,178,209,1)"/>
  <circle cx="13" cy="9" r="1" fill="white"/>
  <circle cx="14" cy="9" r="1" fill="white"/>
  <circle cx="15" cy="9" r="1" fill="white"/>
  <circle cx="0" cy="10" r="1" fill="white"/>
  <circle cx="1" cy="10" r="1" fill="white"/>
  <circle cx="2" cy="10" r="1" fill="white"/>
  <circle cx="3" cy="10" r="1" fill="white"/>
  <circle cx="4" cy="10" r="1" fill="rgba(227,236,243,1)"/>
  <circle cx="5" cy="10" r="1" fill="rgba(239,244,248,1)"/>
  <circle cx="6" cy="10" r="1" fill="rgba(45.8808%,63.9216%,78.4314%,1)"/>
  <circle cx="7" cy="10" r="1" fill="rgba(22.3529%,47.8416%,68.6275%,1)"/>
  <circle cx="8" cy="10" r="1" fill="rgba(22.3529%,47.8416%,68.6275%,1)"/>
  <circle cx="9" cy="10" r="1" fill="rgba(116,162,200,1)"/>
  <circle cx="10" cy="10" r="1" fill="rgba(237,243,248,1)"/>
  <circle cx="11" cy="10" r="1" fill="rgba(217,230,239,1)"/>
  <circle cx="12" cy="10" r="1" fill="rgba(254,254,255,1)"/>
  <circle cx="13" cy="10" r="1" fill="white"/>
  <circle cx="14" cy="10" r="1" fill="white"/>
  <circle cx="15" cy="10" r="1" fill="white"/>
  <circle cx="0" cy="11" r="1" fill="white"/>
  <circle cx="1" cy="11" r="1" fill="white"/>
  <circle cx="2" cy="11" r="1" fill="white"/>
  <circle cx="3" cy="11" r="1" fill="white"/>
  <circle cx="4" cy="11" r="1" fill="white"/>
  <circle cx="5" cy="11" r="1" fill="rgba(146,181,209,1)"/>
  <circle cx="6" cy="11" r="1" fill="rgba(20%,46.273%,67.8416%,1)"/>
  <circle cx="7" cy="11" r="1" fill="rgba(105,164,228,1)"/>
  <circle cx="8" cy="11" r="1" fill="rgba(103,163,226,1)"/>
  <circle cx="9" cy="11" r="1" fill="rgba(21.5686%,47.451%,68.6259%,1)"/>
  <circle cx="10" cy="11" r="1" fill="rgba(141,178,208,1)"/>
  <circle cx="11" cy="11" r="1" fill="white"/>
  <circle cx="12" cy="11" r="1" fill="white"/>
  <circle cx="13" cy="11" r="1" fill="white"/>
  <circle cx="14" cy="11" r="1" fill="white"/>
  <circle cx="15" cy="11" r="1" fill="white"/>
  <circle cx="0" cy="12" r="1" fill="white"/>
  <circle cx="1" cy="12" r="1" fill="white"/>
  <circle cx="2" cy="12" r="1" fill="white"/>
  <circle cx="3" cy="12" r="1" fill="white"/>
  <circle cx="4" cy="12" r="1" fill="white"/>
  <circle cx="5" cy="12" r="1" fill="rgba(250,251,253,1)"/>
  <circle cx="6" cy="12" r="1" fill="rgba(32.5475%,53.7255%,70.9804%,1)"/>
  <circle cx="7" cy="12" r="1" fill="rgba(22.7436%,48.2338%,71.7632%,1)"/>
  <circle cx="8" cy="12" r="1" fill="rgba(22.7436%,48.2338%,71.7647%,1)"/>
  <circle cx="9" cy="12" r="1" fill="rgba(31.7647%,52.9397%,70.9804%,1)"/>
  <circle cx="10" cy="12" r="1" fill="rgba(249,251,252,1)"/>
  <circle cx="11" cy="12" r="1" fill="white"/>
  <circle cx="12" cy="12" r="1" fill="white"/>
  <circle cx="13" cy="12" r="1" fill="white"/>
  <circle cx="14" cy="12" r="1" fill="white"/>
  <circle cx="15" cy="12" r="1" fill="white"/>
  <circle cx="0" cy="13" r="1" fill="white"/>
  <circle cx="1" cy="13" r="1" fill="white"/>
  <circle cx="2" cy="13" r="1" fill="white"/>
  <circle cx="3" cy="13" r="1" fill="white"/>
  <circle cx="4" cy="13" r="1" fill="white"/>
  <circle cx="5" cy="13" r="1" fill="white"/>
  <circle cx="6" cy="13" r="1" fill="rgba(243,247,250,1)"/>
  <circle cx="7" cy="13" r="1" fill="rgba(24.3137%,47.451%,67.0573%,1)"/>
  <circle cx="8" cy="13" r="1" fill="rgba(24.3137%,47.451%,67.0573%,1)"/>
  <circle cx="9" cy="13" r="1" fill="rgba(243,247,250,1)"/>
  <circle cx="10" cy="13" r="1" fill="white"/>
  <circle cx="11" cy="13" r="1" fill="white"/>
  <circle cx="12" cy="13" r="1" fill="white"/>
  <circle cx="13" cy="13" r="1" fill="white"/>
  <circle cx="14" cy="13" r="1" fill="white"/>
  <circle cx="15" cy="13" r="1" fill="white"/>
  <circle cx="0" cy="14" r="1" fill="white"/>
  <circle cx="1" cy="14" r="1" fill="white"/>
  <circle cx="2" cy="14" r="1" fill="white"/>
  <circle cx="3" cy="14" r="1" fill="white"/>
  <circle cx="4" cy="14" r="1" fill="white"/>
  <circle cx="5" cy="14" r="1" fill="white"/>
  <circle cx="6" cy="14" r="1" fill="white"/>
  <circle cx="7" cy="14" r="1" fill="white"/>
  <circle cx="8" cy="14" r="1" fill="white"/>
  <circle cx="9" cy="14" r="1" fill="white"/>
  <circle cx="10" cy="14" r="1" fill="white"/>
  <circle cx="11" cy="14" r="1" fill="white"/>
  <circle cx="12" cy="14" r="1" fill="white"/>
  <circle cx="13" cy="14" r="1" fill="white"/>
  <circle cx="14" cy="14" r="1" fill="white"/>
  <circle cx="15" cy="14" r="1" fill="white"/>
  <circle cx="0" cy="15" r="1" fill="white"/>
  <circle cx="1" cy="15" r="1" fill="white"/>
  <circle cx="2" cy="15" r="1" fill="white"/>
  <circle cx="3" cy="15" r="1" fill="white"/>
  <circle cx="4" cy="15" r="1" fill="white"/>
  <circle cx="5" cy="15" r="1" fill="white"/>
  <circle cx="6" cy="15" r="1" fill="white"/>
  <circle cx="7" cy="15" r="1" fill="white"/>
  <circle cx="8" cy="15" r="1" fill="white"/>
  <circle cx="9" cy="15" r="1" fill="white"/>
  <circle cx="10" cy="15" r="1" fill="white"/>
  <circle cx="11" cy="15" r="1" fill="white"/>
  <circle cx="12" cy="15" r="1" fill="white"/>
  <circle cx="13" cy="15" r="1" fill="white"/>
  <circle cx="14" cy="15" r="1" fill="white"/>
  <circle cx="15" cy="15" r="1" fill="white"/>
</svg>
