<?xml version="1.0" encoding="UTF-8" standalone="no"?>
<!-- Created with Inkscape (http://www.inkscape.org/) -->

<svg
   xmlns:dc="http://purl.org/dc/elements/1.1/"
   xmlns:cc="http://creativecommons.org/ns#"
   xmlns:rdf="http://www.w3.org/1999/02/22-rdf-syntax-ns#"
   xmlns:svg="http://www.w3.org/2000/svg"
   xmlns="http://www.w3.org/2000/svg"
   xmlns:xlink="http://www.w3.org/1999/xlink"
   xmlns:sodipodi="http://sodipodi.sourceforge.net/DTD/sodipodi-0.dtd"
   xmlns:inkscape="http://www.inkscape.org/namespaces/inkscape"
   version="1.0"
   width="48"
   height="48"
   id="svg2408"
   inkscape:version="0.48.4 r9939"
   sodipodi:docname="preferences-system-search.svg">
  <sodipodi:namedview
     pagecolor="#ffffff"
     bordercolor="#666666"
     borderopacity="1"
     objecttolerance="10"
     gridtolerance="10"
     guidetolerance="10"
     inkscape:pageopacity="0"
     inkscape:pageshadow="2"
     inkscape:window-width="1366"
     inkscape:window-height="723"
     id="namedview77"
     showgrid="false"
     width="0px"
     height="0px"
     fit-margin-top="0"
     fit-margin-left="0"
     fit-margin-right="0"
     fit-margin-bottom="0"
     inkscape:zoom="6.1982329"
     inkscape:cx="-2.6130576"
     inkscape:cy="29.625081"
     inkscape:window-x="0"
     inkscape:window-y="22"
     inkscape:window-maximized="1"
     inkscape:current-layer="svg2408" />
  <defs
     id="defs2410">
    <linearGradient
       id="linearGradient4072">
      <stop
         id="stop4074"
         offset="0"
         style="stop-color:#d7dae1;stop-opacity:1" />
      <stop
         id="stop4076"
         offset="1"
         style="stop-color:#f9fafb;stop-opacity:1" />
    </linearGradient>
    <linearGradient
       id="linearGradient908">
      <stop
         style="stop-color:#f1f2f4;stop-opacity:1;"
         offset="0"
         id="stop910" />
      <stop
         style="stop-color:#cccada;stop-opacity:1;"
         offset="1"
         id="stop912" />
    </linearGradient>
    <linearGradient
       x1="45.447727"
       y1="92.539597"
       x2="45.447727"
       y2="7.0165396"
       id="ButtonShadow"
       gradientUnits="userSpaceOnUse"
       gradientTransform="scale(1.0058652,0.994169)">
      <stop
         id="stop3750"
         style="stop-color:#000000;stop-opacity:1"
         offset="0" />
      <stop
         id="stop3752"
         style="stop-color:#000000;stop-opacity:0.58823532"
         offset="1" />
    </linearGradient>
    <linearGradient
       id="linearGradient3737">
      <stop
         id="stop3739"
         style="stop-color:#ffffff;stop-opacity:1"
         offset="0" />
      <stop
         id="stop3741"
         style="stop-color:#ffffff;stop-opacity:0"
         offset="1" />
    </linearGradient>
    <filter
       id="filter3174"
       style="color-interpolation-filters:sRGB">
      <feGaussianBlur
         id="feGaussianBlur3176"
         stdDeviation="1.71" />
    </filter>
    <filter
       x="-0.192"
       y="-0.192"
       width="1.3839999"
       height="1.3839999"
       id="filter3794"
       style="color-interpolation-filters:sRGB">
      <feGaussianBlur
         id="feGaussianBlur3796"
         stdDeviation="5.28" />
    </filter>
    <linearGradient
       x1="48"
       y1="20.220806"
       x2="48"
       y2="138.66119"
       id="linearGradient3613"
       xlink:href="#linearGradient3737"
       gradientUnits="userSpaceOnUse" />
    <clipPath
       id="clipPath3613">
      <rect
         width="84"
         height="84"
         rx="6"
         ry="6"
         x="6"
         y="6"
         id="rect3615"
         style="fill:#ffffff;fill-opacity:1;fill-rule:nonzero;stroke:none" />
    </clipPath>
    <linearGradient
       inkscape:collect="always"
       xlink:href="#linearGradient908"
       id="linearGradient885"
       gradientUnits="userSpaceOnUse"
       gradientTransform="matrix(0.91480718,0,0,0.86895856,2.0446282,-916.55764)"
       x1="27.107079"
       y1="1004.4948"
       x2="27.107079"
       y2="1052.3231" />
    <linearGradient
       inkscape:collect="always"
       xlink:href="#linearGradient908"
       id="linearGradient3790"
       x1="12.517548"
       y1="22.88125"
       x2="35.46875"
       y2="22.88125"
       gradientUnits="userSpaceOnUse"
       gradientTransform="matrix(0.91480718,0,0,0.86895856,2.339811,1.8180984)" />
    <filter
       inkscape:collect="always"
       id="filter3804"
       x="-0.026342975"
       width="1.052686"
       y="-0.4214876"
       height="1.8429752">
      <feGaussianBlur
         inkscape:collect="always"
         stdDeviation="0.5268595"
         id="feGaussianBlur3806" />
    </filter>
  </defs>
  <metadata
     id="metadata2413">
    <rdf:RDF>
      <cc:Work
         rdf:about="">
        <dc:format>image/svg+xml</dc:format>
        <dc:type
           rdf:resource="http://purl.org/dc/dcmitype/StillImage" />
        <dc:title />
      </cc:Work>
    </rdf:RDF>
  </metadata>
  <g
     id="layer2"
     style="display:none"
     transform="translate(-69.966102,-41.898303)">
    <rect
       width="86"
       height="85"
       rx="6"
       ry="6"
       x="5"
       y="7"
       id="rect3745"
       style="opacity:0.9;fill:url(#ButtonShadow);fill-opacity:1;fill-rule:nonzero;stroke:none;filter:url(#filter3174)" />
  </g>
  <g
     id="layer5"
     style="display:none"
     transform="translate(-69.966102,-41.898303)">
    <rect
       width="66"
       height="66"
       rx="12"
       ry="12"
       x="15"
       y="15"
       clip-path="url(#clipPath3613)"
       id="rect3171"
       style="opacity:0.1;fill:url(#linearGradient3613);fill-opacity:1;fill-rule:nonzero;stroke:#ffffff;stroke-width:0.5;stroke-linecap:round;stroke-linejoin:miter;stroke-miterlimit:4;stroke-opacity:1;stroke-dasharray:none;stroke-dashoffset:0;filter:url(#filter3794)" />
  </g>
  <rect
     style="fill:url(#linearGradient885);fill-opacity:1;stroke:none"
     id="rect2991"
     width="43.910744"
     height="41.710011"
     x="2.0446277"
     y="-43.808483"
     ry="1.6897279"
     transform="scale(1,-1)" />
  <path
     inkscape:connector-curvature="0"
     style="fill:#000000;fill-opacity:1;stroke:none;filter:url(#filter3804)"
     d="m 0,45 0,1.0625 C 0,47.1398 0.860223,48 1.9375,48 l 44.125,0 C 47.139777,48 48,47.1398 48,46.0625 L 48,45 c 0,1.0773 -0.860223,1.9375 -1.9375,1.9375 l -44.125,0 C 0.860223,46.9375 0,46.0773 0,45 z"
     id="rect846"
     transform="matrix(0.89143971,0,0,0.86895856,2.6054468,2.0984876)" />
  <path
     inkscape:connector-curvature="0"
     style="fill:#ffffff;fill-opacity:0.5372549;stroke:none"
     d="m 4.3602333,2.6687853 c -0.8389596,0 -1.5287773,0.555699 -1.6866758,1.3034378 0.3070203,-0.2432214 0.7085292,-0.3801694 1.143509,-0.3801694 l 40.3658665,0 c 0.43498,0 0.836489,0.136948 1.143509,0.3801694 C 45.168544,3.2244843 44.478725,2.6687853 43.639767,2.6687853 l -39.2795337,0 z"
     id="path7515" />
  <path
     inkscape:connector-curvature="0"
     style="fill:#000000;fill-opacity:0.39215686;stroke:none"
     d="m 3.8170665,2.0984878 c -0.9855007,0 -1.7724389,0.7474781 -1.7724389,1.6836072 l 0,37.419528 c 0,0.689432 0.4391285,1.259121 1.0577458,1.520677 C 2.8193851,42.432677 2.6449698,42.042427 2.6449698,41.608991 l 0,-37.3109083 c 0,-0.9108424 0.7564532,-1.6292974 1.7152635,-1.6292974 l 39.2795337,0 c 0.95881,0 1.715263,0.718455 1.715263,1.6292974 l 0,37.3109083 c 0,0.433436 -0.174415,0.823686 -0.457403,1.113309 0.618616,-0.261556 1.057745,-0.831245 1.057745,-1.520677 l 0,-37.419528 c 0,-0.9361291 -0.786938,-1.6836072 -1.772439,-1.6836072 l -40.3658665,0 z"
     id="rect4280" />
  <path
     inkscape:connector-curvature="0"
     id="path4136"
     d="m 25.584825,10.614279 c -0.216241,-1.79e-4 -0.430106,0.0136 -0.645531,0.02787 -2.872184,0.192917 -5.582158,1.689521 -7.130177,4.236503 -2.476835,4.074798 -1.032978,9.297821 3.256995,11.650372 4.290016,2.352907 9.758898,0.953256 12.235734,-3.121632 C 35.7787,19.332326 34.334843,14.109839 30.044852,11.75702 28.63717,10.985082 27.098599,10.615704 25.584825,10.614276 z m 0.146711,2.257612 c 1.064083,0.02586 2.153002,0.295128 3.139625,0.836152 3.157204,1.731702 4.228907,5.5854 2.406067,8.584484 -1.822799,2.998995 -5.880199,4.016736 -9.037425,2.285479 -3.157204,-1.731613 -4.22889,-5.557796 -2.406067,-8.556612 1.25318,-2.061704 3.556891,-3.207297 5.8978,-3.149503 z m -7.30623,15.385179 c -0.643069,0.0427 -1.23654,0.375187 -1.584484,0.947639 l -3.08094,5.072649 c -0.55671,0.915923 -0.230693,2.06326 0.733557,2.592069 l 0.410792,0.250846 c 0.96425,0.528807 2.201466,0.21913 2.758175,-0.696794 l 3.080941,-5.072649 c 0.556709,-0.915923 0.230692,-2.06326 -0.733558,-2.592069 L 19.569655,28.507916 C 19.208062,28.309613 18.811147,28.23145 18.425306,28.25707 z"
     style="fill:#000000;fill-opacity:0.05882353;stroke:none" />
  <path
     style="fill:#000000;fill-opacity:0.11764706;stroke:none"
     d="m 25.584825,10.266697 c -0.216241,-1.78e-4 -0.430106,0.0136 -0.645531,0.02787 -2.872184,0.192917 -5.582158,1.689519 -7.130177,4.236501 -2.476835,4.074798 -1.032978,9.297822 3.256995,11.650372 4.290016,2.352907 9.758898,0.953257 12.235734,-3.121631 2.476854,-4.075066 1.032997,-9.297553 -3.256994,-11.650372 -1.407682,-0.771936 -2.946253,-1.141315 -4.460027,-1.142742 z m 0.146711,2.257612 c 1.064083,0.02585 2.153002,0.295127 3.139625,0.83615 3.157204,1.731703 4.228907,5.5854 2.406067,8.584484 -1.822799,2.998995 -5.880199,4.016736 -9.037425,2.285479 -3.157204,-1.731612 -4.22889,-5.557795 -2.406067,-8.556612 1.25318,-2.061703 3.556891,-3.207297 5.8978,-3.149501 z m -7.30623,15.385178 c -0.643069,0.0427 -1.23654,0.375187 -1.584484,0.947639 l -3.08094,5.07265 c -0.55671,0.915921 -0.230693,2.063259 0.733557,2.592067 l 0.410792,0.250846 c 0.96425,0.528808 2.201466,0.21913 2.758175,-0.696792 l 3.080941,-5.07265 c 0.556709,-0.915924 0.230692,-2.06326 -0.733558,-2.592069 l -0.440134,-0.250846 c -0.361593,-0.198303 -0.758508,-0.276466 -1.144349,-0.250845 z"
     id="path4134"
     inkscape:connector-curvature="0" />
  <path
     inkscape:connector-curvature="0"
     id="path4132"
     d="M 25.584825,9.9191147 C 25.368584,9.918937 25.154719,9.932717 24.939294,9.9469842 22.06711,10.1399 19.357136,11.636502 17.809117,14.183484 c -2.476835,4.074798 -1.032978,9.297822 3.256995,11.650372 4.290016,2.352907 9.758898,0.953256 12.235734,-3.121632 C 35.7787,18.637159 34.334843,13.414672 30.044852,11.061854 28.63717,10.289917 27.098599,9.9205395 25.584825,9.9191118 z m 0.146711,2.2576103 c 1.064083,0.02586 2.153002,0.295127 3.139625,0.83615 3.157204,1.731703 4.228907,5.585401 2.406067,8.584485 -1.822799,2.998995 -5.880199,4.016736 -9.037425,2.28548 -3.157204,-1.731614 -4.22889,-5.557796 -2.406067,-8.556613 1.25318,-2.061703 3.556891,-3.207298 5.8978,-3.149502 z m -7.30623,15.385179 c -0.643069,0.0427 -1.23654,0.375186 -1.584484,0.947638 l -3.08094,5.07265 c -0.55671,0.915923 -0.230693,2.063259 0.733557,2.592068 l 0.410792,0.250845 c 0.96425,0.528809 2.201466,0.219131 2.758175,-0.696792 l 3.080941,-5.07265 c 0.556709,-0.915923 0.230692,-2.06326 -0.733558,-2.592068 L 19.569655,27.81275 c -0.361593,-0.198304 -0.758508,-0.276467 -1.144349,-0.250846 z"
     style="fill:#000000;fill-opacity:0.25490196;stroke:none" />
  <path
     style="opacity:0.64285715;fill:#333333;fill-opacity:1;stroke:none"
     d="m 25.584825,9.571533 c -0.216241,-1.784e-4 -0.430106,0.013601 -0.645531,0.027871 -2.872184,0.1929168 -5.582158,1.6895166 -7.130177,4.2364986 -2.476835,4.074798 -1.032978,9.297822 3.256995,11.650372 4.290016,2.352907 9.758898,0.953256 12.235734,-3.121631 C 35.7787,18.289579 34.334843,13.067091 30.044852,10.714273 28.63717,9.9423383 27.098599,9.57296 25.584825,9.571533 z m 0.146711,2.257608 c 1.064083,0.02586 2.153002,0.295128 3.139625,0.836151 3.157204,1.731703 4.228907,5.5854 2.406067,8.584484 -1.822799,2.998995 -5.880199,4.016736 -9.037425,2.28548 -3.157204,-1.731613 -4.22889,-5.557796 -2.406067,-8.556613 1.25318,-2.061703 3.556891,-3.207297 5.8978,-3.149502 z m -7.30623,15.38518 c -0.643069,0.0427 -1.23654,0.375186 -1.584484,0.947638 l -3.08094,5.07265 c -0.55671,0.915922 -0.230693,2.06326 0.733557,2.592067 l 0.410792,0.250846 c 0.96425,0.528809 2.201466,0.219131 2.758175,-0.696792 l 3.080941,-5.072651 c 0.556709,-0.915923 0.230692,-2.063259 -0.733558,-2.592068 L 19.569655,27.465166 C 19.208062,27.266862 18.811147,27.1887 18.425306,27.214321 z"
     id="path2983"
     inkscape:connector-curvature="0" />
  <path
     style="fill:#3a404c;fill-opacity:0.31372549;stroke:none"
     d="m 25.743851,11.144634 c -2.340909,-0.05779 -4.664478,1.088272 -5.917659,3.149975 -0.65772,1.082047 -0.915606,2.261304 -0.857632,3.421524 0.06189,-0.936599 0.329555,-1.873885 0.857632,-2.742651 1.253181,-2.061702 3.57675,-3.20777 5.917659,-3.149974 1.064083,0.02585 2.12944,0.300781 3.116062,0.841804 2.018007,1.106861 3.18489,3.096006 3.287588,5.159441 0.158585,-2.310073 -1.039635,-4.605331 -3.287588,-5.838316 -0.986622,-0.541023 -2.051979,-0.815943 -3.116062,-0.841803 z m -9.119484,6.544345 c -0.163624,3.088936 1.42093,6.142745 4.431097,7.793471 4.290016,2.352907 9.758711,0.952068 12.235546,-3.12282 0.873947,-1.437869 1.25579,-3.014922 1.200685,-4.562033 -0.06572,1.322002 -0.456831,2.659327 -1.200685,3.883159 -2.476835,4.074888 -7.94553,5.475727 -12.235546,3.12282 -2.779435,-1.524196 -4.333292,-4.273493 -4.431097,-7.114597 z m 4.345334,11.35077 c -0.0424,0.197143 -0.116109,0.385012 -0.228702,0.570255 l -3.087474,5.077976 c -0.556709,0.915923 -1.780172,1.234837 -2.744421,0.706029 L 14.480288,35.12246 c -0.528171,-0.289656 -0.838388,-0.755152 -0.943395,-1.276283 -0.153355,0.769522 0.182965,1.56528 0.943395,1.982311 l 0.428816,0.244395 c 0.964249,0.528808 2.187712,0.237049 2.744421,-0.678874 l 3.087474,-5.077977 c 0.246175,-0.405018 0.3066,-0.854255 0.228702,-1.276283 z"
     id="path4138"
     inkscape:connector-curvature="0" />
  <path
     style="fill:url(#linearGradient3790);fill-opacity:1;stroke:none"
     d="m 25.867508,9.2911441 c -0.216241,-1.781e-4 -0.413504,0.012887 -0.62893,0.027155 -2.872183,0.1929166 -5.598912,1.6891907 -7.146931,4.2361727 -0.825555,1.358173 -1.206483,2.853151 -1.200684,4.317638 0.05343,-1.348981 0.441515,-2.715666 1.200684,-3.964623 1.548019,-2.546983 4.274748,-4.0432563 7.146931,-4.2361735 0.215426,-0.014267 0.412689,-0.027328 0.62893,-0.027157 1.513775,0.00142 3.052004,0.3685726 4.459685,1.1405086 2.681244,1.470512 4.264331,4.057034 4.459685,6.788739 -0.08311,-2.85659 -1.666118,-5.609639 -4.459685,-7.141754 -1.407681,-0.7719345 -2.94591,-1.1390807 -4.459685,-1.1405076 z m -6.632352,8.6081209 c -0.106497,2.258521 1.081428,4.492542 3.287589,5.702541 3.157226,1.731256 7.239509,0.717978 9.062308,-2.281017 0.614134,-1.010422 0.898258,-2.113682 0.88622,-3.204284 -0.0459,0.977145 -0.337127,1.947858 -0.88622,2.85127 -1.822799,2.998995 -5.905082,4.012273 -9.062308,2.281017 -2.09351,-1.148215 -3.263897,-3.211296 -3.287589,-5.349527 z m -0.514579,9.0426 c -0.643069,0.0427 -1.224381,0.377972 -1.572325,0.950424 l -3.087474,5.077976 c -0.224042,0.368603 -0.30324,0.752345 -0.257289,1.140508 0.02333,-0.272795 0.102147,-0.559402 0.257289,-0.814648 l 3.087474,-5.050822 c 0.347944,-0.572452 0.929256,-0.907723 1.572325,-0.950423 0.385841,-0.02562 0.781916,0.04609 1.143509,0.244394 l 0.428816,0.244395 c 0.602656,0.330506 0.956224,0.914452 1.000571,1.520677 0.09797,-0.733881 -0.277384,-1.477085 -1.000571,-1.873692 L 19.864086,27.18626 c -0.361593,-0.198304 -0.757668,-0.270015 -1.143509,-0.244395 z"
     id="path4143"
     inkscape:connector-curvature="0" />
</svg>
