<?xml version="1.0" encoding="UTF-8" standalone="no"?>
<!-- Created with Inkscape (http://www.inkscape.org/) -->

<svg
   xmlns:dc="http://purl.org/dc/elements/1.1/"
   xmlns:cc="http://creativecommons.org/ns#"
   xmlns:rdf="http://www.w3.org/1999/02/22-rdf-syntax-ns#"
   xmlns:svg="http://www.w3.org/2000/svg"
   xmlns="http://www.w3.org/2000/svg"
   xmlns:sodipodi="http://sodipodi.sourceforge.net/DTD/sodipodi-0.dtd"
   xmlns:inkscape="http://www.inkscape.org/namespaces/inkscape"
   width="48"
   height="48"
   id="svg2"
   version="1.1"
   inkscape:version="0.48.4 r9939"
   sodipodi:docname="synapse-panel.svg">
  <defs
     id="defs4" />
  <sodipodi:namedview
     id="base"
     pagecolor="#424242"
     bordercolor="#666666"
     borderopacity="1.0"
     inkscape:pageopacity="0.83137255"
     inkscape:pageshadow="2"
     inkscape:zoom="6.6960676"
     inkscape:cx="14.623124"
     inkscape:cy="35.948912"
     inkscape:document-units="px"
     inkscape:current-layer="layer1"
     showgrid="false"
     inkscape:window-width="1366"
     inkscape:window-height="719"
     inkscape:window-x="0"
     inkscape:window-y="22"
     inkscape:window-maximized="1"
     showguides="true"
     inkscape:guide-bbox="true">
    <sodipodi:guide
       orientation="1,0"
       position="16.875576,-1.0453897"
       id="guide3761" />
    <sodipodi:guide
       orientation="1,0"
       position="33.004446,-13.590066"
       id="guide3763" />
    <sodipodi:guide
       orientation="1,0"
       position="13.291383,2.3894621"
       id="guide3767" />
    <sodipodi:guide
       orientation="1,0"
       position="29.718935,1.7920966"
       id="guide3769" />
  </sodipodi:namedview>
  <metadata
     id="metadata7">
    <rdf:RDF>
      <cc:Work
         rdf:about="">
        <dc:format>image/svg+xml</dc:format>
        <dc:type
           rdf:resource="http://purl.org/dc/dcmitype/StillImage" />
        <dc:title />
      </cc:Work>
    </rdf:RDF>
  </metadata>
  <g
     inkscape:label="Capa 1"
     inkscape:groupmode="layer"
     id="layer1"
     transform="translate(0,-1004.3622)">
    <path
       style="fill:#000000"
       d=""
       id="path906"
       inkscape:connector-curvature="0" />
    <path
       inkscape:connector-curvature="0"
       id="path354"
       style="fill:#333333;fill-opacity:1;fill-rule:nonzero;stroke:none"
       d="m 24.156991,1023.596 c -1.298297,-0.019 -2.363756,-0.9922 -2.362744,-2.1607 -0.0055,-1.1746 1.046235,-2.106 2.350974,-2.0823 1.298239,0.019 2.363696,0.9921 2.362745,2.1607 0.0055,1.1746 -1.046255,2.106 -2.350975,2.0823 z m 5.230042,6.7576 c 0,0 2.22813,-11.7672 -4.855501,-16.7164 -0.158464,-0.1096 -0.290264,-0.1479 -0.408285,-0.1506 -0.117539,0 -0.253885,0.034 -0.410248,0.137 -7.041156,4.6997 -4.731729,16.5466 -4.731729,16.5466 -5.239845,3.6523 -3.978247,4.191 -1.061956,10.7103 0.555374,1.2475 1.551409,0.9611 2.007731,0.069 0.456173,-0.8927 1.465774,-2.8591 1.465774,-2.8591 l 5.646255,0.098 c 0,0 1.021727,2.0021 1.489402,2.9105 0.464998,0.9106 1.461512,1.2312 2.011463,0.01 2.863116,-6.4203 4.121871,-6.9156 -1.152909,-10.7504" />
    <path
       inkscape:connector-curvature="0"
       id="path354-4"
       style="fill:#ffffff;fill-opacity:1;fill-rule:nonzero;stroke:none"
       d="m 23.358748,1023.2624 c -1.298296,-0.018 -2.363756,-0.9922 -2.362743,-2.1607 -0.0055,-1.1745 1.046234,-2.1062 2.350975,-2.0824 1.298201,0.017 2.363694,0.9921 2.362743,2.1608 0.0055,1.1745 -1.046252,2.1061 -2.350975,2.0823 z m 5.230042,6.7576 c 0,0 2.228131,-11.7674 -4.855499,-16.7164 -0.158465,-0.1097 -0.290266,-0.1479 -0.408283,-0.1505 -0.11754,0 -0.253885,0.034 -0.410252,0.1368 -7.041153,4.6999 -4.731726,16.5466 -4.731726,16.5466 -5.239845,3.6524 -3.97825,4.191 -1.061958,10.7103 0.555377,1.2477 1.551409,0.9612 2.00773,0.068 0.456177,-0.8926 1.465773,-2.8592 1.465773,-2.8592 l 5.646256,0.098 c 0,0 1.021728,2.0022 1.489403,2.9106 0.465002,0.9107 1.461516,1.2313 2.011461,0.01 2.863117,-6.4202 4.121872,-6.9156 -1.152912,-10.7504" />
    <path
       sodipodi:type="arc"
       style="fill:#ffffff;fill-opacity:1;stroke:#ffffff;stroke-width:2.21700001;stroke-linecap:round;stroke-linejoin:round;stroke-miterlimit:4;stroke-opacity:1;stroke-dasharray:none"
       id="path2991"
       sodipodi:cx="23.654469"
       sodipodi:cy="15.897508"
       sodipodi:rx="1.9008055"
       sodipodi:ry="2.9568086"
       d="m 25.555274,15.897508 a 1.9008055,2.9568086 0 1 1 -3.801611,0 1.9008055,2.9568086 0 1 1 3.801611,0 z"
       transform="matrix(0.89342667,-0.03129416,0.03477052,0.80410175,1.567281,1009.0398)" />
  </g>
</svg>
