<?xml version="1.0" encoding="UTF-8" standalone="no"?>
<!-- Created with Inkscape (http://www.inkscape.org/) -->

<svg
   xmlns:dc="http://purl.org/dc/elements/1.1/"
   xmlns:cc="http://creativecommons.org/ns#"
   xmlns:rdf="http://www.w3.org/1999/02/22-rdf-syntax-ns#"
   xmlns:svg="http://www.w3.org/2000/svg"
   xmlns="http://www.w3.org/2000/svg"
   xmlns:sodipodi="http://sodipodi.sourceforge.net/DTD/sodipodi-0.dtd"
   xmlns:inkscape="http://www.inkscape.org/namespaces/inkscape"
   width="48"
   height="48"
   id="svg2"
   version="1.1"
   inkscape:version="0.48.4 r9939"
   sodipodi:docname="synapse.svg">
  <defs
     id="defs4" />
  <sodipodi:namedview
     id="base"
     pagecolor="#424242"
     bordercolor="#666666"
     borderopacity="1.0"
     inkscape:pageopacity="0.83137255"
     inkscape:pageshadow="2"
     inkscape:zoom="6.6960676"
     inkscape:cx="14.623124"
     inkscape:cy="35.948912"
     inkscape:document-units="px"
     inkscape:current-layer="layer1"
     showgrid="false"
     inkscape:window-width="1366"
     inkscape:window-height="719"
     inkscape:window-x="0"
     inkscape:window-y="22"
     inkscape:window-maximized="1"
     showguides="true"
     inkscape:guide-bbox="true">
    <sodipodi:guide
       orientation="1,0"
       position="16.875576,-1.0453897"
       id="guide3761" />
    <sodipodi:guide
       orientation="1,0"
       position="33.004446,-13.590066"
       id="guide3763" />
    <sodipodi:guide
       orientation="1,0"
       position="13.291383,2.3894621"
       id="guide3767" />
    <sodipodi:guide
       orientation="1,0"
       position="29.718935,1.7920966"
       id="guide3769" />
  </sodipodi:namedview>
  <metadata
     id="metadata7">
    <rdf:RDF>
      <cc:Work
         rdf:about="">
        <dc:format>image/svg+xml</dc:format>
        <dc:type
           rdf:resource="http://purl.org/dc/dcmitype/StillImage" />
        <dc:title />
      </cc:Work>
    </rdf:RDF>
  </metadata>
  <g
     inkscape:label="Capa 1"
     inkscape:groupmode="layer"
     id="layer1"
     transform="translate(0,-1004.3622)">
    <path
       style="fill:#000000"
       d=""
       id="path906"
       inkscape:connector-curvature="0" />
    <path
       inkscape:connector-curvature="0"
       id="path354"
       style="fill:#333333;fill-opacity:1;fill-rule:nonzero;stroke:none"
       d="m 24.119452,1024.0147 c -1.160156,-0.017 -2.112249,-0.8867 -2.111344,-1.9308 -0.0049,-1.0496 0.934913,-1.882 2.100826,-1.8608 1.160105,0.017 2.112194,0.8866 2.111345,1.9308 0.0049,1.0495 -0.934933,1.8819 -2.100827,1.8608 z m 4.673555,6.0385 c 0,0 1.991053,-10.5151 -4.338865,-14.9377 -0.141605,-0.098 -0.25938,-0.1322 -0.364844,-0.1346 -0.105032,0 -0.226871,0.03 -0.366596,0.1224 -6.291965,4.1997 -4.228265,14.786 -4.228265,14.786 -4.682317,3.2637 -3.554955,3.7451 -0.948962,9.5707 0.496281,1.1148 1.386336,0.8589 1.794104,0.062 0.407636,-0.7978 1.309813,-2.555 1.309813,-2.555 l 5.045483,0.088 c 0,0 0.913015,1.7891 1.330927,2.6009 0.415522,0.8136 1.306005,1.1001 1.79744,0.01 2.558475,-5.7371 3.683297,-6.1797 -1.030237,-9.6065" />
    <path
       inkscape:connector-curvature="0"
       id="path354-4"
       style="fill:#ececec;fill-opacity:1;fill-rule:nonzero;stroke:none"
       d="m 23.406143,1023.7165 c -1.160155,-0.016 -2.112248,-0.8866 -2.111343,-1.9308 -0.0049,-1.0495 0.934913,-1.882 2.100827,-1.8608 1.16007,0.015 2.112192,0.8865 2.111343,1.9308 0.0049,1.0497 -0.934929,1.8822 -2.100827,1.8608 z m 4.673556,6.0386 c 0,0 1.991053,-10.5153 -4.338865,-14.9377 -0.141604,-0.098 -0.259381,-0.1323 -0.36484,-0.1345 -0.105034,0 -0.226872,0.03 -0.366601,0.1222 -6.291962,4.1998 -4.228262,14.7861 -4.228262,14.7861 -4.682316,3.2637 -3.554957,3.7451 -0.948964,9.5707 0.496284,1.1148 1.386337,0.8589 1.794104,0.062 0.407639,-0.7976 1.309812,-2.555 1.309812,-2.555 l 5.045484,0.088 c 0,0 0.913014,1.789 1.330928,2.6008 0.415525,0.8138 1.306008,1.1003 1.797438,0.01 2.558476,-5.7371 3.683298,-6.1798 -1.03024,-9.6065" />
    <path
       sodipodi:type="arc"
       style="fill:#ececec;fill-opacity:1;stroke:#eaeaea;stroke-width:2.21700001;stroke-linecap:round;stroke-linejoin:round;stroke-miterlimit:4;stroke-opacity:1;stroke-dasharray:none"
       id="path2991"
       sodipodi:cx="23.654469"
       sodipodi:cy="15.897508"
       sodipodi:rx="1.9008055"
       sodipodi:ry="2.9568086"
       d="m 25.555274,15.897508 a 1.9008055,2.9568086 0 1 1 -3.801611,0 1.9008055,2.9568086 0 1 1 3.801611,0 z"
       transform="matrix(0.79836444,-0.02796441,0.03107087,0.71854385,3.9333281,1011.0073)" />
  </g>
</svg>
