<?xml version="1.0" encoding="UTF-8" standalone="no"?>
<!-- Created with Inkscape (http://www.inkscape.org/) -->

<svg
   xmlns:dc="http://purl.org/dc/elements/1.1/"
   xmlns:cc="http://creativecommons.org/ns#"
   xmlns:rdf="http://www.w3.org/1999/02/22-rdf-syntax-ns#"
   xmlns:svg="http://www.w3.org/2000/svg"
   xmlns="http://www.w3.org/2000/svg"
   xmlns:xlink="http://www.w3.org/1999/xlink"
   xmlns:sodipodi="http://sodipodi.sourceforge.net/DTD/sodipodi-0.dtd"
   xmlns:inkscape="http://www.inkscape.org/namespaces/inkscape"
   width="48"
   height="48"
   id="svg2"
   version="1.1"
   inkscape:version="0.48.4 r9939"
   sodipodi:docname="blueman.svg">
  <defs
     id="defs4">
    <linearGradient
       gradientUnits="userSpaceOnUse"
       y2="1007.3235"
       x2="30.296669"
       y1="1049.4602"
       x1="30.296669"
       id="linearGradient7861"
       xlink:href="#linearGradient4678"
       inkscape:collect="always"
       gradientTransform="translate(-1.8847656e-6,1.9961484e-4)" />
    <linearGradient
       id="linearGradient4678"
       inkscape:collect="always">
      <stop
         id="stop4680"
         offset="0"
         style="stop-color:#0a7fe7;stop-opacity:1" />
      <stop
         id="stop4682"
         offset="1"
         style="stop-color:#50bffc;stop-opacity:1" />
    </linearGradient>
  </defs>
  <sodipodi:namedview
     id="base"
     pagecolor="#ffffff"
     bordercolor="#666666"
     borderopacity="1.0"
     inkscape:pageopacity="0.0"
     inkscape:pageshadow="2"
     inkscape:zoom="12.747078"
     inkscape:cx="15.717671"
     inkscape:cy="22.787765"
     inkscape:document-units="px"
     inkscape:current-layer="layer1"
     showgrid="false"
     inkscape:window-width="1366"
     inkscape:window-height="719"
     inkscape:window-x="0"
     inkscape:window-y="22"
     inkscape:window-maximized="1">
    <inkscape:grid
       type="xygrid"
       id="grid3850" />
  </sodipodi:namedview>
  <metadata
     id="metadata7">
    <rdf:RDF>
      <cc:Work
         rdf:about="">
        <dc:format>image/svg+xml</dc:format>
        <dc:type
           rdf:resource="http://purl.org/dc/dcmitype/StillImage" />
        <dc:title />
      </cc:Work>
    </rdf:RDF>
  </metadata>
  <g
     inkscape:label="Capa 1"
     inkscape:groupmode="layer"
     id="layer1"
     transform="translate(0,-1004.3622)">
    <path
       sodipodi:nodetypes="ccccccccccccccccccccc"
       style="fill:#000000;fill-opacity:0.49803922;fill-rule:evenodd;stroke:none;display:inline"
       d="m 22.6704,1015.3622 0,10.3632 -5.8552,-4.3812 -1.6273,1.6217 6.9459,5.3963 -6.6652,5.3356 1.7553,1.7939 5.4465,-4.4077 0,10.2782 10.1417,-7.5674 -6.7209,-5.3465 6.5063,-5.2733 z m 2.6868,5.0423 3.4036,2.8562 -3.4036,2.5765 z m -10e-5,10.7644 3.511,2.54 -3.5132,2.2958 c 0,-1.741 0,-3.1287 0,-4.8358 z"
       id="path4050"
       inkscape:connector-curvature="0" />
    <path
       sodipodi:nodetypes="ccccccccccccccccccccc"
       style="fill:#ffffff;fill-opacity:1;fill-rule:evenodd;stroke:none;display:inline;opacity:1"
       d="m 21.891407,1015.1998 0,10.3632 -5.8552,-4.3812 -1.6273,1.6217 6.9459,5.3963 -6.6652,5.3356 1.7553,1.7939 5.4465,-4.4077 0,10.2782 10.1417,-7.5674 -6.7209,-5.3465 6.5063,-5.2733 z m 2.6868,5.0423 3.4036,2.8562 -3.4036,2.5765 z m -10e-5,10.7644 3.511,2.54 -3.5132,2.2958 c 0,-1.741 0,-3.1287 0,-4.8358 z"
       id="path4050-7"
       inkscape:connector-curvature="0" />
  </g>
</svg>
