<?xml version="1.0" encoding="UTF-8" standalone="no"?>
<!-- Created with Inkscape (http://www.inkscape.org/) -->

<svg
   xmlns:dc="http://purl.org/dc/elements/1.1/"
   xmlns:cc="http://creativecommons.org/ns#"
   xmlns:rdf="http://www.w3.org/1999/02/22-rdf-syntax-ns#"
   xmlns:svg="http://www.w3.org/2000/svg"
   xmlns="http://www.w3.org/2000/svg"
   xmlns:xlink="http://www.w3.org/1999/xlink"
   xmlns:sodipodi="http://sodipodi.sourceforge.net/DTD/sodipodi-0.dtd"
   xmlns:inkscape="http://www.inkscape.org/namespaces/inkscape"
   version="1.1"
   width="48"
   height="48"
   id="svg4247"
   inkscape:version="0.48.3.1 r9886"
   sodipodi:docname="text-x-generic-template.svg">
  <sodipodi:namedview
     pagecolor="#ffffff"
     bordercolor="#666666"
     borderopacity="1"
     objecttolerance="10"
     gridtolerance="10"
     guidetolerance="10"
     inkscape:pageopacity="0"
     inkscape:pageshadow="2"
     inkscape:window-width="1366"
     inkscape:window-height="742"
     id="namedview49"
     showgrid="false"
     inkscape:zoom="4.9166667"
     inkscape:cx="41.09269"
     inkscape:cy="13.500202"
     inkscape:window-x="0"
     inkscape:window-y="0"
     inkscape:window-maximized="1"
     inkscape:current-layer="svg4247" />
  <defs
     id="defs4249">
    <linearGradient
       inkscape:collect="always"
       id="linearGradient3910">
      <stop
         style="stop-color:#ffffff;stop-opacity:1;"
         offset="0"
         id="stop3912" />
      <stop
         style="stop-color:#ffffff;stop-opacity:0;"
         offset="1"
         id="stop3914" />
    </linearGradient>
    <radialGradient
       cx="21.171581"
       cy="25.536045"
       r="16"
       fx="21.171581"
       fy="25.536045"
       id="radialGradient3338"
       xlink:href="#linearGradient3827"
       gradientUnits="userSpaceOnUse"
       gradientTransform="matrix(1.1563548,1.7750479e-8,-2.3661307e-8,1.5414157,-2.9825321,-12.701774)" />
    <linearGradient
       id="linearGradient3827">
      <stop
         id="stop3829"
         style="stop-color:#ffffff;stop-opacity:1"
         offset="0" />
      <stop
         id="stop3835"
         style="stop-color:#ffffff;stop-opacity:1"
         offset="0.82282937" />
      <stop
         id="stop3831"
         style="stop-color:#ffffff;stop-opacity:0"
         offset="1" />
    </linearGradient>
    <linearGradient
       x1="23.99999"
       y1="5.5641499"
       x2="23.99999"
       y2="43"
       id="linearGradient3988"
       xlink:href="#linearGradient3977"
       gradientUnits="userSpaceOnUse"
       gradientTransform="matrix(0.89189189,0,0,1.1351351,2.5945999,-4.7432315)" />
    <linearGradient
       id="linearGradient3977">
      <stop
         id="stop3979"
         style="stop-color:#ffffff;stop-opacity:1"
         offset="0" />
      <stop
         id="stop3981"
         style="stop-color:#ffffff;stop-opacity:0.23529412"
         offset="0.03626217" />
      <stop
         id="stop3983"
         style="stop-color:#ffffff;stop-opacity:0.15686275"
         offset="0.95056331" />
      <stop
         id="stop3985"
         style="stop-color:#ffffff;stop-opacity:0.39215687"
         offset="1" />
    </linearGradient>
    <radialGradient
       cx="15.951264"
       cy="8.6004324"
       r="18.000002"
       fx="15.951264"
       fy="8.6004324"
       id="radialGradient3350-4"
       xlink:href="#linearGradient2867-449-88-871-390-598-476-591-434-148-57-177-7"
       gradientUnits="userSpaceOnUse"
       gradientTransform="matrix(-1.8296896e-8,2.5204536,-2.2447219,-1.6295259e-8,43.307494,-27.461211)" />
    <linearGradient
       id="linearGradient2867-449-88-871-390-598-476-591-434-148-57-177-7">
      <stop
         id="stop3750-6"
         style="stop-color:#90dbec;stop-opacity:1"
         offset="0" />
      <stop
         id="stop3752-3"
         style="stop-color:#55c1ec;stop-opacity:1"
         offset="0.26238" />
      <stop
         id="stop3754-1"
         style="stop-color:#3689e6;stop-opacity:1"
         offset="0.704952" />
      <stop
         id="stop3756-7"
         style="stop-color:#2b63a0;stop-opacity:1"
         offset="1" />
    </linearGradient>
    <linearGradient
       x1="-51.786404"
       y1="53.623615"
       x2="-51.786404"
       y2="2.9062471"
       id="linearGradient3352-5"
       xlink:href="#linearGradient3707-319-631-407-324-9"
       gradientUnits="userSpaceOnUse"
       gradientTransform="matrix(0.8074968,0,0,0.8948322,59.410231,-2.9833171)" />
    <linearGradient
       id="linearGradient3707-319-631-407-324-9">
      <stop
         id="stop3760-6"
         style="stop-color:#185f9a;stop-opacity:1"
         offset="0" />
      <stop
         id="stop3762-2"
         style="stop-color:#599ec9;stop-opacity:1"
         offset="1" />
    </linearGradient>
    <radialGradient
       cx="605.71429"
       cy="486.64789"
       r="117.14286"
       fx="605.71429"
       fy="486.64789"
       id="radialGradient3327"
       xlink:href="#linearGradient5060"
       gradientUnits="userSpaceOnUse"
       gradientTransform="matrix(0.02303995,0,0,0.01470022,26.360882,37.040176)" />
    <linearGradient
       id="linearGradient5060">
      <stop
         id="stop5062"
         style="stop-color:#ececec;stop-opacity:1;"
         offset="0" />
      <stop
         id="stop5064"
         style="stop-color:#000000;stop-opacity:0"
         offset="1" />
    </linearGradient>
    <radialGradient
       cx="605.71429"
       cy="486.64789"
       r="117.14286"
       fx="605.71429"
       fy="486.64789"
       id="radialGradient3330"
       xlink:href="#linearGradient5060"
       gradientUnits="userSpaceOnUse"
       gradientTransform="matrix(-0.02303994,0,0,0.01470022,21.62311,37.040176)" />
    <linearGradient
       id="linearGradient5048">
      <stop
         id="stop5050"
         style="stop-color:#000000;stop-opacity:0"
         offset="0" />
      <stop
         id="stop5056"
         style="stop-color:#000000;stop-opacity:1"
         offset="0.5" />
      <stop
         id="stop5052"
         style="stop-color:#000000;stop-opacity:0"
         offset="1" />
    </linearGradient>
    <linearGradient
       x1="302.85715"
       y1="366.64789"
       x2="302.85715"
       y2="609.50507"
       id="linearGradient4245"
       xlink:href="#linearGradient5048"
       gradientUnits="userSpaceOnUse"
       gradientTransform="matrix(0.06732488,0,0,0.01470022,-0.3411391,37.040146)" />
    <radialGradient
       inkscape:collect="always"
       xlink:href="#linearGradient3827"
       id="radialGradient3033"
       gradientUnits="userSpaceOnUse"
       gradientTransform="matrix(1.1563548,1.5948246e-8,-2.3661307e-8,1.3849134,-2.9825321,-6.7416924)"
       cx="21.171581"
       cy="25.536045"
       fx="21.171581"
       fy="25.536045"
       r="16" />
    <linearGradient
       inkscape:collect="always"
       xlink:href="#linearGradient3977"
       id="linearGradient3036"
       gradientUnits="userSpaceOnUse"
       gradientTransform="matrix(0.89189189,0,0,1.0198831,2.5945999,0.408807)"
       x1="23.99999"
       y1="5.5641499"
       x2="23.99999"
       y2="43" />
    <radialGradient
       inkscape:collect="always"
       xlink:href="#linearGradient2867-449-88-871-390-598-476-591-434-148-57-177-7"
       id="radialGradient3039"
       gradientUnits="userSpaceOnUse"
       gradientTransform="matrix(0,2.2645481,-0.96667338,-1.4640776e-8,42.278408,-20.002581)"
       cx="15.951264"
       cy="8.6004324"
       fx="15.951264"
       fy="8.6004324"
       r="18.000002" />
    <linearGradient
       inkscape:collect="always"
       xlink:href="#linearGradient3707-319-631-407-324-9"
       id="linearGradient3041"
       gradientUnits="userSpaceOnUse"
       gradientTransform="matrix(0.3477427,0,0,0.80397851,49.212936,1.9900346)"
       x1="-51.786404"
       y1="53.623615"
       x2="-51.786404"
       y2="2.9062471" />
    <radialGradient
       inkscape:collect="always"
       xlink:href="#linearGradient5060"
       id="radialGradient3044"
       gradientUnits="userSpaceOnUse"
       gradientTransform="matrix(0.02303995,0,0,0.01320768,26.360882,37.949881)"
       cx="605.71429"
       cy="486.64789"
       fx="605.71429"
       fy="486.64789"
       r="117.14286" />
    <radialGradient
       inkscape:collect="always"
       xlink:href="#linearGradient5060"
       id="radialGradient3047"
       gradientUnits="userSpaceOnUse"
       gradientTransform="matrix(-0.02303994,0,0,0.01320768,21.62311,37.949881)"
       cx="605.71429"
       cy="486.64789"
       fx="605.71429"
       fy="486.64789"
       r="117.14286" />
    <linearGradient
       inkscape:collect="always"
       xlink:href="#linearGradient5048"
       id="linearGradient3050"
       gradientUnits="userSpaceOnUse"
       gradientTransform="matrix(0.06732488,0,0,0.01320768,-0.3411391,37.949854)"
       x1="302.85715"
       y1="366.64789"
       x2="302.85715"
       y2="609.50507" />
    <radialGradient
       inkscape:collect="always"
       xlink:href="#linearGradient2867-449-88-871-390-598-476-591-434-148-57-177-7-2"
       id="radialGradient3039-3"
       gradientUnits="userSpaceOnUse"
       gradientTransform="matrix(-1.8296896e-8,2.5204536,-2.2447219,-1.6295259e-8,43.307494,-27.461211)"
       cx="15.951264"
       cy="8.6004324"
       fx="15.951264"
       fy="8.6004324"
       r="18.000002" />
    <linearGradient
       id="linearGradient2867-449-88-871-390-598-476-591-434-148-57-177-7-2">
      <stop
         id="stop3750-6-5"
         style="stop-color:#90dbec;stop-opacity:1"
         offset="0" />
      <stop
         id="stop3752-3-6"
         style="stop-color:#55c1ec;stop-opacity:1"
         offset="0.26238" />
      <stop
         id="stop3754-1-6"
         style="stop-color:#3689e6;stop-opacity:1"
         offset="0.704952" />
      <stop
         id="stop3756-7-6"
         style="stop-color:#2b63a0;stop-opacity:1"
         offset="1" />
    </linearGradient>
    <linearGradient
       inkscape:collect="always"
       xlink:href="#linearGradient3707-319-631-407-324-9-6"
       id="linearGradient3041-7"
       gradientUnits="userSpaceOnUse"
       gradientTransform="matrix(0.8074968,0,0,0.8948322,59.410231,-2.9833171)"
       x1="-51.786404"
       y1="53.623615"
       x2="-51.786404"
       y2="2.9062471" />
    <linearGradient
       id="linearGradient3707-319-631-407-324-9-6">
      <stop
         id="stop3760-6-1"
         style="stop-color:#185f9a;stop-opacity:1"
         offset="0" />
      <stop
         id="stop3762-2-3"
         style="stop-color:#599ec9;stop-opacity:1"
         offset="1" />
    </linearGradient>
    <linearGradient
       y2="2.9062471"
       x2="-51.786404"
       y1="53.623615"
       x1="-51.786404"
       gradientTransform="matrix(0.8074968,0,0,0.80397851,59.00345,2.0585615)"
       gradientUnits="userSpaceOnUse"
       id="linearGradient3091"
       xlink:href="#linearGradient5060"
       inkscape:collect="always" />
    <linearGradient
       inkscape:collect="always"
       xlink:href="#linearGradient5060"
       id="linearGradient3892"
       x1="-37.322037"
       y1="22.372881"
       x2="-1.3220322"
       y2="22.372881"
       gradientUnits="userSpaceOnUse"
       gradientTransform="matrix(1,0,0,0.89846846,42.915254,4.8531902)" />
    <linearGradient
       inkscape:collect="always"
       xlink:href="#linearGradient3910"
       id="linearGradient3916"
       x1="20.069421"
       y1="17.702708"
       x2="29.143917"
       y2="17.702708"
       gradientUnits="userSpaceOnUse"
       gradientTransform="translate(3.829086,0)" />
    <linearGradient
       inkscape:collect="always"
       xlink:href="#linearGradient3894-4"
       id="linearGradient3900-6"
       x1="10.9309"
       y1="17.785789"
       x2="23.65653"
       y2="17.785789"
       gradientUnits="userSpaceOnUse"
       gradientTransform="translate(6.3468125,-0.06386584)" />
    <linearGradient
       inkscape:collect="always"
       id="linearGradient3894-4">
      <stop
         style="stop-color:#bbbbbb;stop-opacity:1;"
         offset="0"
         id="stop3896-5" />
      <stop
         style="stop-color:#bbbbbb;stop-opacity:0;"
         offset="1"
         id="stop3898-2" />
    </linearGradient>
    <linearGradient
       inkscape:collect="always"
       xlink:href="#linearGradient3894-4"
       id="linearGradient3949"
       x1="10.9309"
       y1="17.785789"
       x2="23.65653"
       y2="17.785789"
       gradientUnits="userSpaceOnUse"
       gradientTransform="translate(6.3468125,-0.06386584)" />
    <radialGradient
       inkscape:collect="always"
       xlink:href="#linearGradient5060"
       id="radialGradient3988"
       cx="23.640528"
       cy="17.721924"
       fx="23.640528"
       fy="17.721924"
       r="6.3628159"
       gradientTransform="matrix(1,0,0,1.4085535,0,-7.2403528)"
       gradientUnits="userSpaceOnUse" />
    <radialGradient
       inkscape:collect="always"
       xlink:href="#linearGradient5060"
       id="radialGradient4000"
       gradientUnits="userSpaceOnUse"
       gradientTransform="matrix(1,0,0,1.4085535,0,-7.2403528)"
       cx="23.640528"
       cy="17.721924"
       fx="23.640528"
       fy="17.721924"
       r="6.3628159" />
    <radialGradient
       inkscape:collect="always"
       xlink:href="#linearGradient5060"
       id="radialGradient4008"
       gradientUnits="userSpaceOnUse"
       gradientTransform="matrix(0.94787576,0,0,1.3351337,-1.2587764,-1.7871651)"
       cx="23.640528"
       cy="17.721924"
       fx="23.640528"
       fy="17.721924"
       r="6.3628159" />
  </defs>
  <metadata
     id="metadata4252">
    <rdf:RDF>
      <cc:Work
         rdf:about="">
        <dc:format>image/svg+xml</dc:format>
        <dc:type
           rdf:resource="http://purl.org/dc/dcmitype/StillImage" />
        <dc:title></dc:title>
      </cc:Work>
    </rdf:RDF>
  </metadata>
  <path
     style="color:#000000;fill:url(#linearGradient3892);fill-opacity:1;fill-rule:nonzero;stroke:url(#linearGradient3091);stroke-width:0.94780171;stroke-linecap:butt;stroke-linejoin:round;stroke-miterlimit:4;stroke-opacity:1;stroke-dasharray:none;stroke-dashoffset:0;marker:none;visibility:visible;display:inline;overflow:visible;enable-background:accumulate"
     id="path4160-2"
     inkscape:connector-curvature="0"
     d="m 6.0931802,5.1881769 c 8.0202948,0 35.0000388,0.00252 35.0000388,0.00252 l 4.2e-5,39.5301661 c 0,0 -23.333387,0 -35.0000808,0 0,-13.177562 0,-26.355123 0,-39.5326819 z" />
  <rect
     style="opacity:0.3;fill:url(#linearGradient3050);fill-opacity:1;fill-rule:nonzero;stroke:none;stroke-width:1;marker:none;visibility:visible;display:inline;overflow:visible"
     id="rect2879"
     y="42.792419"
     x="7.7378473"
     height="3.2075799"
     width="32.508301" />
  <path
     style="opacity:0.3;fill:url(#radialGradient3047);fill-opacity:1;fill-rule:nonzero;stroke:none;stroke-width:1;marker:none;visibility:visible;display:inline;overflow:visible"
     id="path2881"
     inkscape:connector-curvature="0"
     d="m 7.7378475,42.792559 c 0,0 0,3.207403 0,3.207403 -1.1865002,0.006 -2.8683795,-0.718615 -2.8683795,-1.603908 0,-0.885291 1.3240446,-1.603494 2.8683795,-1.603495 z" />
  <path
     style="opacity:0.3;fill:url(#radialGradient3044);fill-opacity:1;fill-rule:nonzero;stroke:none;stroke-width:1;marker:none;visibility:visible;display:inline;overflow:visible"
     id="path2883"
     inkscape:connector-curvature="0"
     d="m 40.246148,42.792559 c 0,0 0,3.207403 0,3.207403 1.1865,0.006 2.86838,-0.718615 2.86838,-1.603908 0,-0.885291 -1.324045,-1.603494 -2.86838,-1.603495 z" />
  <path
     style="color:#000000;fill:url(#radialGradient3039);fill-opacity:1;fill-rule:nonzero;stroke:url(#linearGradient3041);stroke-width:0.62197953;stroke-linecap:butt;stroke-linejoin:round;stroke-miterlimit:4;stroke-opacity:1;stroke-dasharray:none;stroke-dashoffset:0;marker:none;visibility:visible;display:inline;overflow:visible;enable-background:accumulate"
     id="path4160"
     inkscape:connector-curvature="0"
     d="m 26.427509,5.11965 c 3.453882,0 15.072515,0.00252 15.072515,0.00252 l 1.8e-5,39.530165 c 0,0 -10.048355,0 -15.072533,0 0,-13.177561 0,-26.355122 0,-39.5326814 z" />
  <path
     style="opacity:0.5;fill:none;stroke:url(#linearGradient3036);stroke-width:0.94787574;stroke-linecap:round;stroke-linejoin:round;stroke-miterlimit:4;stroke-opacity:1;stroke-dasharray:none;stroke-dashoffset:0"
     id="rect6741-1"
     inkscape:connector-curvature="0"
     d="m 40.5,43.753829 -33,0 0,-37.7356754 33,0 z" />
  <path
     style="opacity:0.2;fill:none;stroke:url(#radialGradient3033);stroke-width:0.91280431;stroke-linecap:square;stroke-linejoin:round;stroke-miterlimit:4;stroke-opacity:1;stroke-dasharray:none"
     id="path3318"
     inkscape:connector-curvature="0"
     d="M 33.518499,10.524634 8.4814999,10.49139 m 3.0369991,-3.593873 -0.037,36.870448 m 25,2e-6 0.037,-32.888437 m -20,-3.982013 -0.037,36.870448 m 5.037,-36.870448 -0.037,36.870448 m 5.037,-36.870448 -0.037,36.870448 m 5.037,-36.870448 -0.037,36.870448 M 39.5185,15.016976 8.4815009,14.983733 M 39.5185,19.509319 8.4815009,19.476075 M 39.5185,24.001661 8.4815009,23.968418 M 39.5185,28.494003 8.4815009,28.46076 M 39.5185,32.986346 8.4815009,32.953102 M 39.5185,37.478688 8.4815009,37.445445 M 39.5185,41.97103 8.4815009,41.937787" />
  <path
     style="opacity:0.5;fill:none;stroke:#ffffff;stroke-width:0.91280425;stroke-linecap:square;stroke-linejoin:round;stroke-miterlimit:4;stroke-opacity:1;stroke-dasharray:none"
     id="path3962"
     inkscape:connector-curvature="0"
     d="m 22.481499,40.140854 17.037,0.03324" />
  <path
     style="opacity:0.5;fill:none;stroke:#ffffff;stroke-width:0.91280425;stroke-linecap:square;stroke-linejoin:round;stroke-miterlimit:4;stroke-opacity:1;stroke-dasharray:none"
     id="path3960"
     inkscape:connector-curvature="0"
     d="m 38.481499,41.97103 0.037,-13.510269" />
  <path
     style="opacity:0.5;fill:none;stroke:#ffffff;stroke-width:0.91280431;stroke-linecap:square;stroke-linejoin:round;stroke-miterlimit:4;stroke-opacity:1;stroke-dasharray:none"
     id="path3554"
     inkscape:connector-curvature="0"
     d="m 23.518499,10.524636 -13.037,-0.03324 m 1.037,-1.7969362 -0.037,17.1041432" />
  <path
     style="opacity:0.7;fill:#ffffff;fill-opacity:1;stroke:none;display:inline"
     id="path3406"
     inkscape:connector-curvature="0"
     d="m 15,22.637338 2.345838,0 0,0.898468 -2.345838,0 0,-0.898468 z m 2.665379,0 2.213403,0 0,0.898468 -2.213403,0 0,-0.898468 z m 2.532944,0 1.948514,0 0,0.898468 -1.948514,0 0,-0.898468 z m 2.268056,0 0.855871,0 0,0.898468 -0.855871,0 0,-0.898468 z m 1.175422,0 1.915398,0 0,0.898468 -1.915398,0 0,-0.898468 z m 2.234949,0 4.961553,0 0,0.898468 -4.961553,0 0,-0.898468 z m 5.281094,0 3.769581,0 0,0.898468 -3.769581,0 0,-0.898468 z m 4.089133,0 1.153856,0 0,0.898468 -1.153856,0 0,-0.898468 z M 15,28.028148 l 3.691817,0 0,0.898469 -3.691817,0 0,-0.898469 z m 3.965761,0 1.776154,0 0,0.898469 -1.776154,0 0,-0.898469 z m 2.15092,0 0.835125,0 0,0.898469 -0.835125,0 0,-0.898469 z m 1.041852,0 1.608114,0 0,0.898469 -1.608114,0 0,-0.898469 z m 1.882048,0 1.608115,0 0,0.898469 -1.608115,0 0,-0.898469 z m 2.117317,0 2.582748,0 0,0.898469 -2.582748,0 0,-0.898469 z m 2.890296,0 3.389342,0 0,0.898469 -3.389342,0 0,-0.898469 z m 3.864929,0 2.280283,0 0,0.898469 -2.280283,0 0,-0.898469 z m 2.554218,0 0.532659,0 0,0.898469 -0.532659,0 0,-0.898469 z M 15,24.434275 l 3.928045,0 0,0.898468 -3.928045,0 0,-0.898468 z m 4.235965,0 4.208949,0 0,0.898468 -4.208949,0 0,-0.898468 z m 4.516869,0 1.680758,0 0,0.898468 -1.680758,0 0,-0.898468 z m 1.988678,0 3.959254,0 0,0.898468 -3.959254,0 0,-0.898468 z m 7.285852,0 1.056505,0 0,0.898468 -1.056505,0 0,-0.898468 z m -3.018678,0 2.710758,0 0,0.898468 -2.710758,0 0,-0.898468 z m 4.383104,0 1,0 0,0.898468 -1,0 0,-0.898468 z M 15,26.231211 l 4.28514,0 0,0.898469 -4.28514,0 0,-0.898469 z m 4.621053,0 4.59158,0 0,0.898469 -4.59158,0 0,-0.898469 z m 4.927493,0 1.833555,0 0,0.898469 -1.833555,0 0,-0.898469 z m 2.169468,0 4.319185,0 0,0.898469 -4.319185,0 0,-0.898469 z m 7.948201,0 1.152552,0 0,0.898469 -1.152552,0 0,-0.898469 z m -3.293103,0 2.95719,0 0,0.898469 -2.95719,0 0,-0.898469 z M 15,33.418958 l 3.691817,0 0,0.898469 -3.691817,0 0,-0.898469 z m 3.965761,0 1.776154,0 0,0.898469 -1.776154,0 0,-0.898469 z m 2.15092,0 0.835125,0 0,0.898469 -0.835125,0 0,-0.898469 z m 1.041852,0 1.608114,0 0,0.898469 -1.608114,0 0,-0.898469 z m 1.882048,0 1.608115,0 0,0.898469 -1.608115,0 0,-0.898469 z m 2.117317,0 2.582748,0 0,0.898469 -2.582748,0 0,-0.898469 z m 2.890296,0 3.389342,0 0,0.898469 -3.389342,0 0,-0.898469 z m 3.864929,0 2.280283,0 0,0.898469 -2.280283,0 0,-0.898469 z m 2.554218,0 0.532659,0 0,0.898469 -0.532659,0 0,-0.898469 z M 15,31.622021 l 3.061572,0 0,0.898469 -3.061572,0 0,-0.898469 z m 3.38681,0 5.083544,0 0,0.898469 -5.083544,0 0,-0.898469 z m 5.408782,0 2.454976,0 0,0.898469 -2.454976,0 0,-0.898469 z m 5.39193,0 1.949485,0 0,0.898469 -1.949485,0 0,-0.898469 z m 2.274723,0 3.128973,0 0,0.898469 -3.128973,0 0,-0.898469 z m -4.886439,0 2.286488,0 0,0.898469 -2.286488,0 0,-0.898469 z M 15,35.21435 l 3.868703,0 0,0.898468 -3.868703,0 0,-0.898468 z m 4.188155,0 1.218185,0 0,0.898468 -1.218185,0 0,-0.898468 0,0 z m 1.537637,0 2.781317,0 0,0.898468 -2.781317,0 0,-0.898468 z m 3.100769,0 1.89781,0 0,0.898468 -1.89781,0 0,-0.898468 z m 2.217262,0 1.8978,0 0,0.898468 -1.8978,0 0,-0.898468 z m 2.217263,0 2.747329,0 0,0.898468 -2.747329,0 0,-0.898468 z m 3.066771,0 0.572556,0 0,0.898468 -0.572556,0 0,-0.898468 z m 0.892008,0 3.562873,0 0,0.898468 -3.562873,0 0,-0.898468 z M 15,37.011287 l 3.796419,0 0,0.898468 -3.796419,0 0,-0.898468 z m 6.256706,0 2.438723,0 0,0.898468 -2.438723,0 0,-0.898468 z m 2.788936,0 2.235065,0 0,0.898468 -2.235065,0 0,-0.898468 z m 5.990819,0 1.963539,0 0,0.898468 -1.963539,0 0,-0.898468 0,0 z m -1.125747,0 0.775544,0 0,0.898468 -0.775544,0 0,-0.898468 z m -2.279794,0 1.929581,0 0,0.898468 -1.929581,0 0,-0.898468 z m -7.484298,0 1.759881,0 0,0.898468 -1.759881,0 0,-0.898468 0,0 z" />
  <text
     xml:space="preserve"
     style="font-size:20.970644px;font-style:normal;font-variant:normal;font-weight:normal;font-stretch:normal;line-height:125%;letter-spacing:0px;word-spacing:0px;fill:#9e9e9e;fill-opacity:1;stroke:none;font-family:UnDotum;-inkscape-font-specification:UnDotum"
     x="15.533716"
     y="28.739254"
     id="text3064-0"
     sodipodi:linespacing="125%"
     transform="scale(1.1310419,0.88414054)"><tspan
       sodipodi:role="line"
       id="tspan3066-5"
       x="15.533716"
       y="28.739254"
       style="font-style:oblique;font-variant:normal;font-weight:600;font-stretch:normal;fill:#9e9e9e;fill-opacity:1;stroke:none;font-family:URW Gothic L;-inkscape-font-specification:URW Gothic L Semi-Bold Oblique">S</tspan></text>
  <text
     xml:space="preserve"
     style="font-size:20.970644px;font-style:normal;font-variant:normal;font-weight:normal;font-stretch:normal;line-height:125%;letter-spacing:0px;word-spacing:0px;fill:#ffffff;fill-opacity:1;stroke:url(#radialGradient4008);stroke-width:0.94787574;stroke-opacity:1;font-family:UnDotum;-inkscape-font-specification:UnDotum"
     x="14.564724"
     y="29.622623"
     id="text3064"
     sodipodi:linespacing="125%"
     transform="scale(1.1310419,0.88414054)"><tspan
       sodipodi:role="line"
       id="tspan3066"
       x="14.564724"
       y="29.622623"
       style="font-style:oblique;font-variant:normal;font-weight:600;font-stretch:normal;fill:#ffffff;stroke:url(#radialGradient4008);stroke-width:0.94787574;stroke-opacity:1;font-family:URW Gothic L;-inkscape-font-specification:URW Gothic L Semi-Bold Oblique">S</tspan></text>
  <path
     style="opacity:0.4;fill:#666666;fill-opacity:1;stroke:none"
     id="path2882-04"
     inkscape:connector-curvature="0"
     d="m 36.008817,21.812761 -4.114863,-5.290182 1.371618,-1.763394 5.344597,7.053576 -5.486487,7.32192 -1.513513,-1.610056 4.398648,-5.711864 z" />
  <path
     style="opacity:0.6;fill:#ffffff;fill-opacity:1;stroke:none"
     id="path2882-04-0"
     inkscape:connector-curvature="0"
     d="m 36.008817,22.711229 -4.114863,-5.290182 1.371618,-1.763393 5.344597,7.053575 -5.486487,7.32192 -1.513513,-1.610055 4.398648,-5.711865 z" />
  <path
     style="opacity:0.4;fill:#666666;fill-opacity:1;stroke:none"
     id="path2882"
     inkscape:connector-curvature="0"
     d="m 13.211521,21.812761 4.114863,-5.290182 -1.371618,-1.763394 -5.344597,7.053576 5.486487,7.32192 1.513513,-1.610056 -4.398648,-5.711864 z" />
  <path
     style="opacity:0.6;fill:#ffffff;fill-opacity:1;stroke:none"
     id="path2882-3"
     inkscape:connector-curvature="0"
     d="m 13.211521,22.711229 4.114863,-5.290182 -1.371618,-1.763393 -5.344597,7.053575 5.486487,7.32192 1.513513,-1.610055 -4.398648,-5.711865 z" />
</svg>
