<?xml version="1.0" encoding="UTF-8" standalone="no"?>
<!-- Created with Inkscape (http://www.inkscape.org/) -->

<svg
   xmlns:dc="http://purl.org/dc/elements/1.1/"
   xmlns:cc="http://creativecommons.org/ns#"
   xmlns:rdf="http://www.w3.org/1999/02/22-rdf-syntax-ns#"
   xmlns:svg="http://www.w3.org/2000/svg"
   xmlns="http://www.w3.org/2000/svg"
   xmlns:sodipodi="http://sodipodi.sourceforge.net/DTD/sodipodi-0.dtd"
   xmlns:inkscape="http://www.inkscape.org/namespaces/inkscape"
   id="svg7384"
   height="16"
   width="16.002"
   version="1.1"
   inkscape:version="0.48.4 r9939"
   sodipodi:docname="battery-full-charging-symbolic.svg">
  <defs
     id="defs12" />
  <sodipodi:namedview
     pagecolor="#ffffff"
     bordercolor="#666666"
     borderopacity="1"
     objecttolerance="10"
     gridtolerance="10"
     guidetolerance="10"
     inkscape:pageopacity="0"
     inkscape:pageshadow="2"
     inkscape:window-width="640"
     inkscape:window-height="480"
     id="namedview10"
     showgrid="false"
     inkscape:zoom="14.75"
     inkscape:cx="8.0010004"
     inkscape:cy="8"
     inkscape:window-x="0"
     inkscape:window-y="22"
     inkscape:window-maximized="0"
     inkscape:current-layer="svg7384" />
  <metadata
     id="metadata90">
    <rdf:RDF>
      <cc:Work
         rdf:about="">
        <dc:format>image/svg+xml</dc:format>
        <dc:type
           rdf:resource="http://purl.org/dc/dcmitype/StillImage" />
        <dc:title>Gnome Symbolic Icon Theme</dc:title>
      </cc:Work>
    </rdf:RDF>
  </metadata>
  <title
     id="title9167">Gnome Symbolic Icon Theme</title>
  <path
     inkscape:connector-curvature="0"
     d="m 5,5 v 2 h 5 V 5 H 5 z m 0,3 v 2 H 9 L 10,9 V 8 H 5 z m 0,3.0625 V 13 H 8 V 11.0625 H 5 z"
     style="fill:#bebebe"
     id="rect6060" />
  <path
     inkscape:connector-curvature="0"
     d="M 5.47,0.03 C 4.97967,0.03 4.67393,0.25845 4.4388,0.49875 4.20362,0.73905 4.0013,1.05726 4.0013,1.52995 V 1.9987 h -1 -1 v 1 12 1 h 1 7 v -2 h -6 v -10 h 1 1 v -1 -0.96875 h 3 v 0.96875 1 h 1 1 v 3 h 2 v -4 -1 h -1 -1 V 1.65495 1.62375 C 10.9774,1.19315 10.83106,0.87146 10.59505,0.59255 10.37132,0.32811 9.96836,0.06324 9.43885,0.0613 V 0.0301 h -0.0625 -3.91 z"
     style="text-indent:0;text-transform:none;block-progression:tb;color:#bebebe;fill:#bebebe"
     id="path6062" />
  <path
     inkscape:connector-curvature="0"
     d="m 12.75,7.98 a 1.0165,1.0165 0 0 0 -0.46875,0.28125 l -3,3 a 1.0001,1.0001 0 0 0 -0.28,0.91 v 0.8125 h 1 2.125 l -0.84375,1.2812 a 1.0165,1.0165 0 0 0 -0.28,0.94 v 0.78125 h 1 a 1.0165,1.0165 0 0 0 0.71875,-0.28125 l 3,-3 a 1.0001,1.0001 0 0 0 0.28,-0.72 1.0001,1.0001 0 0 0 0,-0.125 v -0.875 H 15.1575 15.0638 a 1.0001,1.0001 0 0 0 -0.0625,0 h -2.125 l 0.84375,-1.2812 A 1.0165,1.0165 0 0 0 14.0013,8.76625 V 7.985 h -0.9375 a 1.0165,1.0165 0 0 0 -0.31,0 z"
     style="text-indent:0;text-transform:none;block-progression:tb;color:#bebebe;fill:#0000ff"
     id="path6217" />
  <path
     inkscape:connector-curvature="0"
     d="M 11,8 13,6 H 11 V 8 z"
     style="color:#bebebe;fill:#bebebe"
     id="path6253" />
</svg>
