<?xml version="1.0" encoding="UTF-8" standalone="no"?>
<!-- Created with Inkscape (http://www.inkscape.org/) -->
<svg id="svg7384" xmlns:rdf="http://www.w3.org/1999/02/22-rdf-syntax-ns#" xmlns="http://www.w3.org/2000/svg" height="16" width="16" version="1.1" xmlns:cc="http://creativecommons.org/ns#" xmlns:dc="http://purl.org/dc/elements/1.1/">
 <metadata id="metadata90">
  <rdf:RDF>
   <cc:Work rdf:about="">
    <dc:format>image/svg+xml</dc:format>
    <dc:type rdf:resource="http://purl.org/dc/dcmitype/StillImage"/>
    <dc:title>Gnome Symbolic Icon Theme</dc:title>
   </cc:Work>
  </rdf:RDF>
 </metadata>
 <title id="title9167">Gnome Symbolic Icon Theme</title>
 <g id="layer9" transform="translate(-141 -237)">
  <path id="rect12924" d="m144.09 238c-1.1599 0-2.0938 0.93381-2.0938 2.0938v8.8125c0 1.1599 0.93381 2.0938 2.0938 2.0938h8.8125c1.1599 0 2.0938-0.93381 2.0938-2.0938v-8.8125c0.01-1.16-0.92-2.09-2.08-2.09h-8.82zm4.4062 2.0312c1.6179 0 3.2476 0.57843 4.5 1.7812v1.1875h-1.7188c-1.6374-1.3048-3.9251-1.3048-5.5625 0h-1.7188v-1.1875c1.25-1.2 2.88-1.78 4.5-1.78zm0 2.9688c0.89813 0 1.7895 0.35202 2.4688 1.0312a1.0052 1.0052 0 0 1 0.0312 0.0312v0.9375h-2.5-2.5v-0.9375a1.0001 1.0001 0 0 1 0.0312 -0.0312c0.68-0.68 1.57-1.03 2.47-1.03zm0 3c0.82843 0 1.5 0.67158 1.5 1.5s-0.67157 1.5-1.5 1.5-1.5-0.67158-1.5-1.5c0-0.83 0.67-1.5 1.5-1.5z" style="color:#000000;fill:#f57900" class="warning"/>
 </g>
</svg>
