<?xml version="1.0" encoding="UTF-8" standalone="no"?>
<!-- Created with Inkscape (http://www.inkscape.org/) -->
<svg id="svg7384" xmlns:rdf="http://www.w3.org/1999/02/22-rdf-syntax-ns#" xmlns="http://www.w3.org/2000/svg" height="16" width="16" version="1.1" xmlns:cc="http://creativecommons.org/ns#" xmlns:dc="http://purl.org/dc/elements/1.1/">
 <metadata id="metadata90">
  <rdf:RDF>
   <cc:Work rdf:about="">
    <dc:format>image/svg+xml</dc:format>
    <dc:type rdf:resource="http://purl.org/dc/dcmitype/StillImage"/>
    <dc:title>Gnome Symbolic Icon Theme</dc:title>
   </cc:Work>
  </rdf:RDF>
 </metadata>
 <title id="title9167">Gnome Symbolic Icon Theme</title>
 <g id="layer9" transform="translate(-161 -357)">
  <path id="path4909" style="opacity:.35;color:#bebebe;fill:#bebebe" d="m164.69 358.06c-1.5235 0-2.75 1.2265-2.75 2.75v0.125h14.125v-0.125c0-1.5235-1.2265-2.75-2.75-2.75h-8.625zm-2.6562 7.8438c0.29 1.21 1.36 2.1 2.66 2.1h6.3125l3.0312 4-0.0625-4.0938c0.98863-0.24035 1.7535-1.0176 2-2h-13.938z"/>
  <path id="path4955-6" style="fill:#bebebe" d="m29 209a1 1 0 1 1 -2 0 1 1 0 1 1 2 0z" transform="matrix(1.5 0 0 1.5 122.5 50)"/>
  <path id="path4957-7" style="fill:#bebebe" d="m29 209a1 1 0 1 1 -2 0 1 1 0 1 1 2 0z" transform="matrix(1.5 0 0 1.5 126.5 50)"/>
  <path id="path4959-1" style="fill:#bebebe" d="m29 209a1 1 0 1 1 -2 0 1 1 0 1 1 2 0z" transform="matrix(1.5 0 0 1.5 130.5 50)"/>
 </g>
</svg>
