<?xml version="1.0" encoding="UTF-8" standalone="no"?>
<!-- Created with Inkscape (http://www.inkscape.org/) -->

<svg
   xmlns:dc="http://purl.org/dc/elements/1.1/"
   xmlns:cc="http://creativecommons.org/ns#"
   xmlns:rdf="http://www.w3.org/1999/02/22-rdf-syntax-ns#"
   xmlns:svg="http://www.w3.org/2000/svg"
   xmlns="http://www.w3.org/2000/svg"
   xmlns:xlink="http://www.w3.org/1999/xlink"
   xmlns:sodipodi="http://sodipodi.sourceforge.net/DTD/sodipodi-0.dtd"
   xmlns:inkscape="http://www.inkscape.org/namespaces/inkscape"
   version="1.0"
   width="96"
   height="96"
   id="svg2408"
   inkscape:version="0.48.4 r9939"
   sodipodi:docname="gnote.svg">
  <sodipodi:namedview
     pagecolor="#ffffff"
     bordercolor="#666666"
     borderopacity="1"
     objecttolerance="10"
     gridtolerance="10"
     guidetolerance="10"
     inkscape:pageopacity="0"
     inkscape:pageshadow="2"
     inkscape:window-width="1366"
     inkscape:window-height="719"
     id="namedview206"
     showgrid="false"
     inkscape:zoom="2.4583333"
     inkscape:cx="-51.661017"
     inkscape:cy="31.728811"
     inkscape:window-x="0"
     inkscape:window-y="22"
     inkscape:window-maximized="1"
     inkscape:current-layer="svg2408" />
  <defs
     id="defs2410">
    <linearGradient
       x1="45.447727"
       y1="92.539597"
       x2="45.447727"
       y2="7.0165396"
       id="ButtonShadow"
       gradientUnits="userSpaceOnUse"
       gradientTransform="scale(1.0058652,0.994169)">
      <stop
         id="stop3750"
         style="stop-color:#000000;stop-opacity:1"
         offset="0" />
      <stop
         id="stop3752"
         style="stop-color:#000000;stop-opacity:0.58823532"
         offset="1" />
    </linearGradient>
    <linearGradient
       id="linearGradient3737">
      <stop
         id="stop3739"
         style="stop-color:#ffffff;stop-opacity:1"
         offset="0" />
      <stop
         id="stop3741"
         style="stop-color:#ffffff;stop-opacity:0"
         offset="1" />
    </linearGradient>
    <filter
       color-interpolation-filters="sRGB"
       id="filter3174">
      <feGaussianBlur
         id="feGaussianBlur3176"
         stdDeviation="1.71" />
    </filter>
    <linearGradient
       x1="36.357143"
       y1="6"
       x2="36.357143"
       y2="63.893143"
       id="linearGradient3188"
       xlink:href="#linearGradient3737"
       gradientUnits="userSpaceOnUse" />
    <filter
       x="-0.192"
       y="-0.192"
       width="1.3839999"
       height="1.3839999"
       color-interpolation-filters="sRGB"
       id="filter3794">
      <feGaussianBlur
         id="feGaussianBlur3796"
         stdDeviation="5.28" />
    </filter>
    <linearGradient
       x1="48"
       y1="20.220806"
       x2="48"
       y2="138.66119"
       id="linearGradient3613"
       xlink:href="#linearGradient3737"
       gradientUnits="userSpaceOnUse" />
    <radialGradient
       cx="48"
       cy="90.171875"
       r="42"
       fx="48"
       fy="90.171875"
       id="radialGradient3619"
       xlink:href="#linearGradient3737"
       gradientUnits="userSpaceOnUse"
       gradientTransform="matrix(1.1573129,0,0,0.99590774,-7.5510206,0.19713193)" />
    <clipPath
       id="clipPath3613">
      <rect
         width="84"
         height="84"
         rx="6"
         ry="6"
         x="6"
         y="6"
         id="rect3615"
         style="fill:#ffffff;fill-opacity:1;fill-rule:nonzero;stroke:none" />
    </clipPath>
    <linearGradient
       x1="48"
       y1="90"
       x2="48"
       y2="5.9877172"
       id="linearGradient3617"
       xlink:href="#ButtonColor"
       gradientUnits="userSpaceOnUse" />
    <filter
       color-interpolation-filters="sRGB"
       id="filter3263">
      <feGaussianBlur
         id="feGaussianBlur3265"
         stdDeviation="1.5967586" />
    </filter>
    <linearGradient
       x1="59.387539"
       y1="44.471016"
       x2="110.98586"
       y2="112.4099"
       id="linearGradient3185"
       xlink:href="#linearGradient3766"
       gradientUnits="userSpaceOnUse"
       gradientTransform="matrix(0.71186441,0,0,0.71186441,2.44068,2.440678)" />
    <linearGradient
       x1="58.650177"
       y1="122"
       x2="58.650177"
       y2="5.4252338"
       id="ButtonColor"
       gradientUnits="userSpaceOnUse"
       gradientTransform="matrix(1.0172414,0,0,1.0172414,-1.1034483,-1.1034483)">
      <stop
         id="stop3189"
         style="stop-color:#e4b31e;stop-opacity:1"
         offset="0" />
      <stop
         id="stop3191"
         style="stop-color:#ffef64;stop-opacity:1"
         offset="1" />
    </linearGradient>
    <linearGradient
       id="linearGradient3766">
      <stop
         id="stop3768"
         style="stop-color:#e7ba26;stop-opacity:0"
         offset="0" />
      <stop
         id="stop3770"
         style="stop-color:#e9ab2c;stop-opacity:0.83137256"
         offset="0.4841198" />
      <stop
         id="stop3772"
         style="stop-color:#eaa82e;stop-opacity:1"
         offset="0.69662797" />
      <stop
         id="stop3774"
         style="stop-color:#ebba3f;stop-opacity:1"
         offset="0.842659" />
      <stop
         id="stop3776"
         style="stop-color:#f3e38c;stop-opacity:1"
         offset="1" />
    </linearGradient>
    <linearGradient
       x1="48"
       y1="90"
       x2="48"
       y2="5.9877172"
       id="linearGradient3783"
       xlink:href="#ButtonColor"
       gradientUnits="userSpaceOnUse"
       gradientTransform="translate(0,110)" />
    <clipPath
       id="clipPath3800">
      <path
         d="m 62,6 c -3.324,0 -6,2.676 -6,6 l 0,0.53125 C 56,8.9207 58.9207,6 62.53125,6 L 62,6 z m 71.46875,0 C 137.0793,6 140,8.9207 140,12.53125 L 140,12 c 0,-3.324 -2.676,-6 -6,-6 l -0.53125,0 z M 140,12.53125 c 0,36.73465 -3.54263,60.10471 -7.84375,69.9375 C 121.33994,87.4996 96.479512,90 62.53125,90 L 134,90 c 3.324,0 6,-2.676 6,-6 l 0,-71.46875 z M 62.53125,90 C 58.9207,89.9945 56,87.0793 56,83.46875 L 56,84 c 0,3.324 2.676,6 6,6 l 0.53125,0 z"
         inkscape:connector-curvature="0"
         id="path3802"
         style="fill:url(#linearGradient3804);fill-opacity:1;fill-rule:nonzero;stroke:none" />
    </clipPath>
    <linearGradient
       x1="48"
       y1="90"
       x2="48"
       y2="5.9877172"
       id="linearGradient3804"
       xlink:href="#ButtonColor"
       gradientUnits="userSpaceOnUse"
       gradientTransform="translate(50,0)" />
    <filter
       color-interpolation-filters="sRGB"
       id="filter3810">
      <feGaussianBlur
         id="feGaussianBlur3812"
         stdDeviation="1.2600071" />
    </filter>
    <linearGradient
       x1="82.08036"
       y1="82.290176"
       x2="59.611588"
       y2="59.821404"
       id="linearGradient3825"
       xlink:href="#linearGradient3737"
       gradientUnits="userSpaceOnUse" />
    <linearGradient
       id="linearGradient3951">
      <stop
         id="stop3953"
         style="stop-color:#000000;stop-opacity:1"
         offset="0" />
      <stop
         id="stop3955"
         style="stop-color:#000000;stop-opacity:0"
         offset="1" />
    </linearGradient>
    <filter
       color-interpolation-filters="sRGB"
       id="filter3963">
      <feGaussianBlur
         stdDeviation="0.91605611"
         id="feGaussianBlur3965" />
    </filter>
    <linearGradient
       x1="61.294735"
       y1="121.32806"
       x2="104.6299"
       y2="41.346642"
       id="linearGradient3595"
       xlink:href="#linearGradient3951"
       gradientUnits="userSpaceOnUse" />
    <linearGradient
       x1="136.41356"
       y1="115.49392"
       x2="149.52968"
       y2="115.49392"
       id="linearGradient3522"
       xlink:href="#linearGradient3485"
       gradientUnits="userSpaceOnUse" />
    <linearGradient
       id="linearGradient3485">
      <stop
         id="stop3487"
         style="stop-color:#e6605b;stop-opacity:1"
         offset="0" />
      <stop
         id="stop3489"
         style="stop-color:#f08682;stop-opacity:1"
         offset="1" />
    </linearGradient>
    <filter
       x="-0.42857143"
       y="-0.16666667"
       width="1.8571428"
       height="1.3333333"
       color-interpolation-filters="sRGB"
       id="filter3495">
      <feGaussianBlur
         stdDeviation="0.55242721"
         id="feGaussianBlur3497" />
    </filter>
    <filter
       x="-0.18344349"
       y="-0.17668343"
       width="1.366887"
       height="1.3533669"
       color-interpolation-filters="sRGB"
       id="filter3509">
      <feGaussianBlur
         stdDeviation="0.65925"
         id="feGaussianBlur3511" />
    </filter>
    <linearGradient
       x1="137.40625"
       y1="116.46875"
       x2="148.53125"
       y2="116.46875"
       id="linearGradient3524"
       xlink:href="#linearGradient3339"
       gradientUnits="userSpaceOnUse"
       gradientTransform="matrix(1.0893815,0,0,1,-13.275943,0)" />
    <linearGradient
       id="linearGradient3339">
      <stop
         id="stop3341"
         style="stop-color:#000000;stop-opacity:1"
         offset="0" />
      <stop
         id="stop3347"
         style="stop-color:#000000;stop-opacity:0.49803922"
         offset="0.69999999" />
      <stop
         id="stop3343"
         style="stop-color:#000000;stop-opacity:0"
         offset="1" />
    </linearGradient>
    <linearGradient
       x1="136"
       y1="60"
       x2="150"
       y2="60"
       id="linearGradient3526"
       xlink:href="#linearGradient3278"
       gradientUnits="userSpaceOnUse"
       gradientTransform="translate(-23.73343,0)" />
    <linearGradient
       id="linearGradient3278">
      <stop
         id="stop3280"
         style="stop-color:#165016;stop-opacity:1"
         offset="0" />
      <stop
         id="stop3290"
         style="stop-color:#165016;stop-opacity:1"
         offset="0.25" />
      <stop
         id="stop3286"
         style="stop-color:#217821;stop-opacity:1"
         offset="0.30000001" />
      <stop
         id="stop3288"
         style="stop-color:#217821;stop-opacity:1"
         offset="0.69999999" />
      <stop
         id="stop3292"
         style="stop-color:#2ca02c;stop-opacity:1"
         offset="0.75" />
      <stop
         id="stop3282"
         style="stop-color:#217821;stop-opacity:1"
         offset="1" />
    </linearGradient>
    <linearGradient
       x1="143"
       y1="2.4000001e-06"
       x2="143"
       y2="120.01752"
       id="linearGradient3528"
       xlink:href="#linearGradient3254"
       gradientUnits="userSpaceOnUse"
       gradientTransform="translate(-23.73343,0)" />
    <linearGradient
       id="linearGradient3254">
      <stop
         id="stop3256"
         style="stop-color:#000000;stop-opacity:1"
         offset="0" />
      <stop
         id="stop3266"
         style="stop-color:#000000;stop-opacity:1"
         offset="0.06588447" />
      <stop
         id="stop3264"
         style="stop-color:#ad5f1b;stop-opacity:1"
         offset="0.07" />
      <stop
         id="stop3268"
         style="stop-color:#ad601a;stop-opacity:1"
         offset="0.1913653" />
      <stop
         id="stop3262"
         style="stop-color:#134613;stop-opacity:1"
         offset="0.20983393" />
      <stop
         id="stop3258"
         style="stop-color:#124312;stop-opacity:1"
         offset="1" />
    </linearGradient>
    <linearGradient
       x1="141.25002"
       y1="4.9218717"
       x2="144.81252"
       y2="4.9218717"
       id="linearGradient3530"
       xlink:href="#linearGradient3394"
       gradientUnits="userSpaceOnUse"
       gradientTransform="translate(-23.73343,0)" />
    <linearGradient
       id="linearGradient3394">
      <stop
         id="stop3396"
         style="stop-color:#000000;stop-opacity:1"
         offset="0" />
      <stop
         id="stop3402"
         style="stop-color:#7d7d7d;stop-opacity:1"
         offset="0.5" />
      <stop
         id="stop3398"
         style="stop-color:#000000;stop-opacity:1"
         offset="1" />
    </linearGradient>
    <linearGradient
       x1="136.98804"
       y1="17.043356"
       x2="148.99513"
       y2="17.043356"
       id="linearGradient3532"
       xlink:href="#linearGradient3308"
       gradientUnits="userSpaceOnUse"
       gradientTransform="translate(-23.73343,0)" />
    <linearGradient
       id="linearGradient3308">
      <stop
         id="stop3310"
         style="stop-color:#da8539;stop-opacity:1"
         offset="0" />
      <stop
         id="stop3312"
         style="stop-color:#fadfc7;stop-opacity:1"
         offset="1" />
    </linearGradient>
    <linearGradient
       x1="146.10596"
       y1="118.94019"
       x2="146.07562"
       y2="66"
       id="linearGradient3534"
       xlink:href="#linearGradient5452"
       gradientUnits="userSpaceOnUse"
       gradientTransform="matrix(1,0,0,1.2653524,-23.73343,-54.364173)" />
    <linearGradient
       id="linearGradient5452">
      <stop
         id="stop5454"
         style="stop-color:#ffffff;stop-opacity:1"
         offset="0" />
      <stop
         id="stop5456"
         style="stop-color:#ffffff;stop-opacity:0"
         offset="1" />
    </linearGradient>
    <linearGradient
       x1="146.10596"
       y1="118.94019"
       x2="146.07562"
       y2="66"
       id="linearGradient3536"
       xlink:href="#linearGradient5452"
       gradientUnits="userSpaceOnUse"
       gradientTransform="matrix(1,0,0,1.2653524,-29.85843,-54.364173)" />
    <filter
       x="-0.43161276"
       y="-0.11371106"
       width="1.8632255"
       height="1.2274221"
       color-interpolation-filters="sRGB"
       id="filter3382">
      <feGaussianBlur
         stdDeviation="0.73914765"
         id="feGaussianBlur3384" />
    </filter>
    <filter
       x="-0.60979599"
       y="-0.1494"
       width="2.2195919"
       height="1.2988"
       color-interpolation-filters="sRGB"
       id="filter3390">
      <feGaussianBlur
         stdDeviation="0.77812506"
         id="feGaussianBlur3392" />
    </filter>
    <linearGradient
       x1="136"
       y1="106"
       x2="150"
       y2="106"
       id="linearGradient3538"
       xlink:href="#linearGradient3401"
       gradientUnits="userSpaceOnUse" />
    <linearGradient
       id="linearGradient3401">
      <stop
         id="stop3403"
         style="stop-color:#404040;stop-opacity:1"
         offset="0" />
      <stop
         id="stop3447"
         style="stop-color:#808080;stop-opacity:1"
         offset="0.2" />
      <stop
         id="stop3410"
         style="stop-color:#efefef;stop-opacity:1"
         offset="0.69999999" />
      <stop
         id="stop3405"
         style="stop-color:#dcdcdc;stop-opacity:1"
         offset="1" />
    </linearGradient>
    <linearGradient
       x1="136"
       y1="106"
       x2="150"
       y2="106"
       id="linearGradient3540"
       xlink:href="#linearGradient3461"
       gradientUnits="userSpaceOnUse" />
    <linearGradient
       id="linearGradient3461">
      <stop
         id="stop3463"
         style="stop-color:#444542;stop-opacity:1"
         offset="0" />
      <stop
         id="stop3465"
         style="stop-color:#71746e;stop-opacity:1"
         offset="1" />
    </linearGradient>
    <linearGradient
       x1="142.95775"
       y1="98.950562"
       x2="148.95775"
       y2="98.950562"
       id="linearGradient3542"
       xlink:href="#linearGradient3339"
       gradientUnits="userSpaceOnUse"
       gradientTransform="translate(0.04225159,1.5494389)"
       spreadMethod="reflect" />
    <linearGradient
       x1="142.95775"
       y1="98.950562"
       x2="148.95775"
       y2="98.950562"
       id="linearGradient3544"
       xlink:href="#linearGradient3355"
       gradientUnits="userSpaceOnUse"
       gradientTransform="translate(0.04225159,2.5494389)"
       spreadMethod="reflect" />
    <linearGradient
       id="linearGradient3355">
      <stop
         id="stop3357"
         style="stop-color:#ffffff;stop-opacity:1"
         offset="0" />
      <stop
         id="stop3359"
         style="stop-color:#ffffff;stop-opacity:0.49803922"
         offset="0.69999999" />
      <stop
         id="stop3361"
         style="stop-color:#ffffff;stop-opacity:0"
         offset="1" />
    </linearGradient>
    <linearGradient
       x1="142.95775"
       y1="98.950562"
       x2="148.95775"
       y2="98.950562"
       id="linearGradient3546"
       xlink:href="#linearGradient3339"
       gradientUnits="userSpaceOnUse"
       gradientTransform="translate(0.04225159,3.5494389)"
       spreadMethod="reflect" />
    <linearGradient
       x1="142.95775"
       y1="98.950562"
       x2="148.95775"
       y2="98.950562"
       id="linearGradient3548"
       xlink:href="#linearGradient3355"
       gradientUnits="userSpaceOnUse"
       gradientTransform="translate(0.04225159,4.5494389)"
       spreadMethod="reflect" />
    <linearGradient
       x1="142.95775"
       y1="98.950562"
       x2="148.95775"
       y2="98.950562"
       id="linearGradient3550"
       xlink:href="#linearGradient3339"
       gradientUnits="userSpaceOnUse"
       gradientTransform="translate(0.04225159,9.5494389)"
       spreadMethod="reflect" />
    <linearGradient
       x1="142.95775"
       y1="98.950562"
       x2="148.95775"
       y2="98.950562"
       id="linearGradient3552"
       xlink:href="#linearGradient3355"
       gradientUnits="userSpaceOnUse"
       gradientTransform="translate(0.04225159,10.549439)"
       spreadMethod="reflect" />
    <linearGradient
       x1="142.95775"
       y1="98.950562"
       x2="148.95775"
       y2="98.950562"
       id="linearGradient3554"
       xlink:href="#linearGradient3339"
       gradientUnits="userSpaceOnUse"
       gradientTransform="translate(0.04225159,11.549439)"
       spreadMethod="reflect" />
    <linearGradient
       x1="142.95775"
       y1="98.950562"
       x2="148.95775"
       y2="98.950562"
       id="linearGradient3556"
       xlink:href="#linearGradient3355"
       gradientUnits="userSpaceOnUse"
       gradientTransform="translate(0.04225159,12.549439)"
       spreadMethod="reflect" />
    <linearGradient
       x1="137"
       y1="106"
       x2="139.03125"
       y2="106"
       id="linearGradient3558"
       xlink:href="#linearGradient3439"
       gradientUnits="userSpaceOnUse"
       spreadMethod="repeat" />
    <linearGradient
       id="linearGradient3439">
      <stop
         id="stop3441"
         style="stop-color:#3d3d3d;stop-opacity:1"
         offset="0" />
      <stop
         id="stop3443"
         style="stop-color:#ffffff;stop-opacity:1"
         offset="1" />
    </linearGradient>
    <filter
       x="-1.0349605"
       y="-0.13573837"
       width="3.069921"
       height="1.2714767"
       color-interpolation-filters="sRGB"
       id="filter3451">
      <feGaussianBlur
         stdDeviation="0.9498173"
         id="feGaussianBlur3453" />
    </filter>
    <filter
       x="-0.93333328"
       y="-0.13770492"
       width="2.8666666"
       height="1.2754098"
       color-interpolation-filters="sRGB"
       id="filter3457">
      <feGaussianBlur
         stdDeviation="0.92807767"
         id="feGaussianBlur3459" />
    </filter>
    <linearGradient
       x1="61.294735"
       y1="121.32806"
       x2="117.36092"
       y2="18.868103"
       id="linearGradient3229"
       xlink:href="#linearGradient3951"
       gradientUnits="userSpaceOnUse" />
    <linearGradient
       x1="45.447727"
       y1="92.539597"
       x2="45.447727"
       y2="7.0165396"
       id="ButtonShadow-0"
       gradientUnits="userSpaceOnUse"
       gradientTransform="matrix(1.0058652,0,0,0.994169,100,0)">
      <stop
         id="stop3750-8"
         style="stop-color:#000000;stop-opacity:1"
         offset="0" />
      <stop
         id="stop3752-5"
         style="stop-color:#000000;stop-opacity:0.58823532"
         offset="1" />
    </linearGradient>
    <linearGradient
       x1="32.251034"
       y1="6.1317081"
       x2="32.251034"
       y2="90.238609"
       id="linearGradient3780"
       xlink:href="#ButtonShadow-0"
       gradientUnits="userSpaceOnUse"
       gradientTransform="matrix(1.0238095,0,0,1.0119048,-1.1428571,-98.071429)" />
    <linearGradient
       x1="32.251034"
       y1="6.1317081"
       x2="32.251034"
       y2="90.238609"
       id="linearGradient3772"
       xlink:href="#ButtonShadow-0"
       gradientUnits="userSpaceOnUse"
       gradientTransform="matrix(1.0238095,0,0,1.0119048,-1.1428571,-98.071429)" />
    <linearGradient
       x1="32.251034"
       y1="6.1317081"
       x2="32.251034"
       y2="90.238609"
       id="linearGradient3725"
       xlink:href="#ButtonShadow-0"
       gradientUnits="userSpaceOnUse"
       gradientTransform="matrix(1.0238095,0,0,1.0119048,-1.1428571,-98.071429)" />
    <linearGradient
       x1="32.251034"
       y1="6.1317081"
       x2="32.251034"
       y2="90.238609"
       id="linearGradient3721"
       xlink:href="#ButtonShadow-0"
       gradientUnits="userSpaceOnUse"
       gradientTransform="translate(0,-97)" />
    <linearGradient
       x1="32.251034"
       y1="6.1317081"
       x2="32.251034"
       y2="90.238609"
       id="linearGradient3071"
       xlink:href="#ButtonShadow-0"
       gradientUnits="userSpaceOnUse"
       gradientTransform="matrix(1.0238095,0,0,1.0119048,-1.1428571,-98.071429)" />
    <linearGradient
       inkscape:collect="always"
       xlink:href="#ButtonShadow-0"
       id="linearGradient3186"
       gradientUnits="userSpaceOnUse"
       gradientTransform="matrix(0.91065924,0,0,0.91065924,4.2883566,-89.908856)"
       x1="32.251034"
       y1="6.1317081"
       x2="32.251034"
       y2="90.238609" />
    <linearGradient
       inkscape:collect="always"
       xlink:href="#ButtonShadow-0"
       id="linearGradient3189"
       gradientUnits="userSpaceOnUse"
       gradientTransform="matrix(0.93234158,0,0,0.92150045,3.2476032,-90.884562)"
       x1="32.251034"
       y1="6.1317081"
       x2="32.251034"
       y2="90.238609" />
    <linearGradient
       inkscape:collect="always"
       xlink:href="#ButtonShadow-0"
       id="linearGradient3192"
       gradientUnits="userSpaceOnUse"
       gradientTransform="matrix(0.93234158,0,0,-0.92150045,3.2476032,90.884562)"
       x1="32.251034"
       y1="6.1317081"
       x2="32.251034"
       y2="90.238609" />
    <linearGradient
       inkscape:collect="always"
       xlink:href="#ButtonShadow-0"
       id="linearGradient3195"
       gradientUnits="userSpaceOnUse"
       gradientTransform="matrix(0.93234158,0,0,-0.92150045,3.2476032,90.884562)"
       x1="32.251034"
       y1="6.1317081"
       x2="32.251034"
       y2="90.238609" />
    <linearGradient
       inkscape:collect="always"
       xlink:href="#ButtonShadow-0"
       id="linearGradient3198"
       gradientUnits="userSpaceOnUse"
       gradientTransform="matrix(0.93234158,0,0,-0.92150045,3.2476032,90.884562)"
       x1="32.251034"
       y1="6.1317081"
       x2="32.251034"
       y2="90.238609" />
    <linearGradient
       inkscape:collect="always"
       xlink:href="#linearGradient3737"
       id="linearGradient3248"
       gradientUnits="userSpaceOnUse"
       x1="48"
       y1="20.220806"
       x2="48"
       y2="138.66119" />
    <linearGradient
       inkscape:collect="always"
       xlink:href="#linearGradient3737"
       id="linearGradient3264"
       gradientUnits="userSpaceOnUse"
       x1="36.357143"
       y1="6"
       x2="36.357143"
       y2="63.893143"
       gradientTransform="matrix(0.91065924,0,0,0.91065924,4.2883566,1.5749102)" />
    <linearGradient
       inkscape:collect="always"
       xlink:href="#linearGradient3737"
       id="linearGradient3268"
       gradientUnits="userSpaceOnUse"
       x1="82.08036"
       y1="82.290176"
       x2="59.611588"
       y2="59.821404"
       gradientTransform="matrix(0.91065924,0,0,0.91065924,4.2883566,1.5749102)" />
    <linearGradient
       inkscape:collect="always"
       xlink:href="#ButtonColor"
       id="linearGradient3271"
       gradientUnits="userSpaceOnUse"
       gradientTransform="translate(0,110)"
       x1="48"
       y1="90"
       x2="48"
       y2="5.9877172" />
    <linearGradient
       inkscape:collect="always"
       xlink:href="#linearGradient3766"
       id="linearGradient3296"
       gradientUnits="userSpaceOnUse"
       gradientTransform="matrix(0.6482659,0,0,0.6482659,6.5109844,3.7975361)"
       x1="59.387539"
       y1="44.471016"
       x2="110.98586"
       y2="112.4099" />
    <radialGradient
       inkscape:collect="always"
       xlink:href="#linearGradient3737"
       id="radialGradient3301"
       gradientUnits="userSpaceOnUse"
       gradientTransform="matrix(1.0539177,0,0,0.90693258,-2.58805,1.7544302)"
       cx="48"
       cy="90.171875"
       fx="48"
       fy="90.171875"
       r="42" />
    <linearGradient
       inkscape:collect="always"
       xlink:href="#ButtonColor"
       id="linearGradient3304"
       gradientUnits="userSpaceOnUse"
       x1="48"
       y1="90"
       x2="48"
       y2="5.9877172"
       gradientTransform="matrix(0.91065924,0,0,0.91065924,4.2883566,1.5749102)" />
    <filter
       inkscape:collect="always"
       id="filter3959">
      <feGaussianBlur
         inkscape:collect="always"
         stdDeviation="0.30651341"
         id="feGaussianBlur3961" />
    </filter>
    <filter
       inkscape:collect="always"
       id="filter3952"
       x="-0.1091954"
       width="1.2183908"
       y="-0.43678161"
       height="1.8735632">
      <feGaussianBlur
         inkscape:collect="always"
         stdDeviation="1.3325541"
         id="feGaussianBlur3954" />
    </filter>
    <radialGradient
       inkscape:collect="always"
       xlink:href="#ButtonShadow"
       id="radialGradient3954"
       cx="16"
       cy="16"
       fx="16"
       fy="16"
       r="16"
       gradientUnits="userSpaceOnUse" />
    <radialGradient
       inkscape:collect="always"
       xlink:href="#ButtonShadow-0"
       id="radialGradient3956"
       gradientUnits="userSpaceOnUse"
       cx="16"
       cy="16"
       fx="16"
       fy="16"
       r="16" />
  </defs>
  <metadata
     id="metadata2413">
    <rdf:RDF>
      <cc:Work
         rdf:about="">
        <dc:format>image/svg+xml</dc:format>
        <dc:type
           rdf:resource="http://purl.org/dc/dcmitype/StillImage" />
        <dc:title />
      </cc:Work>
    </rdf:RDF>
  </metadata>
  <g
     id="layer2"
     style="display:none">
    <rect
       width="86"
       height="85"
       rx="6"
       ry="6"
       x="5"
       y="7"
       id="rect3745"
       style="opacity:0.9;fill:url(#ButtonShadow);fill-opacity:1;fill-rule:nonzero;stroke:none;filter:url(#filter3174)" />
  </g>
  <path
     inkscape:connector-curvature="0"
     style="opacity:0.07999998;fill:url(#linearGradient3198);fill-opacity:1;fill-rule:nonzero;stroke:none;display:inline"
     id="path3786"
     d="m 15.216267,88.115995 c -5.018725,0 -9.13505,-4.116325 -9.13505,-9.13505 l 0,-64.656806 c 0,-5.0187246 4.116325,-9.13505 9.13505,-9.13505 l 65.567466,0 c 5.018725,0 9.13505,4.1163254 9.13505,9.13505 l 0,64.656806 c 0,5.018725 -4.116325,9.13505 -9.13505,9.13505 l -65.567466,0 z" />
  <path
     inkscape:connector-curvature="0"
     style="opacity:0.1;fill:url(#linearGradient3195);fill-opacity:1;fill-rule:nonzero;stroke:none;display:inline"
     id="path3778"
     d="m 15.216267,87.205336 c -4.527463,0 -8.2243908,-3.696928 -8.2243908,-8.224391 l 0,-64.656806 c 0,-4.5274626 3.6969278,-8.2243908 8.2243908,-8.2243908 l 65.567466,0 c 4.527463,0 8.224391,3.6969282 8.224391,8.2243908 l 0,64.656806 c 0,4.527463 -3.696928,8.224391 -8.224391,8.224391 l -65.567466,0 z" />
  <path
     inkscape:connector-curvature="0"
     style="opacity:0.2;fill:url(#linearGradient3192);fill-opacity:1;fill-rule:nonzero;stroke:none;display:inline"
     id="path3770"
     d="m 15.216267,86.266219 c -4.015218,0 -7.2852734,-3.270056 -7.2852734,-7.285274 l 0,-64.656806 c 0,-4.015218 3.2700554,-7.2852734 7.2852734,-7.2852734 l 65.567466,0 c 4.015217,0 7.285273,3.2700554 7.285273,7.2852734 l 0,64.656806 c 0,4.015218 -3.270056,7.285274 -7.285273,7.285274 l -65.567466,0 z" />
  <rect
     style="opacity:0.3;fill:url(#linearGradient3189);fill-opacity:1;fill-rule:nonzero;stroke:none;display:inline"
     id="rect3723"
     transform="scale(1,-1)"
     y="-85.35556"
     x="8.8416529"
     ry="6.3746147"
     rx="6.3746147"
     height="77.406036"
     width="78.316696" />
  <rect
     style="opacity:0.45;fill:url(#linearGradient3186);fill-opacity:1;fill-rule:nonzero;stroke:none;display:inline"
     id="rect3716"
     transform="scale(1,-1)"
     y="-84.444901"
     x="9.7523117"
     ry="5.4639554"
     rx="5.4639554"
     height="76.495377"
     width="76.495377" />
  <path
     style="opacity:0.2;fill:#000000;fill-opacity:1;stroke:none;display:inline"
     id="path3833"
     inkscape:connector-curvature="0"
     d="m 189.96875,19.28125 c -0.40529,32.853499 -3.78151,53.972258 -7.8125,63.1875 -10.14029,4.716417 -32.62864,7.205224 -63.375,7.5 31.14298,-0.03671 56.97907,-0.434437 66.78125,-4.3125 3.02403,-9.875444 4.25911,-33.292211 4.40625,-66.375 z" />
  <rect
     style="fill:url(#linearGradient3304);fill-opacity:1;fill-rule:nonzero;stroke:none"
     id="rect2419"
     y="7.0388656"
     x="9.7523117"
     ry="5.4639554"
     rx="5.4639554"
     height="76.495377"
     width="76.495377" />
  <path
     style="opacity:0.2;fill:url(#radialGradient3301);fill-opacity:1;fill-rule:nonzero;stroke:none"
     id="path3615"
     inkscape:connector-curvature="0"
     d="m 15.216267,83.534241 c -3.027031,0 -5.463955,-2.436924 -5.463955,-5.463955 l 0,-1.821319 0,-61.924828 0,-1.821318 c 0,-0.304817 0.037656,-0.592566 0.085374,-0.882202 0.044349,-0.269187 0.08837,-0.543586 0.170749,-0.796826 0.009,-0.02767 0.01902,-0.05792 0.02846,-0.08537 0.09003,-0.262061 0.213896,-0.498542 0.341497,-0.7399096 0.131674,-0.249072 0.287419,-0.487763 0.45533,-0.711453 0.167911,-0.22369 0.340383,-0.431171 0.540704,-0.626078 0.400642,-0.389813 0.85867,-0.741756 1.365989,-0.996034 0.253659,-0.127139 0.522238,-0.224884 0.796826,-0.313039 -0.233312,0.09127 -0.443227,0.215164 -0.654536,0.341498 -0.0067,0.004 -0.02173,-0.0041 -0.02846,0 -0.02908,0.01757 -0.05673,0.03871 -0.08537,0.05692 -0.109639,0.06985 -0.210383,0.148904 -0.313039,0.227665 -0.09669,0.07358 -0.194227,0.146718 -0.284581,0.227664 -0.162034,0.147011 -0.316418,0.314531 -0.45533,0.483788 -0.09797,0.118618 -0.198882,0.241584 -0.284581,0.369955 -0.02285,0.03495 -0.03501,0.0782 -0.05692,0.113833 -0.05898,0.09383 -0.118593,0.186245 -0.170749,0.284581 -0.09198,0.177311 -0.187299,0.378562 -0.256123,0.5691616 -0.0072,0.01986 -0.02148,0.03693 -0.02846,0.05692 -0.02898,0.08373 -0.03261,0.170139 -0.05692,0.256123 -0.02762,0.09709 -0.0641,0.184892 -0.08537,0.284581 -0.06637,0.311001 -0.113833,0.635827 -0.113833,0.967575 l 0,1.821319 0,61.924828 0,1.821318 c 0,2.533316 2.019981,4.553297 4.553296,4.553297 l 1.821319,0 61.924828,0 1.821319,0 c 2.533315,0 4.553296,-2.019981 4.553296,-4.553297 l 0,-1.821318 0,-61.924828 0,-1.821319 c 0,-0.331748 -0.04746,-0.656574 -0.113833,-0.967575 -0.04021,-0.188409 -0.08048,-0.362131 -0.14229,-0.540704 -0.007,-0.01999 -0.02122,-0.03706 -0.02846,-0.05692 -0.05714,-0.1582166 -0.12602,-0.3346206 -0.199207,-0.4837876 -0.03786,-0.0754 -0.07198,-0.15477 -0.113832,-0.227665 -0.04972,-0.08853 -0.115448,-0.171522 -0.170749,-0.256123 -0.0857,-0.128371 -0.186613,-0.251337 -0.284581,-0.369955 -0.130383,-0.158864 -0.276058,-0.315997 -0.426872,-0.45533 -0.01017,-0.0093 -0.0182,-0.01926 -0.02846,-0.02846 -0.126022,-0.114338 -0.25962,-0.213491 -0.398413,-0.313039 -0.09341,-0.06662 -0.186064,-0.139662 -0.284581,-0.199206 -0.0067,-0.0041 -0.02171,0.004 -0.02846,0 -0.211309,-0.126334 -0.421224,-0.25023 -0.654536,-0.341498 0.274588,0.08815 0.543167,0.1859 0.796826,0.313039 0.507319,0.254278 0.965347,0.606221 1.365989,0.996034 0.200321,0.194907 0.372793,0.402388 0.540704,0.626078 0.167911,0.22369 0.323656,0.462381 0.45533,0.711453 0.127601,0.2413676 0.251465,0.4778486 0.341497,0.7399096 0.0095,0.02803 0.01942,0.05713 0.02846,0.08537 0.08238,0.25324 0.1264,0.527639 0.170749,0.796826 0.04772,0.289636 0.08537,0.577385 0.08537,0.882202 l 0,1.821318 0,61.924828 0,1.821319 c 0,3.027031 -2.436924,5.463955 -5.463955,5.463955 l -65.567466,0 z" />
  <path
     style="opacity:0.5;fill:#a14b09;fill-opacity:1;stroke:none;display:inline;filter:url(#filter3810)"
     id="path3785"
     clip-path="url(#clipPath3800)"
     transform="matrix(0.91065924,0,0,0.91065924,-41.244605,1.5749102)"
     inkscape:connector-curvature="0"
     d="M 62.51724,6 C 58.90669,6 56,8.90669 56,12.517241 l 0,70.965519 c 0,3.610548 2.90669,6.511737 6.51724,6.51724 33.948262,0 61.15737,0.163148 73.40225,-3.796268 C 139.14918,76.192373 140,49.251888 140,12.517241 140,8.90669 137.09331,6 133.48276,6 L 62.51724,6 z" />
  <path
     style="opacity:0.35;fill:#ffffff;fill-opacity:1;fill-rule:nonzero;stroke:none"
     id="rect3839"
     inkscape:connector-curvature="0"
     d="m 15.216267,7.0388656 c -3.027031,0 -5.463955,2.4369238 -5.463955,5.4639554 l 0,5.463955 76.495376,0 0,-5.463955 c 0,-3.0270316 -2.436924,-5.4639554 -5.463955,-5.4639554 l -65.567466,0 z" />
  <path
     style="fill:url(#linearGradient3296);fill-opacity:1;stroke:none;display:inline"
     id="path3177"
     inkscape:connector-curvature="0"
     d="m 15.687297,7.0388656 c -3.287981,0 -5.934985,2.6470038 -5.934985,5.9349854 l 0,64.625405 c 0,3.287979 2.647004,5.929974 5.934985,5.934985 30.915298,0 53.579489,-2.290693 63.429467,-6.872079 3.916848,-8.954319 7.130924,-30.235565 7.130924,-63.688311 0,-3.2879816 -2.647006,-5.9349854 -5.934985,-5.9349854 l -64.625406,0 z" />
  <path
     style="opacity:0.6;fill:#a14b09;fill-opacity:1;stroke:none;display:inline;filter:url(#filter3263)"
     id="path3233"
     inkscape:connector-curvature="0"
     d="m -18.64602,-8.4760596 c -0.54916,48.6146006 -9.3668,76.3093396 -15.21875,89.6874996 -15.194361,7.06714 -45.904521,14.34375 -93.59375,14.34375 47.689229,0 87.243039,1.06703 102.43739,-6.00011 5.85011,-13.37396 6.07391,-49.221747 6.37511,-98.0311396 z" />
  <path
     style="font-size:27.92438889px;font-style:normal;font-variant:normal;font-weight:normal;font-stretch:normal;text-align:start;line-height:100%;writing-mode:lr-tb;text-anchor:start;opacity:0.9;fill:#22225e;fill-opacity:1;stroke:none;display:inline;font-family:JaneAusten;-inkscape-font-specification:JaneAusten"
     id="text2443"
     inkscape:connector-curvature="0"
     d="m -97.480992,46.914781 c 0.0293,-0.439798 0.11361,-0.762318 0.25288,-0.967565 0.13927,-0.205235 0.43246,-0.45812 0.87961,-0.758657 0.44712,-0.300525 0.93457,-0.42147 1.46234,-0.362836 0.527753,0.05865 0.601053,0.355512 0.2199,0.890598 -0.38117,0.535097 -0.56442,1.062858 -0.54976,1.583286 0.0147,0.520435 0.2932,0.894266 0.835623,1.121493 0.542415,0.227234 1.132488,0.186919 1.770203,-0.120944 0.637706,-0.307859 1.381702,-0.765985 2.231996,-1.374381 0.85027,-0.608387 1.707886,-1.378039 2.572837,-2.308958 0.864931,-0.930905 1.601598,-1.858153 2.210003,-2.781745 0.608378,-0.923574 1.095824,-1.784851 1.462341,-2.583834 0.366485,-0.798961 0.593716,-1.586938 0.681692,-2.363934 0.08794,-0.776967 -0.157612,-1.509969 -0.736668,-2.199008 -0.579087,-0.689006 -0.879617,-1.268076 -0.901593,-1.737215 -0.02201,-0.469104 0.245542,-0.923566 0.802638,-1.363386 0.996868,1.9e-5 1.689554,0.29322 2.078062,0.879603 0.388475,0.586421 0.740315,1.187482 1.055524,1.803187 0.315173,0.615738 0.586384,1.242455 0.813634,1.880152 0.227211,0.637727 0.465437,1.216798 0.714677,1.737215 0.249201,0.520446 0.432451,1.055538 0.549752,1.605278 0.11726,0.549762 0.304176,1.136164 0.560748,1.759205 0.256529,0.623062 0.476429,1.279099 0.659702,1.968112 0.183228,0.689031 0.480094,0.722015 0.890598,0.09896 0.410458,-0.623044 1.059165,-1.407356 1.946122,-2.352938 0.886907,-0.945563 1.65656,-1.744535 2.308958,-2.396919 0.652345,-0.652359 1.381682,-1.301066 2.188013,-1.946122 0.806273,-0.645028 1.627236,-1.224099 2.462889,-1.737217 0.835591,-0.513086 1.766503,-0.974876 2.79274,-1.385374 1.026169,-0.410464 1.942421,-0.608374 2.74876,-0.593733 0.806266,0.01468 1.561258,0.142954 2.264978,0.384827 0.703643,0.241908 1.282713,0.520449 1.737217,0.835623 0.45442,0.315208 0.820921,0.707364 1.099504,1.176469 0.278498,0.469137 0.432429,1.290099 0.461791,2.462889 -0.219943,0.498454 -0.487488,0.725685 -0.802637,0.681693 -0.315233,-0.04396 -0.494819,-0.388479 -0.538757,-1.033534 -0.04402,-0.645029 -0.282247,-1.176455 -0.714678,-1.594281 -0.432511,-0.417795 -0.864983,-0.721992 -1.297415,-0.912588 -0.43251,-0.190565 -1.000587,-0.344495 -1.704231,-0.461792 -0.703719,-0.117264 -1.396406,-0.06228 -2.078063,0.164925 -0.681727,0.227247 -1.418393,0.586419 -2.210003,1.077515 -0.791675,0.491126 -1.715257,1.095853 -2.77075,1.814181 -1.055553,0.718356 -2.078091,1.579633 -3.067615,2.583834 -0.989581,1.004224 -1.803213,1.938802 -2.440899,2.803736 -0.637737,0.86495 -1.202149,1.696907 -1.693237,2.495874 -0.491134,0.798978 -0.850305,1.64926 -1.077513,2.550849 -0.227254,0.901595 -0.513124,1.762873 -0.857614,2.583834 -0.344532,0.820963 -0.780668,1.451345 -1.308409,1.891147 -0.791662,-0.117282 -1.205809,-0.355507 -1.24244,-0.714678 -0.03667,-0.359171 0.06962,-0.765987 0.318856,-1.220449 0.249201,-0.454461 0.461772,-1.029867 0.637713,-1.726221 0.175899,-0.696349 0.27852,-1.418357 0.307859,-2.166023 0.0293,-0.747658 -0.08065,-1.513645 -0.32985,-2.297963 -0.24924,-0.784305 -0.487467,-1.444007 -0.714678,-1.979108 -0.227249,-0.535082 -0.476469,-0.978548 -0.747663,-1.330399 -0.271229,-0.351831 -0.560765,-0.340836 -0.868608,0.03298 -0.307878,0.373842 -0.751344,0.934588 -1.3304,1.682242 -0.579087,0.74767 -1.297429,1.542977 -2.155028,2.385923 -0.857626,0.842959 -1.979118,1.795861 -3.364479,2.85871 -1.385388,1.062857 -2.638819,1.773869 -3.760308,2.133039 -1.121498,0.359171 -2.034085,0.432472 -2.737765,0.2199 -0.70368,-0.212566 -1.1838,-0.568072 -1.44035,-1.066515 -0.25655,-0.49844 -0.43614,-1.268092 -0.53875,-2.308958 m 26.08023,2.001096 c 0.234559,0.351843 0.524095,0.535094 0.868609,0.549752 0.344507,0.01466 0.670694,-0.08063 0.978558,-0.285871 0.307857,-0.205238 0.670693,-0.399484 1.088509,-0.582736 0.417806,-0.183248 0.824622,-0.410479 1.22045,-0.681693 0.395814,-0.271208 0.593725,-0.612053 0.593731,-1.022538 -6e-6,-0.410478 -0.153936,-0.729333 -0.461791,-0.95657 -0.307867,-0.227225 -0.436142,-0.51676 -0.384826,-0.868607 0.0513,-0.351836 0.212564,-0.593726 0.483782,-0.725673 0.271203,-0.131934 0.722,-0.205234 1.352389,-0.219901 0.659694,0.131948 1.062845,0.461798 1.209454,0.989554 0.146592,0.527767 0.135597,1.018879 -0.03298,1.473335 -0.168599,0.454466 0.0403,0.864947 0.626718,1.231445 0.586392,0.366504 1.110488,0.487449 1.572291,0.362836 0.461779,-0.124607 0.721995,0.01833 0.780647,0.428807 -0.07331,0.439803 -0.194257,0.703684 -0.362836,0.791642 -0.168602,0.08796 -0.509448,0.168593 -1.022539,0.241891 -0.513111,0.0733 -1.128833,-0.08429 -1.847166,-0.472787 -0.718351,-0.388489 -1.231452,-0.465454 -1.539306,-0.230896 -0.307868,0.234564 -0.769659,0.538759 -1.385375,0.912589 -0.615728,0.373832 -1.220454,0.670698 -1.814181,0.890598 -0.593736,0.219901 -1.271763,0.329852 -2.034083,0.329852 -0.703684,-0.234561 -1.202125,-0.597397 -1.495325,-1.08851 -0.293202,-0.49111 -0.439802,-1.029866 -0.439802,-1.61627 0.0733,-0.410479 0.377496,-0.861275 0.912588,-1.35239 0.535091,-0.491107 1.048192,-0.901589 1.539306,-1.231445 0.491109,-0.329846 0.98955,-0.571736 1.495326,-0.725673 0.505767,-0.153924 0.864937,-0.131934 1.077513,0.06597 0.212566,0.197916 0.351836,0.439806 0.417812,0.725673 0.06596,0.285876 0.03664,0.516771 -0.08796,0.692687 -0.124615,0.175925 -0.307866,0.293205 -0.549752,0.351842 -0.241895,0.05864 -0.575411,0.135609 -1.000548,0.230895 -0.425145,0.09529 -0.883272,0.329855 -1.37438,0.703683 -0.491114,0.373834 -0.619389,0.73667 -0.384827,1.088508 m 9.455735,-0.32985 c 0.146601,-0.395819 0.348176,-0.81363 0.604728,-1.253435 0.256549,-0.439797 0.846616,-1.077509 1.770201,-1.913137 0.92358,-0.835617 1.605271,-1.583279 2.045077,-2.242988 -0.674366,0.08797 -1.125162,0.135613 -1.352389,0.142935 -0.227235,0.0073 -0.36284,-0.128268 -0.406817,-0.406816 -0.04398,-0.278533 0.02199,-0.483774 0.19791,-0.615723 0.175918,-0.131931 0.520429,-0.230887 1.033534,-0.296866 0.513097,-0.06596 1.048189,-0.150256 1.605277,-0.252886 0.982216,-0.923572 1.784853,-1.663904 2.407913,-2.220998 0.623043,-0.557069 1.290075,-1.158131 2.001097,-1.803186 0.711002,-0.645028 1.385364,-1.183784 2.023088,-1.616271 0.637699,-0.432456 1.191115,-0.656022 1.660251,-0.670697 0.278526,0.366516 0.01831,0.905273 -0.780648,1.61627 -0.798985,0.711026 -1.433032,1.301093 -1.902142,1.770202 -0.469133,0.469133 -0.919928,0.91993 -1.35239,1.35239 -0.432481,0.432482 -0.927257,0.949248 -1.484331,1.550301 0.718334,-0.08795 1.792182,-0.212562 3.221547,-0.373832 1.429342,-0.161251 2.891681,-0.311516 4.387022,-0.450796 1.495307,-0.139261 3.001627,-0.260206 4.518962,-0.362837 1.517293,-0.10261 3.005286,-0.16858 4.463986,-0.197911 1.458647,-0.02931 2.975961,-0.02564 4.55194,0.011 1.57593,0.03666 2.85868,0.102632 3.848269,0.197911 0.989517,0.0953 1.777493,0.399497 2.36393,0.912589 -0.601097,0.190589 -1.150852,0.252895 -1.649255,0.186915 -0.498474,-0.06596 -1.033569,-0.117271 -1.605272,-0.153931 -0.571776,-0.03664 -1.257132,-0.04397 -2.056077,-0.02199 -0.798998,0.022 -1.76656,0.05132 -2.902686,0.08796 -1.13618,0.03666 -2.349299,0.06232 -3.639359,0.07696 -1.290107,0.01467 -2.598515,0.07698 -3.925229,0.186916 -1.326753,0.10996 -2.587516,0.22724 -3.782293,0.351842 -1.194809,0.124618 -2.437248,0.238233 -3.727318,0.340845 -1.290097,0.102629 -2.206349,0.172264 -2.748761,0.208906 -0.542431,0.03666 -0.989562,0.07698 -1.341395,0.120946 -0.351849,0.04399 -0.641385,0.120954 -0.868607,0.230895 -0.227239,0.109959 -0.469129,0.274884 -0.725673,0.494777 -0.256557,0.219908 -0.575414,0.524105 -0.956568,0.912588 -0.381168,0.388498 -0.831964,0.89427 -1.352391,1.517316 -0.520436,0.623057 -0.982226,1.158148 -1.385374,1.605276 -0.403155,0.447135 -0.692691,0.864945 -0.868609,1.253435 -0.175923,0.388492 -0.197913,0.733003 -0.06597,1.033533 0.131937,0.300532 0.381158,0.483782 0.747662,0.549752 0.366498,0.06597 1.07018,-0.08063 2.111048,-0.439801 1.040857,-0.35917 1.781189,-0.678026 2.220998,-0.956569 0.439794,-0.278538 0.773309,-0.454459 1.000548,-0.527762 0.227222,-0.0733 0.403143,-0.02565 0.527762,0.142935 0.124602,0.168593 -0.05499,0.458128 -0.538757,0.868609 -0.48379,0.410483 -0.91626,0.725673 -1.297415,0.945573 -0.381167,0.219902 -0.817304,0.425142 -1.308409,0.615723 -0.491117,0.19058 -1.044534,0.329851 -1.660251,0.417811 -0.395826,0.05864 -0.769657,0.08796 -1.121494,0.08796 -0.219904,-10e-7 -0.432475,-0.0073 -0.637713,-0.02199 -0.557084,-0.05864 -0.993219,-0.186917 -1.308409,-0.384827 -0.315192,-0.197911 -0.524098,-0.458127 -0.626718,-0.780648 -0.117281,-0.2932 -0.17592,-0.557081 -0.17592,-0.791642 0,-0.01466 0.0073,-0.03665 0.02199,-0.06597 0,-0.249219 0.0733,-0.57174 0.219901,-0.967563 m 9.785584,-1.099505 c 0.894261,-0.293197 1.491657,-0.571737 1.792192,-0.835622 0.300527,-0.263877 0.428802,-0.505767 0.384826,-0.725673 -0.04399,-0.219896 -0.293205,-0.212566 -0.747663,0.02199 -0.454465,0.234567 -0.76599,0.472792 -0.934578,0.714679 -0.168593,0.241895 -0.333518,0.51677 -0.494777,0.824627 m -1.935127,1.451345 c 0,-0.762319 0.09529,-1.348721 0.285871,-1.759206 0.19058,-0.410477 0.502106,-0.835618 0.934578,-1.275424 0.43247,-0.439797 0.864942,-0.820958 1.297415,-1.143485 0.432469,-0.322514 0.875935,-0.542415 1.3304,-0.659702 l 0.505772,-0.02199 c 0.454456,0.01467 0.850277,0.139277 1.187464,0.373831 0.337176,0.234567 0.480111,0.648713 0.428807,1.242439 -0.05132,0.593738 -0.344517,1.106839 -0.879604,1.539306 -0.535096,0.432476 -1.139823,0.744001 -1.814182,0.934578 -0.674364,0.190584 -1.0372,0.36284 -1.088508,0.516767 -0.05131,0.153933 0.05864,0.322524 0.329851,0.505772 0.271208,0.183253 0.8796,0.300533 1.825177,0.351842 0.945568,0.05131 1.718885,2e-6 2.319953,-0.153931 0.601055,-0.153929 1.088501,-0.318854 1.462341,-0.494777 0.373822,-0.175918 0.667023,-0.293198 0.879602,-0.351841 0.212562,-0.05864 0.384818,0.05131 0.516767,0.329852 -0.38117,0.542423 -0.798981,0.941909 -1.253434,1.198459 -0.454469,0.256552 -1.022546,0.487447 -1.704231,0.692687 -0.681698,0.205241 -1.513656,0.329852 -2.495875,0.373831 l -0.593731,0 c -1.070187,-0.10262 -1.792194,-0.245555 -2.166024,-0.428806 -0.373831,-0.18325 -0.663368,-0.399485 -0.868607,-0.648707 -0.205241,-0.24922 -0.351842,-0.623051 -0.439802,-1.121495 m 9.972503,0.197912 c 0.153929,0.425143 0.4398,0.604728 0.857613,0.538756 0.417809,-0.06597 0.79897,-0.208904 1.143485,-0.428806 0.351836,-0.227229 0.707343,-0.560745 1.066518,-1.000549 0.359167,-0.447128 0.516762,-0.751324 0.472787,-0.912588 -0.864947,0.630385 -1.54664,1.048196 -2.045077,1.253435 -0.491115,0.205243 -0.989556,0.388493 -1.495326,0.549752 m -2.210003,-0.989554 c 0.01466,-0.469118 0.06231,-0.828289 0.142935,-1.077514 0.08063,-0.249217 0.216237,-0.417807 0.406817,-0.505772 0.190581,-0.08796 0.432471,-0.117276 0.725672,-0.08796 0.293201,0.02933 0.513101,0.524101 0.659703,1.484331 0.61572,-0.117277 1.147147,-0.289532 1.59428,-0.516767 0.44713,-0.227227 0.87227,-0.443463 1.275425,-0.648707 0.403147,-0.212567 0.875934,-0.436132 1.41836,-0.670697 0.542417,-0.234556 1.048188,-0.491107 1.517316,-0.769653 0.469114,-0.285866 0.820955,-0.564406 1.055524,-0.835624 0.234553,-0.278533 0.410473,-0.557075 0.527762,-0.835623 0.117272,-0.285863 0.315182,-0.461783 0.593732,-0.527761 0.329841,0.0073 0.571732,0.07697 0.725672,0.208905 0.153921,0.124619 0.249211,0.421484 0.285871,0.890598 -0.01467,0.205248 -0.06598,0.406824 -0.15393,0.604728 -0.08797,0.197916 -0.282216,0.436142 -0.582737,0.714677 -0.29321,0.271216 -0.608401,0.494782 -0.945574,0.670698 -0.329859,0.168595 -0.700025,0.3775 -1.110498,0.626717 -0.403159,0.249225 -0.809975,0.582741 -1.22045,1.000549 -0.403157,0.417814 -0.696358,0.82463 -0.879603,1.220449 -0.175926,0.388493 -0.359176,0.743999 -0.549752,1.066519 -0.190585,0.315192 -0.480121,0.575407 -0.868608,0.780648 -0.388495,0.19791 -0.989557,0.322521 -1.803187,0.373831 -0.542423,-0.01466 -0.967564,-0.08429 -1.275425,-0.208905 -0.307861,-0.124611 -0.630382,-0.494777 -0.967563,-1.1105 -0.337181,-0.61572 -0.527761,-1.231442 -0.571742,-1.847166" />
  <rect
     style="fill:url(#linearGradient3271);fill-opacity:1;fill-rule:nonzero;stroke:none"
     id="rect3781"
     y="116"
     x="6"
     ry="6"
     rx="6"
     height="84"
     width="84" />
  <path
     style="opacity:0.3;fill:url(#linearGradient3268);fill-opacity:1;stroke:none;display:inline"
     id="path3814"
     inkscape:connector-curvature="0"
     d="m 84.027956,8.3479384 c 0.815073,1.015958 1.309073,2.3182886 1.309073,3.7280106 0,33.452746 -3.226135,54.734911 -7.142984,63.68923 -9.849977,4.581386 -32.489351,6.858403 -63.404649,6.858403 -1.409722,-0.0021 -2.712053,-0.494351 -3.728011,-1.309073 1.085972,1.352748 2.760411,2.216869 4.63867,2.219732 30.915299,0 53.554672,-2.277017 63.40465,-6.858402 3.916848,-8.954319 7.142983,-30.236485 7.142983,-63.689231 0,-1.878259 -0.866108,-3.5526976 -2.219732,-4.6386696 z" />
  <path
     style="opacity:0.2;fill:#552200;fill-opacity:1;stroke:none;display:inline"
     id="path3831"
     inkscape:connector-curvature="0"
     d="m 86.21923,19.133558 c -0.369081,29.918343 -3.443667,49.150335 -7.114525,57.542281 -9.234349,4.295048 -29.713573,6.561504 -57.71303,6.829944 28.107643,-0.09099 49.795549,-0.91641 59.022102,-5.207833 3.672051,-8.394674 5.58093,-29.050702 5.805453,-59.164392 z" />
  <path
     style="opacity:0.6;fill:url(#linearGradient3264);fill-opacity:1;fill-rule:nonzero;stroke:none"
     id="rect3728"
     inkscape:connector-curvature="0"
     d="m 15.216267,7.0388656 c -3.027031,0 -5.463955,2.4369238 -5.463955,5.4639554 l 0,1.821318 0,61.924828 0,1.821319 c 0,0.304816 0.037656,0.592566 0.085374,0.882201 0.044349,0.269187 0.08837,0.543586 0.170749,0.796827 0.009,0.02766 0.01902,0.05792 0.02846,0.08537 0.09003,0.262061 0.213896,0.498542 0.341497,0.739911 0.131674,0.249071 0.287419,0.487762 0.45533,0.711452 0.167911,0.22369 0.340383,0.431172 0.540704,0.626078 0.400642,0.389813 0.85867,0.741756 1.365989,0.996034 0.253659,0.127139 0.522238,0.224884 0.796826,0.313039 -0.233312,-0.09127 -0.443227,-0.215163 -0.654536,-0.341497 -0.0067,-0.004 -0.02173,0.0041 -0.02846,0 -0.02908,-0.01758 -0.05673,-0.03871 -0.08537,-0.05692 -0.109639,-0.06985 -0.210383,-0.148905 -0.313039,-0.227665 -0.09669,-0.07358 -0.194227,-0.146718 -0.284581,-0.227665 -0.162034,-0.14701 -0.316418,-0.314531 -0.45533,-0.483788 -0.09797,-0.118618 -0.198882,-0.241584 -0.284581,-0.369955 -0.02285,-0.03495 -0.03501,-0.0782 -0.05692,-0.113832 -0.05898,-0.09383 -0.118593,-0.186246 -0.170749,-0.284581 -0.09198,-0.177311 -0.187299,-0.378562 -0.256123,-0.569163 -0.0072,-0.01986 -0.02148,-0.03693 -0.02846,-0.05692 -0.02898,-0.08373 -0.03261,-0.170139 -0.05692,-0.256123 -0.02762,-0.09709 -0.0641,-0.184892 -0.08537,-0.284581 -0.06637,-0.311001 -0.113833,-0.635826 -0.113833,-0.967575 l 0,-1.821319 0,-61.924828 0,-1.821318 c 0,-2.533316 2.019981,-4.5532956 4.553296,-4.5532956 l 1.821319,0 61.924828,0 1.821319,0 c 2.533315,0 4.553296,2.0199796 4.553296,4.5532956 l 0,1.821318 0,61.924828 0,1.821319 c 0,0.331749 -0.04746,0.656574 -0.113833,0.967575 -0.04021,0.188409 -0.08048,0.362131 -0.14229,0.540704 -0.007,0.01999 -0.02122,0.03706 -0.02846,0.05692 -0.05714,0.158218 -0.12602,0.334621 -0.199207,0.483788 -0.03786,0.0754 -0.07198,0.15477 -0.113832,0.227665 -0.04972,0.08852 -0.115448,0.171523 -0.170749,0.256123 -0.0857,0.128371 -0.186613,0.251337 -0.284581,0.369955 -0.130383,0.158865 -0.276058,0.315997 -0.426872,0.45533 -0.01017,0.0093 -0.0182,0.01926 -0.02846,0.02846 -0.126022,0.114339 -0.25962,0.213491 -0.398413,0.313039 -0.09341,0.06661 -0.186064,0.139662 -0.284581,0.199207 -0.0067,0.0041 -0.02171,-0.004 -0.02846,0 -0.211309,0.126334 -0.421224,0.250229 -0.654536,0.341497 0.274588,-0.08815 0.543167,-0.1859 0.796826,-0.313039 0.507319,-0.254278 0.965347,-0.606221 1.365989,-0.996034 0.200321,-0.194906 0.372793,-0.402388 0.540704,-0.626078 0.167911,-0.22369 0.323656,-0.462381 0.45533,-0.711452 0.127601,-0.241369 0.251465,-0.47785 0.341497,-0.739911 0.0095,-0.02803 0.01942,-0.05714 0.02846,-0.08537 0.08238,-0.253241 0.1264,-0.52764 0.170749,-0.796827 0.04772,-0.289635 0.08537,-0.577385 0.08537,-0.882201 l 0,-1.821319 0,-61.924828 0,-1.821318 c 0,-3.0270316 -2.436924,-5.4639554 -5.463955,-5.4639554 l -65.567466,0 z" />
  <rect
     style="opacity:0.1;fill:url(#linearGradient3248);fill-opacity:1;fill-rule:nonzero;stroke:#ffffff;stroke-width:0.5;stroke-linecap:round;stroke-linejoin:miter;stroke-miterlimit:4;stroke-opacity:1;stroke-dasharray:none;stroke-dashoffset:0;filter:url(#filter3794)"
     id="rect3171"
     clip-path="url(#clipPath3613)"
     y="15"
     x="15"
     ry="12"
     rx="12"
     height="66"
     width="66"
     transform="matrix(0.91065924,0,0,0.91065924,4.2883566,1.2044734)" />
  <g
     id="layer3"
     transform="translate(-131.79661,-34.576271)">
    <path
       d="m 118.375,11.03125 c -0.52336,-0.06895 -1.05794,-0.0102 -1.5625,0.125 -1.00643,0.269671 -1.88554,0.918974 -2.4375,1.875 l -2.0625,3.5625 a 1.0491519,1.0491519 0 0 0 -0.84375,0.53125 l -9.5,16.46875 -36,62.34375 a 1.0491519,1.0491519 0 0 0 -0.09375,0.25 L 59.5,120.21875 A 1.0491519,1.0491519 0 0 0 61.25,121.25 L 78.875,103.71875 A 1.0491519,1.0491519 0 0 0 79.03125,103.5 l 36,-62.34375 9.5,-16.46875 a 1.0491519,1.0491519 0 0 0 0.0625,-0.90625 l 2.09375,-3.625 c 1.11127,-1.924777 0.4576,-4.419069 -1.46875,-5.53125 l -5.3125,-3.0625 c -0.47927,-0.276705 -1.00789,-0.462302 -1.53125,-0.53125 z"
       transform="matrix(0.7141758,0.1253856,-0.1253856,0.7141758,2.6569465,-15.447758)"
       id="path3589"
       style="opacity:0.3;fill:url(#linearGradient3229);fill-opacity:1;stroke:none;display:inline;filter:url(#filter3963)"
       inkscape:connector-curvature="0" />
    <path
       d="m 118.375,11.03125 c -0.52336,-0.06895 -1.05794,-0.0102 -1.5625,0.125 -1.00643,0.269671 -1.88554,0.918974 -2.4375,1.875 l -2.0625,3.5625 a 1.0491519,1.0491519 0 0 0 -0.84375,0.53125 l -9.5,16.46875 -36,62.34375 a 1.0491519,1.0491519 0 0 0 -0.09375,0.25 L 59.5,120.21875 A 1.0491519,1.0491519 0 0 0 61.25,121.25 L 78.875,103.71875 A 1.0491519,1.0491519 0 0 0 79.03125,103.5 l 36,-62.34375 9.5,-16.46875 a 1.0491519,1.0491519 0 0 0 0.0625,-0.90625 l 2.09375,-3.625 c 1.11127,-1.924777 0.4576,-4.419069 -1.46875,-5.53125 l -5.3125,-3.0625 c -0.47927,-0.276705 -1.00789,-0.462302 -1.53125,-0.53125 z"
       transform="matrix(0.6274055,0.3634982,-0.3634982,0.6274055,36.873046,-19.138812)"
       id="path3712"
       style="opacity:0.5;fill:url(#linearGradient3595);fill-opacity:1;stroke:none;display:inline;filter:url(#filter3963)"
       inkscape:connector-curvature="0" />
    <g
       transform="matrix(-0.6279542,-0.3625495,0.3625495,-0.6279542,120.29091,131.31477)"
       id="g3643"
       style="display:inline">
      <g
         id="g3537">
        <rect
           width="12.116117"
           height="16"
           rx="3"
           ry="3"
           x="136.91356"
           y="107.49392"
           id="rect3483"
           style="fill:url(#linearGradient3522);fill-opacity:1;stroke:#df453f;stroke-width:1.3791219;stroke-linecap:butt;stroke-linejoin:round;stroke-miterlimit:4;stroke-opacity:1;stroke-dasharray:none" />
        <path
           d="m 141.24458,118.1889 a 1.5467962,3.9774759 0 1 1 -3.09359,0 1.5467962,3.9774759 0 1 1 3.09359,0 z"
           transform="matrix(1.8857143,0,0,1,-123.51329,-1.9445437)"
           id="path3493"
           style="opacity:0.3;fill:#701300;fill-opacity:1;stroke:none;filter:url(#filter3495)"
           inkscape:connector-curvature="0" />
        <path
           d="m 146.31251,113.125 c -0.85193,9.50672 -3.9375,8.3125 -6.5,8.9375 4.07634,0.0625 8.625,-0.0625 8.625,-0.0625 -2.4375,-0.5625 -1.8125,-2.375 -2.125,-8.875 z"
           inkscape:connector-curvature="0"
           id="path3499"
           style="opacity:0.8;fill:#ffffff;fill-opacity:1;fill-rule:evenodd;stroke:none;filter:url(#filter3509)" />
        <rect
           width="12.119369"
           height="1"
           x="136.41188"
           y="115.96875"
           id="rect3525"
           style="opacity:0.2;fill:url(#linearGradient3524);fill-opacity:1;stroke:none" />
      </g>
      <g
         transform="translate(23.73343,0)"
         id="g3311">
        <path
           d="m 112.76657,24.500002 6.5,-23.9999996 6.5,23.9999996 0,71.999997 -13,0 0,-71.999997 z"
           inkscape:connector-curvature="0"
           id="rect2480"
           style="fill:url(#linearGradient3526);fill-opacity:1;stroke:url(#linearGradient3528);stroke-width:1.3791219;stroke-linecap:butt;stroke-linejoin:round;stroke-miterlimit:4;stroke-opacity:1" />
        <path
           d="m 117.69336,8.0716529 3.14265,0.022097 -1.58237,-5.7913293"
           inkscape:connector-curvature="0"
           id="path3272"
           style="fill:url(#linearGradient3530);fill-opacity:1;fill-rule:evenodd;stroke:none" />
        <path
           d="M 117.73213,8.0901517 113.96457,22 c 0,0 -0.46779,1.653465 -0.698,2.60832 -0.19122,0.64228 1.95886,1.611283 3.0182,-1.60832 1.21534,4.513809 5.57589,3.437953 5.98831,0.01105 0.3425,1.701476 1.75396,2.949961 2.98863,1.521937 -0.23478,-0.908743 -0.43641,-1.521937 -0.43641,-1.521937 l -4.02168,-14.9208973 -3.07149,0 z"
           inkscape:connector-curvature="0"
           id="path3274"
           style="fill:url(#linearGradient3532);fill-opacity:1;fill-rule:evenodd;stroke:none" />
        <path
           d="m 122.37252,96.304856 0,-67.217294"
           inkscape:connector-curvature="0"
           id="path3294"
           style="opacity:0.5;fill:none;stroke:url(#linearGradient3534);stroke-width:1.37912166px;stroke-linecap:butt;stroke-linejoin:miter;stroke-opacity:1" />
        <path
           d="m 116.24752,96.304856 0,-67.217294"
           inkscape:connector-curvature="0"
           id="path3304"
           style="opacity:0.5;fill:none;stroke:url(#linearGradient3536);stroke-width:1.37912166px;stroke-linecap:butt;stroke-linejoin:miter;stroke-opacity:1" />
        <path
           d="m 118.7044,5.9798798 -4.77297,17.8986412 1.98873,-0.839689 2.78424,-17.0589522 z"
           inkscape:connector-curvature="0"
           id="path3372"
           style="opacity:0.4;fill:#ac4311;fill-opacity:1;fill-rule:evenodd;stroke:none;filter:url(#filter3382)" />
        <path
           d="m 113.07908,24.624995 c 0,0 1.48667,1.76491 3.25,-1.53125 2,5.25 5.16858,2.087146 5.93749,-0.03125 1.375,3.4375 3.12501,1.4375 3.12501,1.4375"
           inkscape:connector-curvature="0"
           id="path3386"
           style="opacity:0.15;fill:none;stroke:#4d2600;stroke-width:1.3791219px;stroke-linecap:butt;stroke-linejoin:miter;stroke-opacity:1" />
        <path
           d="m 144.06251,8.9374939 -0.375,12.5000011 3.0625,-0.3125 -2.6875,-12.1875011 z"
           inkscape:connector-curvature="0"
           transform="matrix(1.122449,0,0,1.345,-41.70282,-4.7709353)"
           id="path3388"
           style="opacity:0.8;fill:#ffffff;fill-opacity:1;fill-rule:evenodd;stroke:none;filter:url(#filter3390)" />
      </g>
      <g
         id="g3620">
        <rect
           width="13"
           height="19"
           x="136.5"
           y="96.5"
           id="rect3333"
           style="fill:url(#linearGradient3538);fill-opacity:1;stroke:url(#linearGradient3540);stroke-width:1.3791219;stroke-linecap:butt;stroke-linejoin:round;stroke-miterlimit:4;stroke-opacity:1;stroke-dasharray:none" />
        <rect
           width="12"
           height="1"
           x="137"
           y="100"
           id="rect3337"
           style="opacity:0.4;fill:url(#linearGradient3542);fill-opacity:1;stroke:none" />
        <rect
           width="12"
           height="1"
           x="137"
           y="101"
           id="rect3351"
           style="opacity:0.6;fill:url(#linearGradient3544);fill-opacity:1;stroke:none" />
        <rect
           width="12"
           height="1"
           x="137"
           y="102"
           id="rect3369"
           style="opacity:0.4;fill:url(#linearGradient3546);fill-opacity:1;stroke:none" />
        <rect
           width="12"
           height="1"
           x="137"
           y="103"
           id="rect3371"
           style="opacity:0.6;fill:url(#linearGradient3548);fill-opacity:1;stroke:none" />
        <rect
           width="12"
           height="1"
           x="137"
           y="108"
           id="rect3379"
           style="opacity:0.4;fill:url(#linearGradient3550);fill-opacity:1;stroke:none" />
        <rect
           width="12"
           height="1"
           x="137"
           y="109"
           id="rect3381"
           style="opacity:0.6;fill:url(#linearGradient3552);fill-opacity:1;stroke:none" />
        <rect
           width="12"
           height="1"
           x="137"
           y="110"
           id="rect3385"
           style="opacity:0.4;fill:url(#linearGradient3554);fill-opacity:1;stroke:none" />
        <rect
           width="12"
           height="1"
           x="137"
           y="111"
           id="rect3387"
           style="opacity:0.6;fill:url(#linearGradient3556);fill-opacity:1;stroke:none" />
        <rect
           width="12"
           height="4"
           x="137"
           y="104"
           id="rect3437"
           style="opacity:0.3;fill:url(#linearGradient3558);fill-opacity:1;stroke:none" />
        <path
           d="m 140.00001,106.07969 a 1.10128,8.3968973 0 1 1 -2.20256,0 1.10128,8.3968973 0 1 1 2.20256,0 z"
           transform="matrix(1.2553848,0,0,1,-35.75387,0)"
           id="path3449"
           style="opacity:0.6;fill:#000000;fill-opacity:1;stroke:none;filter:url(#filter3451)"
           inkscape:connector-curvature="0" />
        <path
           d="m 147.34339,106.03549 a 1.193245,8.0875489 0 1 1 -2.38649,0 1.193245,8.0875489 0 1 1 2.38649,0 z"
           id="path3455"
           style="opacity:0.8;fill:#ffffff;fill-opacity:1;stroke:none;filter:url(#filter3457)"
           inkscape:connector-curvature="0" />
      </g>
    </g>
  </g>
  <g
     id="pin_x5F_32x32"
     transform="matrix(0.91065924,0,0,0.91065924,33.79989,29.975131)"
     style="opacity:0.42023345;fill:#ececec;filter:url(#filter3959)">
    <path
       style="fill:#ececec"
       inkscape:connector-curvature="0"
       d="m 32,8 c 0,-4.417 -3.585,-8 -8,-8 -2.984,0 -5.562,1.659 -6.938,4.086 0,-0.002 0.004,-0.004 0.004,-0.005 -0.363,-0.036 -0.723,-0.112 -1.098,-0.112 -6.625,0 -12,5.371 -12,12 0,2.527 0.79,4.865 2.125,6.799 L 0,32 9.29,25.936 c 1.913,1.283 4.21,2.033 6.679,2.033 6.629,0 12,-5.371 12,-12 0,-0.346 -0.069,-0.669 -0.101,-1.008 C 30.321,13.594 32,11.005 32,8 z M 15.969,23.969 c -4.413,0 -8,-3.588 -8,-8 0,-4.412 3.587,-8 8,-8 0.016,0 0.024,0.004 0.031,0.004 0,-0.008 0.004,-0.014 0.004,-0.02 C 16.004,7.969 16,7.984 16,8 c 0,0.695 0.118,1.355 0.281,1.998 l -3.172,3.174 c -1.562,1.562 -1.562,4.094 0,5.656 1.562,1.562 4.094,1.562 5.656,0 l 3.141,-3.141 c 0.66,0.18 1.344,0.305 2.062,0.309 -0.015,4.4 -3.593,7.973 -7.999,7.973 z M 24,12 c -2.203,0 -4,-1.794 -4,-4 0,-2.206 1.797,-4 4,-4 2.203,0 4,1.794 4,4 0,2.206 -1.797,4 -4,4 z"
       id="path6" />
  </g>
  <g
     id="pin_x5F_32x32-9"
     transform="matrix(1.026421,0,0,1.026421,31.947702,25.159441)"
     style="fill:url(#radialGradient3954);fill-opacity:1">
    <path
       style="fill:url(#radialGradient3956);fill-opacity:1"
       inkscape:connector-curvature="0"
       d="m 32,8 c 0,-4.417 -3.585,-8 -8,-8 -2.984,0 -5.562,1.659 -6.938,4.086 0,-0.002 0.004,-0.004 0.004,-0.005 -0.363,-0.036 -0.723,-0.112 -1.098,-0.112 -6.625,0 -12,5.371 -12,12 0,2.527 0.79,4.865 2.125,6.799 L 0,32 9.29,25.936 c 1.913,1.283 4.21,2.033 6.679,2.033 6.629,0 12,-5.371 12,-12 0,-0.346 -0.069,-0.669 -0.101,-1.008 C 30.321,13.594 32,11.005 32,8 z M 15.969,23.969 c -4.413,0 -8,-3.588 -8,-8 0,-4.412 3.587,-8 8,-8 0.016,0 0.024,0.004 0.031,0.004 0,-0.008 0.004,-0.014 0.004,-0.02 C 16.004,7.969 16,7.984 16,8 c 0,0.695 0.118,1.355 0.281,1.998 l -3.172,3.174 c -1.562,1.562 -1.562,4.094 0,5.656 1.562,1.562 4.094,1.562 5.656,0 l 3.141,-3.141 c 0.66,0.18 1.344,0.305 2.062,0.309 -0.015,4.4 -3.593,7.973 -7.999,7.973 z M 24,12 c -2.203,0 -4,-1.794 -4,-4 0,-2.206 1.797,-4 4,-4 2.203,0 4,1.794 4,4 0,2.206 -1.797,4 -4,4 z"
       id="path6-3" />
  </g>
  <path
     sodipodi:type="arc"
     style="opacity:0.42023345;fill:#1a1a1a;fill-opacity:0.8872549;stroke:#787878;stroke-width:0.60000002;stroke-linecap:round;stroke-linejoin:round;stroke-miterlimit:4;stroke-opacity:1;stroke-dasharray:0.6, 1.2;stroke-dashoffset:0;filter:url(#filter3952)"
     id="path3178"
     sodipodi:cx="38.237289"
     sodipodi:cy="73.220337"
     sodipodi:rx="14.644068"
     sodipodi:ry="3.6610169"
     d="m 52.881357,73.220337 a 14.644068,3.6610169 0 1 1 -29.288135,0 14.644068,3.6610169 0 1 1 29.288135,0 z"
     transform="matrix(1.0857607,0,0,0.90708372,5.927798,-5.5720427)" />
</svg>
