<?xml version="1.0" encoding="UTF-8" standalone="no"?>
<!-- Created with Inkscape (http://www.inkscape.org/) -->

<svg
   xmlns:dc="http://purl.org/dc/elements/1.1/"
   xmlns:cc="http://creativecommons.org/ns#"
   xmlns:rdf="http://www.w3.org/1999/02/22-rdf-syntax-ns#"
   xmlns:svg="http://www.w3.org/2000/svg"
   xmlns="http://www.w3.org/2000/svg"
   xmlns:xlink="http://www.w3.org/1999/xlink"
   xmlns:sodipodi="http://sodipodi.sourceforge.net/DTD/sodipodi-0.dtd"
   xmlns:inkscape="http://www.inkscape.org/namespaces/inkscape"
   version="1.0"
   width="96"
   height="96"
   id="svg2408"
   inkscape:version="0.48.3.1 r9886"
   sodipodi:docname="nuvola-player.svg">
  <sodipodi:namedview
     pagecolor="#ffffff"
     bordercolor="#666666"
     borderopacity="1"
     objecttolerance="10"
     gridtolerance="10"
     guidetolerance="10"
     inkscape:pageopacity="0"
     inkscape:pageshadow="2"
     inkscape:window-width="1366"
     inkscape:window-height="742"
     id="namedview73"
     showgrid="false"
     inkscape:zoom="3.4766083"
     inkscape:cx="49.103934"
     inkscape:cy="40.53285"
     inkscape:window-x="0"
     inkscape:window-y="0"
     inkscape:window-maximized="1"
     inkscape:current-layer="svg2408" />
  <defs
     id="defs2410">
    <linearGradient
       id="linearGradient3849">
      <stop
         id="stop3851"
         style="stop-color:#e5e5e5;stop-opacity:1"
         offset="0" />
      <stop
         id="stop3853"
         style="stop-color:#ffffff;stop-opacity:1"
         offset="1" />
    </linearGradient>
    <linearGradient
       id="linearGradient3833">
      <stop
         id="stop3835"
         style="stop-color:#d9d9d9;stop-opacity:1"
         offset="0" />
      <stop
         id="stop3837"
         style="stop-color:#ffffff;stop-opacity:1"
         offset="1" />
    </linearGradient>
    <linearGradient
       x1="45.447727"
       y1="92.539597"
       x2="45.447727"
       y2="7.0165396"
       id="ButtonShadow"
       gradientUnits="userSpaceOnUse"
       gradientTransform="scale(1.0058652,0.994169)">
      <stop
         id="stop3750"
         style="stop-color:#000000;stop-opacity:1"
         offset="0" />
      <stop
         id="stop3752"
         style="stop-color:#000000;stop-opacity:0.58823532"
         offset="1" />
    </linearGradient>
    <linearGradient
       id="linearGradient3737">
      <stop
         id="stop3739"
         style="stop-color:#ffffff;stop-opacity:1"
         offset="0" />
      <stop
         id="stop3741"
         style="stop-color:#ffffff;stop-opacity:0"
         offset="1" />
    </linearGradient>
    <linearGradient
       id="linearGradient3700">
      <stop
         id="stop3702"
         style="stop-color:#53aec2;stop-opacity:1"
         offset="0" />
      <stop
         id="stop3704"
         style="stop-color:#80c3d2;stop-opacity:1"
         offset="1" />
    </linearGradient>
    <filter
       color-interpolation-filters="sRGB"
       id="filter3174">
      <feGaussianBlur
         id="feGaussianBlur3176"
         stdDeviation="1.71" />
    </filter>
    <linearGradient
       x1="36.357143"
       y1="6"
       x2="36.357143"
       y2="63.893143"
       id="linearGradient3188"
       xlink:href="#linearGradient3737"
       gradientUnits="userSpaceOnUse" />
    <filter
       x="-0.192"
       y="-0.192"
       width="1.3839999"
       height="1.3839999"
       color-interpolation-filters="sRGB"
       id="filter3794">
      <feGaussianBlur
         id="feGaussianBlur3796"
         stdDeviation="5.28" />
    </filter>
    <linearGradient
       x1="48"
       y1="20.220806"
       x2="48"
       y2="138.66119"
       id="linearGradient3613"
       xlink:href="#linearGradient3737"
       gradientUnits="userSpaceOnUse" />
    <radialGradient
       cx="48"
       cy="90.171875"
       r="42"
       fx="48"
       fy="90.171875"
       id="radialGradient3619"
       xlink:href="#linearGradient3737"
       gradientUnits="userSpaceOnUse"
       gradientTransform="matrix(1.1573129,0,0,0.99590774,-7.5510206,0.19713193)" />
    <clipPath
       id="clipPath3613">
      <rect
         width="84"
         height="84"
         rx="6"
         ry="6"
         x="6"
         y="6"
         id="rect3615"
         style="fill:#ffffff;fill-opacity:1;fill-rule:nonzero;stroke:none" />
    </clipPath>
    <linearGradient
       x1="48"
       y1="90"
       x2="48"
       y2="5.9877172"
       id="linearGradient3617"
       xlink:href="#linearGradient3700"
       gradientUnits="userSpaceOnUse" />
    <linearGradient
       x1="45.447727"
       y1="92.539597"
       x2="45.447727"
       y2="7.0165396"
       id="ButtonShadow-0"
       gradientUnits="userSpaceOnUse"
       gradientTransform="matrix(1.0058652,0,0,0.994169,100,0)">
      <stop
         id="stop3750-8"
         style="stop-color:#000000;stop-opacity:1"
         offset="0" />
      <stop
         id="stop3752-5"
         style="stop-color:#000000;stop-opacity:0.58823532"
         offset="1" />
    </linearGradient>
    <linearGradient
       x1="32.251034"
       y1="6.1317081"
       x2="32.251034"
       y2="90.238609"
       id="linearGradient3780"
       xlink:href="#ButtonShadow-0"
       gradientUnits="userSpaceOnUse"
       gradientTransform="matrix(1.0238095,0,0,1.0119048,-1.1428571,-98.071429)" />
    <linearGradient
       x1="32.251034"
       y1="6.1317081"
       x2="32.251034"
       y2="90.238609"
       id="linearGradient3772"
       xlink:href="#ButtonShadow-0"
       gradientUnits="userSpaceOnUse"
       gradientTransform="matrix(1.0238095,0,0,1.0119048,-1.1428571,-98.071429)" />
    <linearGradient
       x1="32.251034"
       y1="6.1317081"
       x2="32.251034"
       y2="90.238609"
       id="linearGradient3725"
       xlink:href="#ButtonShadow-0"
       gradientUnits="userSpaceOnUse"
       gradientTransform="matrix(1.0238095,0,0,1.0119048,-1.1428571,-98.071429)" />
    <linearGradient
       x1="32.251034"
       y1="6.1317081"
       x2="32.251034"
       y2="90.238609"
       id="linearGradient3721"
       xlink:href="#ButtonShadow-0"
       gradientUnits="userSpaceOnUse"
       gradientTransform="translate(0,-97)" />
    <linearGradient
       x1="32.251034"
       y1="6.1317081"
       x2="32.251034"
       y2="90.238609"
       id="linearGradient3026"
       xlink:href="#ButtonShadow-0"
       gradientUnits="userSpaceOnUse"
       gradientTransform="matrix(1.0238095,0,0,1.0119048,-1.1428571,-98.071429)" />
    <radialGradient
       cx="-67.361107"
       cy="30.722223"
       r="17.5"
       fx="-67.361107"
       fy="30.722223"
       id="radialGradient3839"
       xlink:href="#linearGradient3833"
       gradientUnits="userSpaceOnUse"
       gradientTransform="matrix(1.2777774,-1.5934198e-8,1.3855826e-8,1.1111109,18.711391,-3.4135747)" />
    <radialGradient
       cx="-55.999996"
       cy="29"
       r="17.5"
       fx="-55.999996"
       fy="29"
       id="radialGradient3847"
       xlink:href="#linearGradient3849"
       gradientUnits="userSpaceOnUse"
       gradientTransform="matrix(1.2571429,0,0,0.97142857,14.4,0.82857156)" />
    <radialGradient
       cx="-69.643715"
       cy="31.597223"
       r="17.5"
       fx="-69.643715"
       fy="31.597223"
       id="radialGradient3857"
       xlink:href="#linearGradient3833"
       gradientUnits="userSpaceOnUse"
       gradientTransform="matrix(1.2777774,-1.5934198e-8,1.3855826e-8,1.1111109,18.711391,-3.4135747)" />
    <clipPath
       id="clipPath4882">
      <path
         d="m 44,58 0,-16 13,8 z"
         inkscape:connector-curvature="0"
         id="path4884"
         style="fill:#ff00ff;fill-opacity:1;stroke:none" />
    </clipPath>
    <filter
       color-interpolation-filters="sRGB"
       id="filter4890">
      <feGaussianBlur
         id="feGaussianBlur4892"
         stdDeviation="0.2175" />
    </filter>
    <radialGradient
       inkscape:collect="always"
       xlink:href="#linearGradient3833"
       id="radialGradient3056"
       gradientUnits="userSpaceOnUse"
       gradientTransform="matrix(-1.3142855,-1.6389464e-8,-1.4251709e-8,1.1428571,-15.531725,8.888887)"
       cx="-69.643715"
       cy="31.597223"
       fx="-69.643715"
       fy="31.597223"
       r="17.5" />
    <radialGradient
       inkscape:collect="always"
       xlink:href="#linearGradient3833"
       id="radialGradient3059"
       gradientUnits="userSpaceOnUse"
       gradientTransform="matrix(1.3142855,-1.6389464e-8,1.4251709e-8,1.1428571,113.53173,8.888887)"
       cx="-67.361107"
       cy="30.722223"
       fx="-67.361107"
       fy="30.722223"
       r="17.5" />
    <radialGradient
       inkscape:collect="always"
       xlink:href="#linearGradient3849"
       id="radialGradient3062"
       gradientUnits="userSpaceOnUse"
       gradientTransform="matrix(1.2571429,0,0,0.97142857,124.4,1.8285716)"
       cx="-55.999996"
       cy="29"
       fx="-55.999996"
       fy="29"
       r="17.5" />
    <linearGradient
       inkscape:collect="always"
       xlink:href="#linearGradient3852-9"
       id="linearGradient3858-0"
       x1="10.585036"
       y1="28.237288"
       x2="1.1978011"
       y2="27.08674"
       gradientUnits="userSpaceOnUse" />
    <linearGradient
       inkscape:collect="always"
       id="linearGradient3852-9">
      <stop
         style="stop-color:#000000;stop-opacity:1;"
         offset="0"
         id="stop3854-3" />
      <stop
         style="stop-color:#000000;stop-opacity:0;"
         offset="1"
         id="stop3856-0" />
    </linearGradient>
    <linearGradient
       id="linearGradient3700-5">
      <stop
         id="stop3702-5"
         style="stop-color:#53aec2;stop-opacity:1"
         offset="0" />
      <stop
         id="stop3704-0"
         style="stop-color:#80c3d2;stop-opacity:1"
         offset="1" />
    </linearGradient>
    <linearGradient
       inkscape:collect="always"
       xlink:href="#linearGradient3852-9"
       id="linearGradient3862-8"
       gradientUnits="userSpaceOnUse"
       x1="10.585036"
       y1="28.237288"
       x2="36.720051"
       y2="28.237288" />
    <clipPath
       id="clipPath4882-6">
      <path
         d="m 44,58 0,-16 13,8 z"
         inkscape:connector-curvature="0"
         id="path4884-0"
         style="fill:#ff00ff;fill-opacity:1;stroke:none" />
    </clipPath>
    <filter
       color-interpolation-filters="sRGB"
       id="filter4890-0">
      <feGaussianBlur
         id="feGaussianBlur4892-6"
         stdDeviation="0.2175" />
    </filter>
    <linearGradient
       y2="28.237288"
       x2="36.720051"
       y1="28.237288"
       x1="10.585036"
       gradientUnits="userSpaceOnUse"
       id="linearGradient3903"
       xlink:href="#linearGradient3852-9"
       inkscape:collect="always" />
    <linearGradient
       inkscape:collect="always"
       xlink:href="#linearGradient3852-9"
       id="linearGradient5416"
       x1="10.585036"
       y1="28.237288"
       x2="36.720051"
       y2="28.237288"
       gradientUnits="userSpaceOnUse" />
    <linearGradient
       inkscape:collect="always"
       xlink:href="#linearGradient3852-9"
       id="linearGradient5420"
       gradientUnits="userSpaceOnUse"
       x1="10.585036"
       y1="28.237288"
       x2="36.720051"
       y2="28.237288" />
    <linearGradient
       inkscape:collect="always"
       xlink:href="#linearGradient3852-9"
       id="linearGradient5432"
       gradientUnits="userSpaceOnUse"
       x1="10.585036"
       y1="28.237288"
       x2="36.720051"
       y2="28.237288" />
    <linearGradient
       inkscape:collect="always"
       xlink:href="#linearGradient3852-9"
       id="linearGradient5434"
       gradientUnits="userSpaceOnUse"
       x1="10.585036"
       y1="28.237288"
       x2="36.720051"
       y2="28.237288" />
    <linearGradient
       inkscape:collect="always"
       xlink:href="#linearGradient3852-9"
       id="linearGradient5440"
       gradientUnits="userSpaceOnUse"
       x1="10.585036"
       y1="28.237288"
       x2="36.720051"
       y2="28.237288" />
    <linearGradient
       inkscape:collect="always"
       xlink:href="#linearGradient3852-9"
       id="linearGradient5442"
       gradientUnits="userSpaceOnUse"
       x1="10.585036"
       y1="28.237288"
       x2="1.1978011"
       y2="27.08674" />
    <linearGradient
       x1="24"
       y1="44"
       x2="24"
       y2="3.8989999"
       id="linearGradient3173"
       gradientUnits="userSpaceOnUse"
       gradientTransform="matrix(2.641026,0,0,2.641026,0.6153903,-60.384616)">
      <stop
         id="stop2492"
         style="stop-color:#791235;stop-opacity:1"
         offset="0" />
      <stop
         id="stop2494"
         style="stop-color:#bf1d09;stop-opacity:1"
         offset="1" />
    </linearGradient>
    <linearGradient
       x1="24"
       y1="44"
       x2="24"
       y2="3.8989999"
       id="linearGradient3334"
       gradientUnits="userSpaceOnUse"
       gradientTransform="matrix(2.641026,0,0,2.641026,0.6153903,-60.384616)">
      <stop
         id="stop3336"
         style="stop-color:#791235;stop-opacity:1"
         offset="0" />
      <stop
         id="stop3338"
         style="stop-color:#bf1d09;stop-opacity:1"
         offset="1" />
    </linearGradient>
    <linearGradient
       x1="24"
       y1="44"
       x2="24"
       y2="3.8989999"
       id="linearGradient3341"
       gradientUnits="userSpaceOnUse"
       gradientTransform="matrix(2.641026,0,0,2.641026,0.6153903,-60.384616)">
      <stop
         id="stop3343"
         style="stop-color:#791235;stop-opacity:1"
         offset="0" />
      <stop
         id="stop3345"
         style="stop-color:#bf1d09;stop-opacity:1"
         offset="1" />
    </linearGradient>
    <linearGradient
       x1="24"
       y1="44"
       x2="24"
       y2="3.8989999"
       id="linearGradient3348"
       gradientUnits="userSpaceOnUse"
       gradientTransform="matrix(2.641026,0,0,2.641026,0.6153903,-60.384616)">
      <stop
         id="stop3350"
         style="stop-color:#791235;stop-opacity:1"
         offset="0" />
      <stop
         id="stop3352"
         style="stop-color:#bf1d09;stop-opacity:1"
         offset="1" />
    </linearGradient>
    <linearGradient
       inkscape:collect="always"
       xlink:href="#linearGradient3173"
       id="linearGradient3226"
       gradientUnits="userSpaceOnUse"
       x1="599.3125"
       y1="475.11456"
       x2="599.3125"
       y2="448.88541"
       gradientTransform="matrix(2.1221611,0,0,1.5250207,-1230.9851,-632.55958)" />
    <linearGradient
       x1="24"
       y1="44"
       x2="24"
       y2="3.8989999"
       id="linearGradient3355"
       gradientUnits="userSpaceOnUse"
       gradientTransform="matrix(2.641026,0,0,2.641026,0.6153903,-60.384616)">
      <stop
         id="stop3357"
         style="stop-color:#791235;stop-opacity:1"
         offset="0" />
      <stop
         id="stop3359"
         style="stop-color:#bf1d09;stop-opacity:1"
         offset="1" />
    </linearGradient>
    <linearGradient
       inkscape:collect="always"
       xlink:href="#linearGradient3173"
       id="linearGradient3228"
       gradientUnits="userSpaceOnUse"
       x1="599.3125"
       y1="475.11456"
       x2="599.3125"
       y2="448.88541"
       gradientTransform="matrix(2.1221611,0,0,1.5250207,-1230.9851,-632.55958)" />
    <linearGradient
       x1="24"
       y1="44"
       x2="24"
       y2="3.8989999"
       id="linearGradient3362"
       gradientUnits="userSpaceOnUse"
       gradientTransform="matrix(2.641026,0,0,2.641026,0.6153903,-60.384616)">
      <stop
         id="stop3364"
         style="stop-color:#791235;stop-opacity:1"
         offset="0" />
      <stop
         id="stop3366"
         style="stop-color:#bf1d09;stop-opacity:1"
         offset="1" />
    </linearGradient>
    <linearGradient
       inkscape:collect="always"
       xlink:href="#linearGradient3700-5"
       id="linearGradient5524"
       gradientUnits="userSpaceOnUse"
       gradientTransform="translate(0.28763666,0)"
       x1="38.980827"
       y1="48.169754"
       x2="63.767696"
       y2="48.169754" />
    <linearGradient
       inkscape:collect="always"
       xlink:href="#linearGradient3737"
       id="linearGradient5527"
       gradientUnits="userSpaceOnUse"
       gradientTransform="matrix(1.2115302,0,0,1.1074576,-687.52091,-462.74946)"
       x1="599.3125"
       y1="475.11456"
       x2="599.3125"
       y2="448.88541" />
    <linearGradient
       inkscape:collect="always"
       xlink:href="#linearGradient3173"
       id="linearGradient5529"
       gradientUnits="userSpaceOnUse"
       gradientTransform="matrix(1.2115302,0,0,1.1074576,-687.52091,-462.74946)"
       x1="599.3125"
       y1="475.11456"
       x2="599.3125"
       y2="448.88541" />
    <linearGradient
       inkscape:collect="always"
       xlink:href="#linearGradient3700-5"
       id="linearGradient5532"
       gradientUnits="userSpaceOnUse"
       gradientTransform="matrix(1.3357897,0,0,1.1074576,-763.40509,-462.02327)"
       x1="599.3125"
       y1="475.11456"
       x2="599.3125"
       y2="448.88541" />
    <linearGradient
       inkscape:collect="always"
       xlink:href="#linearGradient3173"
       id="linearGradient5534"
       gradientUnits="userSpaceOnUse"
       gradientTransform="matrix(1.3357897,0,0,1.1074576,-763.40509,-462.02327)"
       x1="599.3125"
       y1="475.11456"
       x2="599.3125"
       y2="448.88541" />
    <linearGradient
       inkscape:collect="always"
       xlink:href="#ButtonShadow"
       id="linearGradient5537"
       gradientUnits="userSpaceOnUse"
       gradientTransform="matrix(1.4600492,0,0,1.1074576,-839.28927,-461.29708)"
       x1="599.3125"
       y1="475.11456"
       x2="599.3125"
       y2="448.88541" />
    <linearGradient
       inkscape:collect="always"
       xlink:href="#linearGradient3173"
       id="linearGradient5539"
       gradientUnits="userSpaceOnUse"
       gradientTransform="matrix(1.4600492,0,0,1.1074576,-839.28927,-461.29708)"
       x1="599.3125"
       y1="475.11456"
       x2="599.3125"
       y2="448.88541" />
  </defs>
  <metadata
     id="metadata2413">
    <rdf:RDF>
      <cc:Work
         rdf:about="">
        <dc:format>image/svg+xml</dc:format>
        <dc:type
           rdf:resource="http://purl.org/dc/dcmitype/StillImage" />
        <dc:title></dc:title>
      </cc:Work>
    </rdf:RDF>
  </metadata>
  <g
     id="layer2"
     style="display:none">
    <rect
       width="86"
       height="85"
       rx="6"
       ry="6"
       x="5"
       y="7"
       id="rect3745"
       style="opacity:0.9;fill:url(#ButtonShadow);fill-opacity:1;fill-rule:nonzero;stroke:none;filter:url(#filter3174)" />
  </g>
  <g
     id="layer3">
    <path
       d="m 12,-95.03125 c -5.5110903,0 -10.03125,4.52016 -10.03125,10.03125 l 0,71 c 0,5.5110902 4.5201598,10.03125 10.03125,10.03125 l 72,0 c 5.51109,0 10.03125,-4.5201597 10.03125,-10.03125 l 0,-71 c 0,-5.51109 -4.52016,-10.03125 -10.03125,-10.03125 l -72,0 z"
       transform="scale(1,-1)"
       id="path3786"
       style="opacity:0.07999998;fill:url(#linearGradient3026);fill-opacity:1;fill-rule:nonzero;stroke:none;display:inline" />
    <path
       d="m 12,-94.03125 c -4.971633,0 -9.03125,4.059617 -9.03125,9.03125 l 0,71 c 0,4.9716329 4.0596171,9.03125 9.03125,9.03125 l 72,0 c 4.971633,0 9.03125,-4.059617 9.03125,-9.03125 l 0,-71 c 0,-4.971633 -4.059617,-9.03125 -9.03125,-9.03125 l -72,0 z"
       transform="scale(1,-1)"
       id="path3778"
       style="opacity:0.1;fill:url(#linearGradient3780);fill-opacity:1;fill-rule:nonzero;stroke:none;display:inline" />
    <path
       d="m 12,-93 c -4.4091333,0 -8,3.590867 -8,8 l 0,71 c 0,4.4091333 3.5908667,8 8,8 l 72,0 c 4.409133,0 8,-3.5908667 8,-8 l 0,-71 c 0,-4.409133 -3.590867,-8 -8,-8 l -72,0 z"
       transform="scale(1,-1)"
       id="path3770"
       style="opacity:0.2;fill:url(#linearGradient3772);fill-opacity:1;fill-rule:nonzero;stroke:none;display:inline" />
    <rect
       width="86"
       height="85"
       rx="7"
       ry="7"
       x="5"
       y="-92"
       transform="scale(1,-1)"
       id="rect3723"
       style="opacity:0.3;fill:url(#linearGradient3725);fill-opacity:1;fill-rule:nonzero;stroke:none;display:inline" />
    <rect
       width="84"
       height="84"
       rx="6"
       ry="6"
       x="6"
       y="-91"
       transform="scale(1,-1)"
       id="rect3716"
       style="opacity:0.45;fill:url(#linearGradient3721);fill-opacity:1;fill-rule:nonzero;stroke:none;display:inline" />
  </g>
  <g
     id="layer1">
    <rect
       width="84"
       height="84"
       rx="6"
       ry="6"
       x="6"
       y="6"
       id="rect2419"
       style="fill:url(#linearGradient3617);fill-opacity:1;fill-rule:nonzero;stroke:none" />
    <path
       d="M 12,6 C 8.676,6 6,8.676 6,12 l 0,2 0,68 0,2 c 0,0.334721 0.04135,0.6507 0.09375,0.96875 0.0487,0.295596 0.09704,0.596915 0.1875,0.875 0.00988,0.03038 0.020892,0.0636 0.03125,0.09375 0.098865,0.287771 0.2348802,0.547452 0.375,0.8125 0.1445918,0.273507 0.3156161,0.535615 0.5,0.78125 0.1843839,0.245635 0.3737765,0.473472 0.59375,0.6875 0.439947,0.428056 0.94291,0.814526 1.5,1.09375 0.278545,0.139612 0.5734731,0.246947 0.875,0.34375 -0.2562018,-0.100222 -0.4867109,-0.236272 -0.71875,-0.375 -0.00741,-0.0044 -0.023866,0.0045 -0.03125,0 -0.031933,-0.0193 -0.062293,-0.04251 -0.09375,-0.0625 -0.120395,-0.0767 -0.2310226,-0.163513 -0.34375,-0.25 -0.1061728,-0.0808 -0.2132809,-0.161112 -0.3125,-0.25 C 8.4783201,88.557317 8.3087904,88.373362 8.15625,88.1875 8.0486711,88.057245 7.9378561,87.922215 7.84375,87.78125 7.818661,87.74287 7.805304,87.69538 7.78125,87.65625 7.716487,87.553218 7.6510225,87.451733 7.59375,87.34375 7.4927417,87.149044 7.3880752,86.928049 7.3125,86.71875 7.30454,86.69694 7.288911,86.6782 7.28125,86.65625 7.2494249,86.5643 7.2454455,86.469419 7.21875,86.375 7.1884177,86.268382 7.1483606,86.171969 7.125,86.0625 7.0521214,85.720988 7,85.364295 7,85 L 7,83 7,15 7,13 C 7,10.218152 9.2181517,8 12,8 l 2,0 68,0 2,0 c 2.781848,0 5,2.218152 5,5 l 0,2 0,68 0,2 c 0,0.364295 -0.05212,0.720988 -0.125,1.0625 -0.04415,0.206893 -0.08838,0.397658 -0.15625,0.59375 -0.0077,0.02195 -0.0233,0.04069 -0.03125,0.0625 -0.06274,0.173739 -0.138383,0.367449 -0.21875,0.53125 -0.04158,0.0828 -0.07904,0.169954 -0.125,0.25 -0.0546,0.09721 -0.126774,0.18835 -0.1875,0.28125 -0.09411,0.140965 -0.204921,0.275995 -0.3125,0.40625 -0.143174,0.17445 -0.303141,0.346998 -0.46875,0.5 -0.01117,0.0102 -0.01998,0.02115 -0.03125,0.03125 -0.138386,0.125556 -0.285091,0.234436 -0.4375,0.34375 -0.102571,0.07315 -0.204318,0.153364 -0.3125,0.21875 -0.0074,0.0045 -0.02384,-0.0044 -0.03125,0 -0.232039,0.138728 -0.462548,0.274778 -0.71875,0.375 0.301527,-0.0968 0.596455,-0.204138 0.875,-0.34375 0.55709,-0.279224 1.060053,-0.665694 1.5,-1.09375 0.219973,-0.214028 0.409366,-0.441865 0.59375,-0.6875 0.184384,-0.245635 0.355408,-0.507743 0.5,-0.78125 0.14012,-0.265048 0.276135,-0.524729 0.375,-0.8125 0.01041,-0.03078 0.02133,-0.06274 0.03125,-0.09375 0.09046,-0.278085 0.1388,-0.579404 0.1875,-0.875 C 89.95865,84.6507 90,84.334721 90,84 l 0,-2 0,-68 0,-2 C 90,8.676 87.324,6 84,6 L 12,6 z"
       inkscape:connector-curvature="0"
       id="rect3728"
       style="opacity:0.35;fill:url(#linearGradient3188);fill-opacity:1;fill-rule:nonzero;stroke:none" />
    <path
       d="M 12,90 C 8.676,90 6,87.324 6,84 L 6,82 6,14 6,12 c 0,-0.334721 0.04135,-0.6507 0.09375,-0.96875 0.0487,-0.295596 0.09704,-0.596915 0.1875,-0.875 C 6.29113,10.12587 6.302142,10.09265 6.3125,10.0625 6.411365,9.774729 6.5473802,9.515048 6.6875,9.25 6.8320918,8.976493 7.0031161,8.714385 7.1875,8.46875 7.3718839,8.223115 7.5612765,7.995278 7.78125,7.78125 8.221197,7.353194 8.72416,6.966724 9.28125,6.6875 9.559795,6.547888 9.8547231,6.440553 10.15625,6.34375 9.9000482,6.443972 9.6695391,6.580022 9.4375,6.71875 c -0.00741,0.0044 -0.023866,-0.0045 -0.03125,0 -0.031933,0.0193 -0.062293,0.04251 -0.09375,0.0625 -0.120395,0.0767 -0.2310226,0.163513 -0.34375,0.25 -0.1061728,0.0808 -0.2132809,0.161112 -0.3125,0.25 C 8.4783201,7.442683 8.3087904,7.626638 8.15625,7.8125 8.0486711,7.942755 7.9378561,8.077785 7.84375,8.21875 7.818661,8.25713 7.805304,8.30462 7.78125,8.34375 7.716487,8.446782 7.6510225,8.548267 7.59375,8.65625 7.4927417,8.850956 7.3880752,9.071951 7.3125,9.28125 7.30454,9.30306 7.288911,9.3218 7.28125,9.34375 7.2494249,9.4357 7.2454455,9.530581 7.21875,9.625 7.1884177,9.731618 7.1483606,9.828031 7.125,9.9375 7.0521214,10.279012 7,10.635705 7,11 l 0,2 0,68 0,2 c 0,2.781848 2.2181517,5 5,5 l 2,0 68,0 2,0 c 2.781848,0 5,-2.218152 5,-5 l 0,-2 0,-68 0,-2 C 89,10.635705 88.94788,10.279012 88.875,9.9375 88.83085,9.730607 88.78662,9.539842 88.71875,9.34375 88.71105,9.3218 88.69545,9.30306 88.6875,9.28125 88.62476,9.107511 88.549117,8.913801 88.46875,8.75 88.42717,8.6672 88.38971,8.580046 88.34375,8.5 88.28915,8.40279 88.216976,8.31165 88.15625,8.21875 88.06214,8.077785 87.951329,7.942755 87.84375,7.8125 87.700576,7.63805 87.540609,7.465502 87.375,7.3125 87.36383,7.3023 87.35502,7.29135 87.34375,7.28125 87.205364,7.155694 87.058659,7.046814 86.90625,6.9375 86.803679,6.86435 86.701932,6.784136 86.59375,6.71875 c -0.0074,-0.0045 -0.02384,0.0044 -0.03125,0 -0.232039,-0.138728 -0.462548,-0.274778 -0.71875,-0.375 0.301527,0.0968 0.596455,0.204138 0.875,0.34375 0.55709,0.279224 1.060053,0.665694 1.5,1.09375 0.219973,0.214028 0.409366,0.441865 0.59375,0.6875 0.184384,0.245635 0.355408,0.507743 0.5,0.78125 0.14012,0.265048 0.276135,0.524729 0.375,0.8125 0.01041,0.03078 0.02133,0.06274 0.03125,0.09375 0.09046,0.278085 0.1388,0.579404 0.1875,0.875 C 89.95865,11.3493 90,11.665279 90,12 l 0,2 0,68 0,2 c 0,3.324 -2.676,6 -6,6 l -72,0 z"
       inkscape:connector-curvature="0"
       id="path3615"
       style="opacity:0.2;fill:url(#radialGradient3619);fill-opacity:1;fill-rule:nonzero;stroke:none" />
  </g>
  <g
     id="layer5">
    <rect
       width="66"
       height="66"
       rx="12"
       ry="12"
       x="15"
       y="15"
       clip-path="url(#clipPath3613)"
       id="rect3171"
       style="opacity:0.1;fill:url(#linearGradient3613);fill-opacity:1;fill-rule:nonzero;stroke:#ffffff;stroke-width:0.5;stroke-linecap:round;stroke-linejoin:miter;stroke-miterlimit:4;stroke-opacity:1;stroke-dasharray:none;stroke-dashoffset:0;filter:url(#filter3794)" />
  </g>
  <path
     style="opacity:0.05;color:#000000;fill:#000000;fill-opacity:1;fill-rule:nonzero;stroke:none;stroke-width:1.5;marker:none;visibility:visible;display:inline;overflow:visible;enable-background:accumulate"
     id="path3834"
     inkscape:connector-curvature="0"
     d="m 38,61.96875 c -5.163712,0 -9.807038,0.45712 -13.375,1.25 -1.786319,0.396959 -3.338473,0.884319 -4.625,1.5625 -0.602703,0.317709 -1.254128,0.73143 -1.84375,1.375 -0.60617,0.661632 -1.1875,1.627267 -1.1875,2.84375 0,1.216483 0.58133,2.182118 1.1875,2.84375 0.589622,0.64357 1.241047,1.057291 1.84375,1.375 1.286527,0.678181 2.838681,1.165541 4.625,1.5625 3.567962,0.79288 8.211288,1.25 13.375,1.25 l 22,0 c 5.163712,0 9.807038,-0.45712 13.375,-1.25 1.786319,-0.396959 3.338473,-0.884319 4.625,-1.5625 0.602703,-0.317709 1.254128,-0.73143 1.84375,-1.375 0.60617,-0.661632 1.1875,-1.627267 1.1875,-2.84375 0,-1.216483 -0.58133,-2.182118 -1.1875,-2.84375 -0.589622,-0.64357 -1.241047,-1.057291 -1.84375,-1.375 -1.286527,-0.678181 -2.838681,-1.165541 -4.625,-1.5625 -3.567962,-0.79288 -8.211288,-1.25 -13.375,-1.25 l -22,0 z" />
  <path
     inkscape:connector-curvature="0"
     style="opacity:0.1;color:#000000;fill:#000000;fill-opacity:1;fill-rule:nonzero;stroke:none;stroke-width:1.5;marker:none;visibility:visible;display:inline;overflow:visible;enable-background:accumulate"
     id="path3830"
     d="m 38,62.96875 c -5.105708,0 -9.689364,0.448331 -13.15625,1.21875 -1.736389,0.385864 -3.209309,0.854267 -4.375,1.46875 -0.564443,0.297541 -1.117288,0.636194 -1.59375,1.15625 -0.486861,0.531407 -0.90625,1.274424 -0.90625,2.1875 0,0.913076 0.419389,1.656093 0.90625,2.1875 0.476462,0.520056 1.029307,0.858709 1.59375,1.15625 1.165691,0.614483 2.638611,1.082886 4.375,1.46875 3.466886,0.770419 8.050542,1.21875 13.15625,1.21875 l 22,0 c 5.105708,0 9.689364,-0.448331 13.15625,-1.21875 1.736389,-0.385864 3.209309,-0.854267 4.375,-1.46875 0.564443,-0.297541 1.117288,-0.636194 1.59375,-1.15625 0.486861,-0.531407 0.90625,-1.274424 0.90625,-2.1875 0,-0.913076 -0.419389,-1.656093 -0.90625,-2.1875 -0.476462,-0.520056 -1.029307,-0.858709 -1.59375,-1.15625 -1.165691,-0.614483 -2.638611,-1.082886 -4.375,-1.46875 C 69.689364,63.417081 65.105708,62.96875 60,62.96875 l -22,0 z" />
  <path
     inkscape:connector-curvature="0"
     style="opacity:0.15;color:#000000;fill:#000000;fill-opacity:1;fill-rule:nonzero;stroke:none;stroke-width:1.5;marker:none;visibility:visible;display:inline;overflow:visible;enable-background:accumulate"
     id="path3826"
     d="m 38,64.03125 c -5.043374,0 -9.5824,0.441922 -12.9375,1.1875 -1.67755,0.372789 -3.057006,0.82849 -4.09375,1.375 -0.518372,0.273255 -0.963195,0.556235 -1.3125,0.9375 -0.349305,0.381265 -0.625,0.901292 -0.625,1.46875 0,0.567458 0.275695,1.087485 0.625,1.46875 0.349305,0.381265 0.794128,0.664245 1.3125,0.9375 1.036744,0.54651 2.4162,1.002211 4.09375,1.375 3.3551,0.745578 7.894126,1.1875 12.9375,1.1875 l 22,0 c 5.043374,0 9.5824,-0.441922 12.9375,-1.1875 1.67755,-0.372789 3.057006,-0.82849 4.09375,-1.375 0.518372,-0.273255 0.963195,-0.556235 1.3125,-0.9375 0.349305,-0.381265 0.625,-0.901292 0.625,-1.46875 0,-0.567458 -0.275695,-1.087485 -0.625,-1.46875 -0.349305,-0.381265 -0.794128,-0.664245 -1.3125,-0.9375 -1.036744,-0.54651 -2.4162,-1.002211 -4.09375,-1.375 C 69.5824,64.473172 65.043374,64.03125 60,64.03125 l -22,0 z" />
  <rect
     style="opacity:0.3;color:#000000;fill:#000000;fill-opacity:1;fill-rule:nonzero;stroke:none;stroke-width:1.5;marker:none;visibility:visible;display:inline;overflow:visible;enable-background:accumulate"
     id="rect3869"
     y="65"
     x="20"
     ry="4"
     rx="18"
     height="8"
     width="58" />
  <rect
     style="color:#000000;fill:#ffffff;fill-opacity:1;fill-rule:nonzero;stroke:none;stroke-width:1.5;marker:none;visibility:visible;display:inline;overflow:visible;enable-background:accumulate"
     id="rect3831"
     y="56"
     x="31"
     height="14.000006"
     width="36" />
  <path
     inkscape:connector-curvature="0"
     style="color:#000000;fill:url(#radialGradient3062);fill-opacity:1;fill-rule:nonzero;stroke:none;stroke-width:1.5;marker:none;visibility:visible;display:inline;overflow:visible;enable-background:accumulate"
     id="path3823"
     d="m 65,39.5 a 17.5,17.5 0 0 1 -35,0 17.5,17.5 0 1 1 35,0 z" />
  <path
     inkscape:connector-curvature="0"
     style="color:#000000;fill:url(#radialGradient3059);fill-opacity:1;fill-rule:nonzero;stroke:none;stroke-width:1.5;marker:none;visibility:visible;display:inline;overflow:visible;enable-background:accumulate"
     id="path3825"
     d="m 48.000003,52 a 18.000003,18.000003 0 0 1 -36.000006,0 18.000003,18.000003 0 1 1 36.000006,0 z" />
  <path
     inkscape:connector-curvature="0"
     style="color:#000000;fill:url(#radialGradient3056);fill-opacity:1;fill-rule:nonzero;stroke:none;stroke-width:1.5;marker:none;visibility:visible;display:inline;overflow:visible;enable-background:accumulate"
     id="path3855"
     d="m 50.000002,52 a 18.000003,18.000003 0 0 0 36.000006,0 18.000003,18.000003 0 1 0 -36.000006,0 z" />
  <path
     d="m 36.18185,64.509068 0,-28.321478 32.336044,14.160739 z"
     id="path5235"
     style="opacity:0.06000001000000000;fill:url(#linearGradient5537);fill-opacity:1.0;fill-rule:evenodd;stroke:url(#linearGradient5539);stroke-width:0.70683861000000003;stroke-linejoin:round;stroke-miterlimit:4;stroke-opacity:1;stroke-dasharray:none"
     inkscape:connector-curvature="0" />
  <path
     d="m 37.55787,63.782877 0,-28.321478 29.584042,14.160739 z"
     id="path5229"
     style="opacity:0.12000002000000000;fill:url(#linearGradient5532);fill-opacity:1.0;fill-rule:evenodd;stroke:url(#linearGradient5534);stroke-width:0.70683861000000003;stroke-linejoin:round;stroke-miterlimit:4;stroke-opacity:1;stroke-dasharray:none"
     inkscape:connector-curvature="0" />
  <path
     d="m 38.93385,63.056685 0,-28.321478 26.832037,14.160739 z"
     id="path5221"
     style="opacity:0.25000000000000000;fill:url(#linearGradient5527);fill-opacity:1.0;fill-rule:evenodd;stroke:url(#linearGradient5529);stroke-width:0.70683861000000003;stroke-linejoin:round;stroke-miterlimit:4;stroke-opacity:1;stroke-dasharray:none"
     inkscape:connector-curvature="0" />
  <path
     d="m 39.621883,62.330493 0,-28.321478 24.080033,14.160739 z"
     id="path5219"
     style="fill:url(#linearGradient5524);fill-opacity:1;fill-rule:evenodd;stroke:#ffffff;stroke-width:0.70683861;stroke-linejoin:round;stroke-miterlimit:4;stroke-opacity:1;stroke-dasharray:none"
     inkscape:connector-curvature="0" />
</svg>
