<?xml version="1.0" encoding="UTF-8" standalone="no"?>
<!-- Created with Inkscape (http://www.inkscape.org/) -->

<svg
   xmlns:dc="http://purl.org/dc/elements/1.1/"
   xmlns:cc="http://creativecommons.org/ns#"
   xmlns:rdf="http://www.w3.org/1999/02/22-rdf-syntax-ns#"
   xmlns:svg="http://www.w3.org/2000/svg"
   xmlns="http://www.w3.org/2000/svg"
   xmlns:xlink="http://www.w3.org/1999/xlink"
   xmlns:sodipodi="http://sodipodi.sourceforge.net/DTD/sodipodi-0.dtd"
   xmlns:inkscape="http://www.inkscape.org/namespaces/inkscape"
   width="22"
   height="22"
   id="svg3250"
   version="1.1"
   inkscape:version="0.48.3.1 r9886"
   sodipodi:docname="caffeine-cup-full.svg">
  <defs
     id="defs3252">
    <linearGradient
       id="linearGradient3678">
      <stop
         style="stop-color:#ffffff;stop-opacity:1;"
         offset="0"
         id="stop3680" />
      <stop
         style="stop-color:#e6e6e6;stop-opacity:1;"
         offset="1"
         id="stop3682" />
    </linearGradient>
    <linearGradient
       inkscape:collect="always"
       xlink:href="#linearGradient3678"
       id="linearGradient4157"
       x1="341.23358"
       y1="265.13657"
       x2="341.23358"
       y2="282.28528"
       gradientUnits="userSpaceOnUse"
       gradientTransform="matrix(0.78512451,0,0,0.62935541,74.232537,101.65064)" />
    <linearGradient
       inkscape:collect="always"
       xlink:href="#linearGradient3678"
       id="linearGradient3784"
       x1="341.31662"
       y1="267.60748"
       x2="341.31662"
       y2="281.36218"
       gradientUnits="userSpaceOnUse" />
    <linearGradient
       inkscape:collect="always"
       xlink:href="#linearGradient3678"
       id="linearGradient2997"
       gradientUnits="userSpaceOnUse"
       x1="341.31662"
       y1="267.60748"
       x2="341.31662"
       y2="281.36218" />
    <linearGradient
       inkscape:collect="always"
       xlink:href="#linearGradient3678"
       id="linearGradient2999"
       gradientUnits="userSpaceOnUse"
       x1="341.31662"
       y1="267.60748"
       x2="341.31662"
       y2="281.36218" />
    <linearGradient
       inkscape:collect="always"
       xlink:href="#linearGradient3678"
       id="linearGradient3001"
       gradientUnits="userSpaceOnUse"
       x1="341.31662"
       y1="267.60748"
       x2="341.31662"
       y2="281.36218" />
  </defs>
  <sodipodi:namedview
     id="base"
     pagecolor="#ffffff"
     bordercolor="#666666"
     borderopacity="1.0"
     inkscape:pageopacity="0.0"
     inkscape:pageshadow="2"
     inkscape:zoom="14.854167"
     inkscape:cx="-4.3366064"
     inkscape:cy="9.9157669"
     inkscape:document-units="px"
     inkscape:current-layer="layer1"
     showgrid="true"
     fit-margin-top="0"
     fit-margin-left="0"
     fit-margin-right="0"
     fit-margin-bottom="0"
     gridtolerance="1"
     inkscape:window-width="1366"
     inkscape:window-height="742"
     inkscape:window-x="0"
     inkscape:window-y="0"
     inkscape:window-maximized="1">
    <inkscape:grid
       type="xygrid"
       id="grid4212"
       empspacing="5"
       visible="true"
       enabled="true"
       snapvisiblegridlinesonly="true" />
  </sodipodi:namedview>
  <metadata
     id="metadata3255">
    <rdf:RDF>
      <cc:Work
         rdf:about="">
        <dc:format>image/svg+xml</dc:format>
        <dc:type
           rdf:resource="http://purl.org/dc/dcmitype/StillImage" />
        <dc:title></dc:title>
      </cc:Work>
    </rdf:RDF>
  </metadata>
  <g
     inkscape:label="Capa 1"
     inkscape:groupmode="layer"
     id="layer1"
     transform="translate(-331.85715,-261.36218)">
    <path
       style="opacity:0.5;color:#000000;fill:#000000;fill-opacity:1;fill-rule:nonzero;stroke:none;stroke-width:0.99999982;marker:none;visibility:visible;display:inline;overflow:visible;enable-background:accumulate"
       d="m 342.22885,270.9388 c -3.47119,0 -6.27374,0.74344 -6.27374,1.65512 0,0.12254 0.0587,0.25143 0.15555,0.3678 0.0777,0.0933 0.17797,0.17979 0.31109,0.26564 0.87635,-0.62588 3.15854,-0.98081 5.85895,-0.98081 2.64303,0 4.89068,0.33485 5.8071,0.93995 0.0988,-0.0685 0.19366,-0.13117 0.25924,-0.20434 -0.26885,0.71915 -2.90521,1.02168 -6.11819,1.02168 -3.24676,0 -5.89619,-0.29762 -6.11819,-1.04212 -0.0591,0.0475 -0.12314,0.0708 -0.15555,0.12261 0,3.12113 2.09607,7.00872 6.19596,7.00872 2.3778,0 4.01137,-1.12852 5.02937,-2.65637 l -0.0259,0.22478 1.84065,0 c 1.54291,0 1.32529,-0.63502 1.52954,-1.40993 l 0.23333,-0.87864 c 0.20426,-0.77491 0.29622,-1.38948 -0.82959,-1.38948 l -1.4777,0 c 0.0374,-0.30014 0.0716,-0.60572 0.0777,-0.89908 0,-0.0627 -0.0502,-0.10537 -0.12962,-0.16348 0.0813,-0.10563 0.12962,-0.21642 0.12962,-0.32693 0,-0.91168 -2.82848,-1.65512 -6.29966,-1.65512 z m 6.99963,4.27063 c 0.0577,0.004 0.0866,0.0318 0.0518,0.16346 l -0.23332,0.87864 c -0.0694,0.26339 -0.29438,0.18391 -0.51849,0.18391 l -0.75181,0 c 0.17424,-0.38521 0.30311,-0.80065 0.41479,-1.20559 l 0.80366,0 c 0.11205,0 0.17554,-0.0255 0.23333,-0.0204 z"
       id="path4798-0"
       inkscape:connector-curvature="0" />
    <path
       style="opacity:0.98999999;color:#000000;fill:url(#linearGradient4157);fill-opacity:1;fill-rule:nonzero;stroke:none;stroke-width:0.99999982;marker:none;visibility:visible;display:inline;overflow:visible;enable-background:accumulate"
       d="m 342.22885,269.89259 c -3.47119,0 -6.27374,0.76668 -6.27374,1.70686 0,0.12636 0.0587,0.25929 0.15555,0.37929 0.0777,0.0962 0.17797,0.18541 0.31109,0.27393 0.87635,-0.64543 3.15854,-0.83167 5.85895,-0.83167 2.64303,0 4.89068,0.16552 5.8071,0.78953 0.0988,-0.0706 0.19366,-0.13528 0.25924,-0.21072 -0.26885,0.74162 -2.90521,1.8225 -6.11819,1.8225 -3.24676,0 -5.89619,-1.07579 -6.11819,-1.84357 -0.0591,0.049 -0.12314,0.0941 -0.15555,0.1475 0,3.21867 2.09607,7.20668 6.19596,7.20668 2.3778,0 4.01137,-1.16377 5.02937,-2.73938 l -0.0259,0.2318 1.84065,0 c 1.54291,0 1.32529,-0.63378 1.52954,-1.43291 l 0.23333,-0.90611 c 0.20426,-0.79912 0.29622,-1.4329 -0.82959,-1.4329 l -1.4777,0 c 0.0374,-0.30951 0.0716,-0.62464 0.0777,-0.92718 0,-0.0647 -0.0502,-0.12973 -0.12962,-0.18965 0.0813,-0.10893 0.12962,-0.22319 0.12962,-0.33714 0,-0.94018 -2.82848,-1.70686 -6.29966,-1.70686 z m 6.99963,4.40408 c 0.0577,0.005 0.0866,0.0538 0.0518,0.18965 l -0.23332,0.90611 c -0.0694,0.27162 -0.29438,0.16858 -0.51849,0.16858 l -0.75181,0 c 0.17424,-0.39726 0.30311,-0.82568 0.41479,-1.24326 l 0.80366,0 c 0.11205,0 0.17554,-0.0263 0.23333,-0.0211 z"
       id="path4798"
       inkscape:connector-curvature="0"
       sodipodi:nodetypes="ssccsccsccsccsccscccsscccsccscc" />
  </g>
</svg>
