<?xml version="1.0" encoding="UTF-8" standalone="no"?>
<!-- Created with Inkscape (http://www.inkscape.org/) -->

<svg
   xmlns:dc="http://purl.org/dc/elements/1.1/"
   xmlns:cc="http://creativecommons.org/ns#"
   xmlns:rdf="http://www.w3.org/1999/02/22-rdf-syntax-ns#"
   xmlns:svg="http://www.w3.org/2000/svg"
   xmlns="http://www.w3.org/2000/svg"
   xmlns:sodipodi="http://sodipodi.sourceforge.net/DTD/sodipodi-0.dtd"
   xmlns:inkscape="http://www.inkscape.org/namespaces/inkscape"
   width="48"
   height="48"
   id="svg2"
   version="1.1"
   inkscape:version="0.48.4 r9939"
   sodipodi:docname="opera-next-browser.svg">
  <defs
     id="defs4" />
  <sodipodi:namedview
     id="base"
     pagecolor="#ffffff"
     bordercolor="#666666"
     borderopacity="1.0"
     inkscape:pageopacity="0.0"
     inkscape:pageshadow="2"
     inkscape:zoom="5.6989126"
     inkscape:cx="-13.69068"
     inkscape:cy="20.414861"
     inkscape:document-units="px"
     inkscape:current-layer="layer1"
     showgrid="false"
     inkscape:window-width="1366"
     inkscape:window-height="719"
     inkscape:window-x="0"
     inkscape:window-y="22"
     inkscape:window-maximized="1" />
  <metadata
     id="metadata7">
    <rdf:RDF>
      <cc:Work
         rdf:about="">
        <dc:format>image/svg+xml</dc:format>
        <dc:type
           rdf:resource="http://purl.org/dc/dcmitype/StillImage" />
        <dc:title></dc:title>
      </cc:Work>
    </rdf:RDF>
  </metadata>
  <g
     inkscape:label="Capa 1"
     inkscape:groupmode="layer"
     id="layer1"
     transform="translate(0,-1004.3622)">
    <path
       id="path4222"
       d="m 30.924454,1017.4062 c -1.905003,-1.3171 -4.261892,-2.044 -6.920144,-2.044 -2.431318,0 -4.610336,0.6074 -6.422178,1.7182 -3.490905,2.1169 -5.639755,6.0797 -5.639755,11.1576 0,6.8688 4.822354,13.1242 12.057127,13.1242 7.236762,0 12.058118,-6.2554 12.058118,-13.1242 0,-4.8276 -1.942799,-8.6478 -5.13383,-10.8316 z m -6.921139,0.2529 c 3.88129,0 4.670676,5.4159 4.670676,10.334 0,4.5552 -0.43912,10.6544 -4.6231,10.6544 -4.184146,0 -4.725047,-6.1586 -4.725047,-10.7141 6.62e-4,-4.9166 0.796348,-10.2735 4.678135,-10.2735 z"
       style="fill:none;fill-opacity:0.49803922000000000;stroke:#ffffff;stroke-opacity:1;stroke-width:0.50000000000000000;stroke-miterlimit:4;stroke-dasharray:none"
       inkscape:connector-curvature="0" />
    <path
       id="path4222-4"
       d="m 30.437712,1017.0156 c -1.905003,-1.3171 -4.261892,-2.044 -6.920144,-2.044 -2.431318,0 -4.610336,0.6074 -6.422178,1.7182 -3.490905,2.1169 -5.639755,6.0797 -5.639755,11.1576 0,6.8688 4.822354,13.1242 12.057127,13.1242 7.236762,0 12.058118,-6.2554 12.058118,-13.1242 0,-4.8276 -1.942799,-8.6478 -5.13383,-10.8316 z m -6.921139,0.2529 c 3.88129,0 4.670676,5.4159 4.670676,10.334 0,4.5552 -0.43912,10.6544 -4.6231,10.6544 -4.184146,0 -4.725047,-6.1586 -4.725047,-10.7141 6.62e-4,-4.9166 0.796348,-10.2735 4.678135,-10.2735 z"
       style="fill:none;fill-opacity:0.96774190999999998;stroke:#ffffff;stroke-opacity:1;stroke-width:0.5;stroke-miterlimit:4;stroke-dasharray:none"
       inkscape:connector-curvature="0" />
  </g>
</svg>
