<?xml version="1.0" encoding="UTF-8" standalone="no"?>
<!-- Created with Inkscape (http://www.inkscape.org/) -->

<svg
   xmlns:dc="http://purl.org/dc/elements/1.1/"
   xmlns:cc="http://creativecommons.org/ns#"
   xmlns:rdf="http://www.w3.org/1999/02/22-rdf-syntax-ns#"
   xmlns:svg="http://www.w3.org/2000/svg"
   xmlns="http://www.w3.org/2000/svg"
   xmlns:sodipodi="http://sodipodi.sourceforge.net/DTD/sodipodi-0.dtd"
   xmlns:inkscape="http://www.inkscape.org/namespaces/inkscape"
   width="48"
   height="48"
   id="svg2"
   version="1.1"
   inkscape:version="0.48.4 r9939"
   sodipodi:docname="synapse.svg">
  <defs
     id="defs4" />
  <sodipodi:namedview
     id="base"
     pagecolor="#424242"
     bordercolor="#666666"
     borderopacity="1.0"
     inkscape:pageopacity="0.83137255"
     inkscape:pageshadow="2"
     inkscape:zoom="6.6960676"
     inkscape:cx="14.623124"
     inkscape:cy="35.948912"
     inkscape:document-units="px"
     inkscape:current-layer="layer1"
     showgrid="false"
     inkscape:window-width="1366"
     inkscape:window-height="719"
     inkscape:window-x="0"
     inkscape:window-y="22"
     inkscape:window-maximized="1"
     showguides="true"
     inkscape:guide-bbox="true">
    <sodipodi:guide
       orientation="1,0"
       position="16.875576,-1.0453897"
       id="guide3761" />
    <sodipodi:guide
       orientation="1,0"
       position="33.004446,-13.590066"
       id="guide3763" />
    <sodipodi:guide
       orientation="1,0"
       position="13.291383,2.3894621"
       id="guide3767" />
    <sodipodi:guide
       orientation="1,0"
       position="29.718935,1.7920966"
       id="guide3769" />
  </sodipodi:namedview>
  <metadata
     id="metadata7">
    <rdf:RDF>
      <cc:Work
         rdf:about="">
        <dc:format>image/svg+xml</dc:format>
        <dc:type
           rdf:resource="http://purl.org/dc/dcmitype/StillImage" />
        <dc:title />
      </cc:Work>
    </rdf:RDF>
  </metadata>
  <g
     inkscape:label="Capa 1"
     inkscape:groupmode="layer"
     id="layer1"
     transform="translate(0,-1004.3622)">
    <path
       style="fill:#000000"
       d=""
       id="path906"
       inkscape:connector-curvature="0" />
    <path
       inkscape:connector-curvature="0"
       id="path354"
       style="fill:#333333;fill-opacity:1;fill-rule:nonzero;stroke:none"
       d="m 24.142332,1023.7595 c -1.244353,-0.018 -2.265544,-0.951 -2.264573,-2.0709 -0.0053,-1.1258 1.002764,-2.0186 2.253292,-1.9958 1.244299,0.018 2.265486,0.9509 2.264575,2.0709 0.0053,1.1257 -1.002785,2.0185 -2.253294,1.9958 z m 5.012737,6.4768 c 0,0 2.135553,-11.2783 -4.653757,-16.0218 -0.151881,-0.1051 -0.278204,-0.1418 -0.391322,-0.1444 -0.112655,0 -0.243336,0.032 -0.393202,0.1313 -6.748601,4.5045 -4.535129,15.8591 -4.535129,15.8591 -5.022134,3.5006 -3.812954,4.0169 -1.017833,10.2653 0.532299,1.1957 1.486949,0.9212 1.924311,0.066 0.43722,-0.8557 1.404872,-2.7404 1.404872,-2.7404 l 5.411657,0.094 c 0,0 0.979276,1.9189 1.427518,2.7896 0.445679,0.8727 1.400788,1.18 1.927889,0.01 2.744155,-6.1535 3.95061,-6.6282 -1.105006,-10.3037" />
    <path
       inkscape:connector-curvature="0"
       id="path354-4"
       style="fill:#ececec;fill-opacity:1;fill-rule:nonzero;stroke:none"
       d="m 23.377255,1023.4397 c -1.244352,-0.017 -2.265543,-0.951 -2.264572,-2.0709 -0.0053,-1.1257 1.002763,-2.0186 2.253293,-1.9959 1.244262,0.016 2.265484,0.9509 2.264573,2.071 0.0053,1.1258 -1.002781,2.0187 -2.253294,1.9958 z m 5.012738,6.4768 c 0,0 2.135553,-11.2784 -4.653757,-16.0218 -0.15188,-0.1051 -0.278205,-0.1418 -0.391318,-0.1442 -0.112657,0 -0.243337,0.032 -0.393207,0.1311 -6.748598,4.5046 -4.535126,15.8591 -4.535126,15.8591 -5.022133,3.5006 -3.812956,4.0169 -1.017834,10.2653 0.532301,1.1958 1.486949,0.9213 1.92431,0.066 0.437223,-0.8555 1.404871,-2.7404 1.404871,-2.7404 l 5.411658,0.094 c 0,0 0.979275,1.9189 1.427519,2.7896 0.445682,0.8729 1.400791,1.1801 1.927887,0.01 2.744156,-6.1535 3.950611,-6.6283 -1.10501,-10.3037" />
    <path
       sodipodi:type="arc"
       style="fill:#ececec;fill-opacity:1;stroke:#eaeaea;stroke-width:2.21700001000000002;stroke-linecap:round;stroke-linejoin:round;stroke-miterlimit:4;stroke-opacity:1;stroke-dasharray:none"
       id="path2991"
       sodipodi:cx="23.654469"
       sodipodi:cy="15.897508"
       sodipodi:rx="1.9008055"
       sodipodi:ry="2.9568086"
       d="m 25.555274,15.897508 a 1.9008055,2.9568086 0 1 1 -3.801611,0 1.9008055,2.9568086 0 1 1 3.801611,0 z"
       transform="matrix(0.8563054,-0.02999391,0.03332583,0.77069186,2.4912093,1009.8081)" />
  </g>
</svg>
