<?xml version="1.0" encoding="UTF-8" standalone="no"?>
<!-- Created with Inkscape (http://www.inkscape.org/) -->

<svg
   xmlns:dc="http://purl.org/dc/elements/1.1/"
   xmlns:cc="http://creativecommons.org/ns#"
   xmlns:rdf="http://www.w3.org/1999/02/22-rdf-syntax-ns#"
   xmlns:svg="http://www.w3.org/2000/svg"
   xmlns="http://www.w3.org/2000/svg"
   xmlns:xlink="http://www.w3.org/1999/xlink"
   xmlns:sodipodi="http://sodipodi.sourceforge.net/DTD/sodipodi-0.dtd"
   xmlns:inkscape="http://www.inkscape.org/namespaces/inkscape"
   width="48"
   height="48"
   id="svg1483"
   version="1.1"
   inkscape:version="0.48.4 r9939"
   sodipodi:docname="vlc.svg">
  <defs
     id="defs1485">
    <linearGradient
       id="linearGradient6075"
       inkscape:collect="always">
      <stop
         id="stop6077"
         offset="0"
         style="stop-color:#ec7928;stop-opacity:1" />
      <stop
         id="stop6079"
         offset="1"
         style="stop-color:#f29e34;stop-opacity:1" />
    </linearGradient>
    <linearGradient
       gradientUnits="userSpaceOnUse"
       y2="1007.4396"
       x2="37.957897"
       y1="1049.3441"
       x1="37.957897"
       id="linearGradient6081"
       xlink:href="#linearGradient6075"
       inkscape:collect="always"
       gradientTransform="translate(0,4.7900391e-5)" />
  </defs>
  <sodipodi:namedview
     id="base"
     pagecolor="#444444"
     bordercolor="#666666"
     borderopacity="1.0"
     inkscape:pageopacity="0.71764706"
     inkscape:pageshadow="2"
     inkscape:zoom="9.5241768"
     inkscape:cx="34.30284"
     inkscape:cy="16.15788"
     inkscape:document-units="px"
     inkscape:current-layer="layer1"
     showgrid="false"
     width="0px"
     height="0px"
     fit-margin-top="0"
     fit-margin-left="0"
     fit-margin-right="0"
     fit-margin-bottom="0"
     showguides="true"
     inkscape:guide-bbox="true"
     inkscape:window-width="1366"
     inkscape:window-height="717"
     inkscape:window-x="0"
     inkscape:window-y="23"
     inkscape:window-maximized="1">
    <sodipodi:guide
       orientation="0,1"
       position="357.125,409.8125"
       id="guide2142" />
    <sodipodi:guide
       orientation="0,1"
       position="359.5625,400.5625"
       id="guide2144" />
    <sodipodi:guide
       orientation="0,1"
       position="360.8125,403.0625"
       id="guide2161" />
    <sodipodi:guide
       orientation="0,1"
       position="317.49094,396.33335"
       id="guide2163" />
    <inkscape:grid
       type="xygrid"
       id="grid951"
       empspacing="5"
       visible="true"
       enabled="true"
       snapvisiblegridlinesonly="true" />
  </sodipodi:namedview>
  <metadata
     id="metadata1488">
    <rdf:RDF>
      <cc:Work
         rdf:about="">
        <dc:format>image/svg+xml</dc:format>
        <dc:type
           rdf:resource="http://purl.org/dc/dcmitype/StillImage" />
        <dc:title />
      </cc:Work>
    </rdf:RDF>
  </metadata>
  <g
     inkscape:label="Capa 1"
     inkscape:groupmode="layer"
     id="layer1"
     transform="translate(0,-1004.3622)">
    <path
       inkscape:connector-curvature="0"
       id="path446-3"
       style="fill:#000000;fill-opacity:0.49803922;fill-rule:nonzero;stroke:none"
       d="m 38.511972,1032.7473 -5.425465,-2.1907 0.626879,1.7436 c -0.03128,1.851 -3.619953,3.3173 -7.883768,3.3173 -4.267397,0 -7.85248,-1.4663 -7.883768,-3.3173 l 0.623291,-1.7436 -5.425466,2.1907 c -1.519333,0.6067 -1.582832,1.7437 -0.141301,2.5132 l 10.203487,5.4726 c 1.441533,0.78 3.802391,0.78 5.246611,0 l 10.2008,-5.4726 c 1.445112,-0.7713 1.380722,-1.9048 -0.1413,-2.5132 z m -12.682358,-11.116 c 1.620389,0 3.129003,-0.5026 3.570754,-1.2869 -0.609859,-1.7081 -1.130335,-3.1657 -1.462102,-4.0964 -0.219096,-0.6153 -1.213507,-0.9299 -2.108652,-0.9299 -0.898726,0 -1.892239,0.312 -2.112233,0.9299 -0.329086,0.9307 -0.852241,2.3883 -1.461208,4.0964 0.441754,0.7886 1.949471,1.2869 3.573441,1.2869 z m 0,9.6853 c 3.451845,0 6.341179,-1.1717 6.517349,-2.7004 -0.514203,-1.449 -1.074896,-3.0141 -1.623972,-4.5609 -0.38097,1.0997 -2.489618,1.8779 -4.893377,1.8779 -2.403758,0 -4.51241,-0.78 -4.894272,-1.8779 -0.551761,1.5468 -1.109766,3.1119 -1.623972,4.5609 0.174379,1.5287 3.065505,2.7004 6.518244,2.7004" />
    <path
       inkscape:connector-curvature="0"
       id="path446"
       style="fill:#ffffff;fill-opacity:1;fill-rule:nonzero;stroke:none"
       d="m 38.362903,1032.3714 -5.425465,-2.1907 0.626879,1.7436 c -0.03128,1.851 -3.619953,3.3173 -7.883768,3.3173 -4.267397,0 -7.85248,-1.4663 -7.883768,-3.3173 l 0.623291,-1.7436 -5.425466,2.1907 c -1.519332,0.6067 -1.582831,1.7437 -0.141301,2.5132 l 10.203487,5.4726 c 1.441533,0.78 3.802391,0.78 5.246611,0 l 10.2008,-5.4726 c 1.445116,-0.7713 1.38072,-1.9048 -0.1413,-2.5132 z m -12.682358,-11.116 c 1.620389,0 3.129003,-0.5026 3.570754,-1.2869 -0.609859,-1.7081 -1.130335,-3.1657 -1.462102,-4.0964 -0.219096,-0.6153 -1.213507,-0.9299 -2.108652,-0.9299 -0.898726,0 -1.892239,0.312 -2.112233,0.9299 -0.329086,0.9307 -0.852241,2.3883 -1.461208,4.0964 0.441754,0.7886 1.949471,1.2869 3.573441,1.2869 z m 0,9.6853 c 3.451845,0 6.341179,-1.1717 6.517349,-2.7004 -0.514203,-1.449 -1.074896,-3.0141 -1.623972,-4.5609 -0.38097,1.0997 -2.489618,1.8779 -4.893377,1.8779 -2.403758,0 -4.51241,-0.78 -4.894272,-1.8779 -0.551761,1.5468 -1.109766,3.1119 -1.623972,4.5609 0.174379,1.5287 3.065505,2.7004 6.518244,2.7004" />
  </g>
</svg>
